<svg width="94" height="94" viewBox="0 0 94 94" fill="none" 
  xmlns="http://www.w3.org/2000/svg">
  <path d="M79.8895 70.2377C72.5982 80.519 60.5859 87.2857 47 87.2857C33.4141 87.2857 21.4018 80.519 14.1105 70.2377C15.4743 60.4286 19.4609 51.721 28.3784 50.5145C32.9944 55.5502 39.6563 58.75 47 58.75C54.3438 58.75 61.0056 55.5502 65.6217 50.5145C74.5391 51.721 78.5257 60.4286 79.8895 70.2377ZM67.1429 33.5714C67.1429 44.692 58.1205 53.7143 47 53.7143C35.8795 53.7143 26.8571 44.692 26.8571 33.5714C26.8571 22.4509 35.8795 13.4286 47 13.4286C58.1205 13.4286 67.1429 22.4509 67.1429 33.5714ZM94 47C94 21.0346 72.9654 0 47 0C21.0346 0 0 21.0346 0 47C0 72.9129 21.0346 94 47 94C73.0179 94 94 72.8605 94 47Z" fill="#BDBDBD"/>
</svg>
