<svg width="65" height="45" viewBox="0 0 65 45" fill="none" 
  xmlns="http://www.w3.org/2000/svg">
  <path d="M52.7852 0H12.0305C9.07805 4.42868 7.5022 9.63283 7.5022 14.9558V18.1132L8.52106 38.4815L13.415 38.4906H53.7146L56.2946 38.4781L57.3135 18.1132V14.9558C57.3135 9.63283 55.7377 4.42868 52.7852 0Z" fill="#8C421C"/>
  <path d="M19.9551 0C17.7509 2.93887 16.5588 6.51396 16.5588 10.1887V38.4906H21.0871V10.1887C21.0871 6.51396 22.2792 2.93887 24.4834 0H19.9551Z" fill="#FDB62F"/>
  <path d="M44.8606 0H40.3323C42.5364 2.93887 43.7285 6.51396 43.7285 10.1887V38.4906H48.2568V10.1887C48.2568 6.51396 47.0647 2.93887 44.8606 0Z" fill="#FDB62F"/>
  <path d="M16.5588 22.6415H21.0871V24.9057H16.5588V22.6415Z" fill="#DB9E29"/>
  <path d="M43.7285 22.6415H48.2568V24.9057H43.7285V22.6415Z" fill="#DB9E29"/>
  <path d="M8.521 38.4815L8.6342 40.7547L29.0116 44.1509L32.4078 41.8868L35.804 44.1509L56.1814 40.7547L56.2946 38.486L8.521 38.4815Z" fill="#783918"/>
  <path d="M64.2135 9.91698C63.5048 4.25208 58.6889 0 52.9799 0H52.7852C55.7376 4.42868 57.3135 9.63283 57.3135 14.9558V18.1132L56.1814 40.7547V44.1509H62.9738L64.5225 26.3423C64.7603 23.6038 64.8531 20.8574 64.801 18.1132C64.7501 15.3747 64.5542 12.6385 64.2135 9.91698Z" fill="#FDB62F"/>
  <path d="M12.0305 0H11.8357C6.12668 0 1.31083 4.25094 0.602156 9.91698C-0.0793538 15.3657 -0.182373 20.8721 0.293099 26.3434L1.84178 44.1509H8.63423V40.7547L7.50216 18.1132V14.9558C7.50216 9.63283 9.078 4.42868 12.0305 0Z" fill="#FDB62F"/>
  <path d="M8.46432 37.3585H1.25073L1.84168 44.1509H8.63413V40.7547L8.46432 37.3585Z" fill="#EDAB2C"/>
  <path d="M56.3512 37.3585L56.1814 40.7547V44.1509H62.9739L63.5648 37.3585H56.3512Z" fill="#EDAB2C"/>
  <path d="M4.10595 14.717C3.48105 14.717 2.97388 14.2098 2.97388 13.5849C2.97388 12.96 3.48105 12.4528 4.10595 12.4528C4.73086 12.4528 5.23803 12.96 5.23803 13.5849C5.23803 14.2098 4.73086 14.717 4.10595 14.717Z" fill="#30160A"/>
  <path d="M4.10595 23.7736C3.48105 23.7736 2.97388 23.2664 2.97388 22.6415C2.97388 22.0166 3.48105 21.5094 4.10595 21.5094C4.73086 21.5094 5.23803 22.0166 5.23803 22.6415C5.23803 23.2664 4.73086 23.7736 4.10595 23.7736Z" fill="#30160A"/>
  <path d="M4.10595 32.8302C3.48105 32.8302 2.97388 32.323 2.97388 31.6981C2.97388 31.0732 3.48105 30.566 4.10595 30.566C4.73086 30.566 5.23803 31.0732 5.23803 31.6981C5.23803 32.323 4.73086 32.8302 4.10595 32.8302Z" fill="#30160A"/>
  <path d="M60.7097 14.717C60.0848 14.717 59.5776 14.2098 59.5776 13.5849C59.5776 12.96 60.0848 12.4528 60.7097 12.4528C61.3346 12.4528 61.8418 12.96 61.8418 13.5849C61.8418 14.2098 61.3346 14.717 60.7097 14.717Z" fill="#30160A"/>
  <path d="M60.7097 23.7736C60.0848 23.7736 59.5776 23.2664 59.5776 22.6415C59.5776 22.0166 60.0848 21.5094 60.7097 21.5094C61.3346 21.5094 61.8418 22.0166 61.8418 22.6415C61.8418 23.2664 61.3346 23.7736 60.7097 23.7736Z" fill="#30160A"/>
  <path d="M60.7097 32.8302C60.0848 32.8302 59.5776 32.323 59.5776 31.6981C59.5776 31.0732 60.0848 30.566 60.7097 30.566C61.3346 30.566 61.8418 31.0732 61.8418 31.6981C61.8418 32.323 61.3346 32.8302 60.7097 32.8302Z" fill="#30160A"/>
  <path opacity="0.16" d="M0.0146484 16.9811H64.8022V19.2453H0.0146484V16.9811Z" fill="black"/>
  <path d="M35.0706 24.3622L34.183 22.2792C35.8551 21.5649 36.9362 19.9302 36.9362 18.1132C36.9362 15.6158 34.9053 13.5849 32.4079 13.5849C29.9106 13.5849 27.8796 15.6158 27.8796 18.1132C27.8796 19.9302 28.9608 21.5649 30.634 22.2792L29.7464 24.3622C27.2366 23.2913 25.6155 20.8392 25.6155 18.1132C25.6155 14.3672 28.6619 11.3207 32.4079 11.3207C36.154 11.3207 39.2004 14.3672 39.2004 18.1132C39.2004 20.8392 37.5793 23.2913 35.0706 24.3622Z" fill="#30160A"/>
  <path d="M36.9362 24.9057H35.8042V23.7736C35.8042 21.9011 34.2804 20.3773 32.4079 20.3773C30.5355 20.3773 29.0117 21.9011 29.0117 23.7736V24.9057H27.8796C27.2547 24.9057 26.7476 25.4128 26.7476 26.0377V35.0943C26.7476 35.7192 27.2547 36.2264 27.8796 36.2264H36.9362C37.5611 36.2264 38.0683 35.7192 38.0683 35.0943V26.0377C38.0683 25.4128 37.5611 24.9057 36.9362 24.9057ZM31.2759 23.7736C31.2759 23.1498 31.7842 22.6415 32.4079 22.6415C33.0317 22.6415 33.54 23.1498 33.54 23.7736V24.9057H31.2759V23.7736Z" fill="#FDB62F"/>
  <path d="M33.5398 29.434C33.5398 28.809 33.0326 28.3019 32.4077 28.3019C31.7828 28.3019 31.2756 28.809 31.2756 29.434C31.2756 29.8336 31.4941 30.1675 31.8066 30.3691V33.9475H33.01V30.3691C33.3213 30.1664 33.5398 29.8324 33.5398 29.434Z" fill="#30160A"/>
</svg>
