<svg width="170" height="170" viewBox="0 0 170 170" fill="none" 
  xmlns="http://www.w3.org/2000/svg">
  <path d="M63.75 55.7812L69.0625 58.4375V66.4062H79.6875V58.4375L85 55.7812L90.3125 58.4375V66.4062H100.938V58.4375L106.25 55.7812V29.2188H63.75V55.7812Z" fill="#DEA029"/>
  <path d="M106.25 66.4062V50.4688L100.938 53.125V61.0938H95.625V53.125L85 50.4688L74.375 53.125V61.0938H69.0625V53.125L63.75 50.4688V66.4062H106.25Z" fill="#D19727"/>
  <path d="M58.4375 5.3125H69.0625V15.9375H58.4375V5.3125Z" fill="#FDB62F"/>
  <path d="M39.8438 95.625H31.875V85H23.9062V95.625H15.9375V85H5.3125V164.688H47.8125V85H39.8438V95.625Z" fill="#FDB62F"/>
  <path d="M154.062 85V95.625H146.094V85H138.125V95.625H130.156V85H122.188V164.688H164.688V85H154.062Z" fill="#FDB62F"/>
  <path d="M100.938 5.3125H111.562V15.9375H100.938V5.3125Z" fill="#FDB62F"/>
  <path d="M79.6875 5.3125H90.3125V15.9375H79.6875V5.3125Z" fill="#FDB62F"/>
  <path d="M85 119.531C76.1972 119.531 69.0625 126.666 69.0625 135.469V164.688H85H100.938V135.469C100.938 126.666 93.8028 119.531 85 119.531Z" fill="#8C421C"/>
  <path d="M61.0938 85H77.0312V106.25H61.0938V85Z" fill="#C48E24"/>
  <path d="M92.9688 85H108.906V106.25H92.9688V85Z" fill="#C48E24"/>
  <path d="M39.8438 85H47.8125V164.688H39.8438V85Z" fill="#DEA029"/>
  <path d="M122.188 85H130.156V164.688H122.188V85Z" fill="#DEA029"/>
  <path d="M15.9375 108.906H21.25V124.844H15.9375V108.906Z" fill="#C48E24"/>
  <path d="M31.875 108.906H37.1875V124.844H31.875V108.906Z" fill="#C48E24"/>
  <path d="M148.75 108.906H154.062V124.844H148.75V108.906Z" fill="#C48E24"/>
  <path d="M132.812 108.906H138.125V124.844H132.812V108.906Z" fill="#C48E24"/>
  <path d="M85 119.531C76.1972 119.531 69.0625 126.666 69.0625 135.469V143.438C69.0625 135.543 74.808 129.006 82.3438 127.739V164.688H87.6562V127.739C95.192 129.006 100.938 135.543 100.938 143.438V135.469C100.938 126.666 93.8028 119.531 85 119.531Z" fill="#7D3B19"/>
  <path d="M77.0312 138.125H79.6875V143.438H77.0312V138.125Z" fill="#7D3B19"/>
  <path d="M90.3125 138.125H92.9688V143.438H90.3125V138.125Z" fill="#7D3B19"/>
  <path d="M111.562 15.9375H100.938H90.3125H79.6875H69.0625H58.4375L63.75 29.2188H106.25L111.562 15.9375Z" fill="#C48E24"/>
  <path d="M122.188 66.4062H111.562V58.4375L106.25 55.7812L100.938 58.4375V66.4062H90.3125V58.4375L85 55.7812L79.6875 58.4375V66.4062H69.0625V58.4375L63.75 55.7812L58.4375 58.4375V66.4062H47.8125V85V164.688H69.0625V135.469C69.0625 126.666 76.1972 119.531 85 119.531C93.8028 119.531 100.938 126.666 100.938 135.469V164.688H122.188V85V66.4062ZM77.0312 106.25H61.0938V85H77.0312V106.25ZM108.906 106.25H92.9688V85H108.906V106.25Z" fill="#FDB62F"/>
</svg>
