<svg width="70" height="70" viewBox="0 0 70 70" fill="none" 
    xmlns="http://www.w3.org/2000/svg">
    <path d="M54.6875 20.7812H15.3125C12.46 25.06 10.9375 30.088 10.9375 35.2308V38.2812L11.9219 57.96L16.6502 57.9688H55.5855L58.0781 57.9567L59.0625 38.2812V35.2308C59.0625 30.088 57.54 25.06 54.6875 20.7812Z" fill="#8C421C"/>
    <path d="M22.9688 20.7812C20.8392 23.6206 19.6875 27.0747 19.6875 30.625V57.9688H24.0625V30.625C24.0625 27.0747 25.2142 23.6206 27.3438 20.7812H22.9688Z" fill="#FDB62F"/>
    <path d="M47.0312 20.7812H42.6562C44.7858 23.6206 45.9375 27.0747 45.9375 30.625V57.9688H50.3125V30.625C50.3125 27.0747 49.1608 23.6206 47.0312 20.7812Z" fill="#FDB62F"/>
    <path d="M19.6875 42.6562H24.0625V44.8438H19.6875V42.6562Z" fill="#DB9E29"/>
    <path d="M45.9375 42.6562H50.3125V44.8438H45.9375V42.6562Z" fill="#DB9E29"/>
    <path d="M3.28125 13.125H5.46875V15.3125H3.28125V13.125Z" fill="#FDB62F"/>
    <path d="M5.46875 15.3125H7.65625V17.5H5.46875V15.3125Z" fill="#FDB62F"/>
    <path d="M7.65625 13.125H9.84375V15.3125H7.65625V13.125Z" fill="#FDB62F"/>
    <path d="M5.46875 10.9375H7.65625V13.125H5.46875V10.9375Z" fill="#FDB62F"/>
    <path d="M50.3125 13.125H52.5V15.3125H50.3125V13.125Z" fill="#FDB62F"/>
    <path d="M52.5 15.3125H54.6875V17.5H52.5V15.3125Z" fill="#FDB62F"/>
    <path d="M54.6875 13.125H56.875V15.3125H54.6875V13.125Z" fill="#FDB62F"/>
    <path d="M52.5 10.9375H54.6875V13.125H52.5V10.9375Z" fill="#FDB62F"/>
    <path d="M60.1562 9.84375H62.3438V12.0312H60.1562V9.84375Z" fill="#FDB62F"/>
    <path d="M56.875 5.46875H59.0625V7.65625H56.875V5.46875Z" fill="#FDB62F"/>
    <path d="M13.125 15.3125H15.3125V17.5H13.125V15.3125Z" fill="#FDB62F"/>
    <path d="M13.125 6.5625H15.3125V8.75H13.125V6.5625Z" fill="#FDB62F"/>
    <path d="M11.9219 57.96L12.0313 60.1562L31.7187 63.4375L35 61.25L38.2812 63.4375L57.9687 60.1562L58.0781 57.9643L11.9219 57.96Z" fill="#783918"/>
    <path d="M65.7289 30.3625C65.0442 24.8894 60.3914 20.7812 54.8756 20.7812H54.6875C57.54 25.06 59.0625 30.088 59.0625 35.2308V38.2812L57.9688 60.1562V63.4375H64.5313L66.0275 46.2317C66.2572 43.5859 66.3469 40.9325 66.2966 38.2812C66.2473 35.6355 66.0581 32.9919 65.7289 30.3625Z" fill="#FDB62F"/>
    <path d="M15.3125 20.7812H15.1244C9.60859 20.7812 4.95578 24.8883 4.27109 30.3625C3.61266 35.6267 3.51312 40.9467 3.9725 46.2328L5.46875 63.4375H12.0312V60.1562L10.9375 38.2812V35.2308C10.9375 30.088 12.46 25.06 15.3125 20.7812Z" fill="#FDB62F"/>
    <path d="M11.8672 56.875H4.89781L5.46875 63.4375H12.0312V60.1562L11.8672 56.875Z" fill="#EDAB2C"/>
    <path d="M58.1328 56.875L57.9688 60.1562V63.4375H64.5313L65.1022 56.875H58.1328Z" fill="#EDAB2C"/>
    <path d="M7.65625 35C7.0525 35 6.5625 34.51 6.5625 33.9062C6.5625 33.3025 7.0525 32.8125 7.65625 32.8125C8.26 32.8125 8.75 33.3025 8.75 33.9062C8.75 34.51 8.26 35 7.65625 35Z" fill="#30160A"/>
    <path d="M7.65625 43.75C7.0525 43.75 6.5625 43.26 6.5625 42.6562C6.5625 42.0525 7.0525 41.5625 7.65625 41.5625C8.26 41.5625 8.75 42.0525 8.75 42.6562C8.75 43.26 8.26 43.75 7.65625 43.75Z" fill="#30160A"/>
    <path d="M7.65625 52.5C7.0525 52.5 6.5625 52.01 6.5625 51.4062C6.5625 50.8025 7.0525 50.3125 7.65625 50.3125C8.26 50.3125 8.75 50.8025 8.75 51.4062C8.75 52.01 8.26 52.5 7.65625 52.5Z" fill="#30160A"/>
    <path d="M62.3438 35C61.74 35 61.25 34.51 61.25 33.9062C61.25 33.3025 61.74 32.8125 62.3438 32.8125C62.9475 32.8125 63.4375 33.3025 63.4375 33.9062C63.4375 34.51 62.9475 35 62.3438 35Z" fill="#30160A"/>
    <path d="M62.3438 43.75C61.74 43.75 61.25 43.26 61.25 42.6562C61.25 42.0525 61.74 41.5625 62.3438 41.5625C62.9475 41.5625 63.4375 42.0525 63.4375 42.6562C63.4375 43.26 62.9475 43.75 62.3438 43.75Z" fill="#30160A"/>
    <path d="M62.3438 52.5C61.74 52.5 61.25 52.01 61.25 51.4062C61.25 50.8025 61.74 50.3125 62.3438 50.3125C62.9475 50.3125 63.4375 50.8025 63.4375 51.4062C63.4375 52.01 62.9475 52.5 62.3438 52.5Z" fill="#30160A"/>
    <path opacity="0.16" d="M3.70344 37.1875H66.2977V39.375H3.70344V37.1875Z" fill="black"/>
    <path d="M37.5725 44.3188L36.715 42.3063C38.3305 41.6161 39.375 40.0367 39.375 38.2813C39.375 35.8684 37.4128 33.9063 35 33.9063C32.5872 33.9063 30.625 35.8684 30.625 38.2813C30.625 40.0367 31.6695 41.6161 33.2861 42.3063L32.4286 44.3188C30.0038 43.2841 28.4375 40.915 28.4375 38.2813C28.4375 34.662 31.3808 31.7188 35 31.7188C38.6192 31.7188 41.5625 34.662 41.5625 38.2813C41.5625 40.915 39.9963 43.2841 37.5725 44.3188Z" fill="#30160A"/>
    <path d="M39.375 44.8438H38.2812V43.75C38.2812 41.9409 36.8091 40.4688 35 40.4688C33.1909 40.4688 31.7188 41.9409 31.7188 43.75V44.8438H30.625C30.0213 44.8438 29.5312 45.3338 29.5312 45.9375V54.6875C29.5312 55.2913 30.0213 55.7812 30.625 55.7812H39.375C39.9788 55.7812 40.4688 55.2913 40.4688 54.6875V45.9375C40.4688 45.3338 39.9788 44.8438 39.375 44.8438ZM33.9062 43.75C33.9062 43.1473 34.3973 42.6562 35 42.6562C35.6027 42.6562 36.0938 43.1473 36.0938 43.75V44.8438H33.9062V43.75Z" fill="#FDB62F"/>
    <path d="M36.0938 49.2187C36.0938 48.615 35.6037 48.125 35 48.125C34.3963 48.125 33.9062 48.615 33.9062 49.2187C33.9062 49.6048 34.1173 49.9275 34.4192 50.1222V53.5795H35.5819V50.1222C35.8827 49.9264 36.0938 49.6037 36.0938 49.2187Z" fill="#30160A"/>
</svg>
