<svg width="60" height="60" viewBox="0 0 60 60" fill="none" 
  xmlns="http://www.w3.org/2000/svg">
  <path d="M30 60C46.5685 60 60 46.5685 60 30C60 13.4315 46.5685 0 30 0C13.4315 0 0 13.4315 0 30C0 46.5685 13.4315 60 30 60Z" fill="#FFE14D"/>
  <path d="M60 30C60 13.4579 46.5421 0 30 0V60C46.5421 60 60 46.5421 60 30Z" fill="#FFBB33"/>
  <path d="M30 52.8516C17.4 52.8516 7.14844 42.6 7.14844 30C7.14844 17.4 17.4 7.14844 30 7.14844C42.6 7.14844 52.8516 17.4 52.8516 30C52.8516 42.6 42.6 52.8516 30 52.8516Z" fill="#FFBB33"/>
  <path d="M52.8516 30C52.8516 17.4 42.6 7.14844 30 7.14844V52.8516C42.6 52.8516 52.8516 42.6 52.8516 30Z" fill="#E68A2E"/>
  <path d="M31.7578 28.3674V21.4174C33.7795 21.9135 35.2734 23.2143 35.2734 24.7095C35.2734 25.6811 36.0596 26.4673 37.0312 26.4673C38.0029 26.4673 38.7891 25.6811 38.7891 24.7095C38.7891 21.3131 35.7655 18.4735 31.7578 17.8205V15.9204C31.7578 14.9488 30.9716 14.1626 30 14.1626C29.0284 14.1626 28.2422 14.9488 28.2422 15.9204V17.8205C24.2345 18.4735 21.2109 21.3131 21.2109 24.7095C21.2109 28.1058 24.2345 30.9455 28.2422 31.5985V38.5484C26.2205 38.0523 24.7266 36.7515 24.7266 35.2563C24.7266 34.2847 23.9404 33.4985 22.9688 33.4985C21.9971 33.4985 21.2109 34.2847 21.2109 35.2563C21.2109 38.6527 24.2345 41.4924 28.2422 42.1453V44.0625C28.2422 45.0341 29.0284 45.8203 30 45.8203C30.9716 45.8203 31.7578 45.0341 31.7578 44.0625V42.1453C35.7655 41.4924 38.7891 38.6527 38.7891 35.2563C38.7891 31.86 35.7655 29.0202 31.7578 28.3674ZM24.7266 24.7095C24.7266 23.2143 26.2205 21.9135 28.2422 21.4174V28.0015C26.2205 27.5053 24.7266 26.2046 24.7266 24.7095ZM31.7578 38.5484V31.9643C33.7795 32.4604 35.2734 33.7612 35.2734 35.2563C35.2734 36.7515 33.7795 38.0522 31.7578 38.5484Z" fill="#FFE14D"/>
  <path d="M31.7578 44.0625V42.1453C35.7655 41.4924 38.7891 38.6527 38.7891 35.2563C38.7891 31.86 35.7655 29.0203 31.7578 28.3674V21.4174C33.7795 21.9135 35.2734 23.2143 35.2734 24.7095C35.2734 25.6811 36.0596 26.4673 37.0312 26.4673C38.0029 26.4673 38.7891 25.6811 38.7891 24.7095C38.7891 21.3131 35.7655 18.4735 31.7578 17.8205V15.9204C31.7578 14.9488 30.9716 14.1626 30 14.1626V45.8203C30.9716 45.8203 31.7578 45.0341 31.7578 44.0625ZM31.7578 31.9642C33.7795 32.4603 35.2734 33.761 35.2734 35.2562C35.2734 36.7514 33.7795 38.0522 31.7578 38.5483V31.9642Z" fill="#FFBB33"/>
</svg>
