<svg width="70" height="70" viewBox="0 0 70 70" fill="none" xmlns="http://www.w3.org/2000/svg">
<path d="M5.24343 60.0934H64.742C67.0213 60.0934 68.8691 61.9379 68.8691 64.2132C68.8691 66.4884 67.0213 68.333 64.742 68.333H5.24343C2.96414 68.333 1.11628 66.4884 1.11628 64.2132C1.11628 61.9379 2.96414 60.0934 5.24343 60.0934Z" fill="#CE7419"/>
<path d="M0 36.4761C15.7008 56.7006 30.9903 38.121 35 9.74506C39.0097 38.121 54.2992 56.7446 70 36.4173L56.3114 60.0933H13.718L0 36.4761Z" fill="#FCBA29"/>
<path d="M35 9.74506C39.0096 38.121 54.2992 56.7446 70 36.4173L56.3114 60.0933H35V9.74506Z" fill="#E99A23"/>
<path d="M35 9.74507C37.2307 9.74507 39.0391 7.93674 39.0391 5.70605C39.0391 3.47536 37.2307 1.66702 35 1.66702C32.7693 1.66702 30.961 3.47536 30.961 5.70605C30.961 7.93674 32.7693 9.74507 35 9.74507Z" fill="#FCBA29"/>
<path d="M35 39.3401L37.9081 43.2176L40.8309 47.095L37.9081 50.9725L35 54.85L32.0919 50.9725L29.1692 47.095L32.0919 43.2176L35 39.3401Z" fill="#CE7419"/>
<path d="M14.2027 44.936C14.9862 37.2565 14.57 29.5018 12.9689 21.9503C15.9853 28.0204 19.7771 33.6733 24.2488 38.7673C21.3114 42.4391 17.8158 44.6422 14.1439 44.936H14.2027ZM55.7973 44.936C55.0137 37.2565 55.4299 29.5018 57.031 21.9503C54.0146 28.0204 50.2229 33.6733 45.7511 38.7673C48.7033 42.4391 52.1255 44.6569 55.7973 44.936Z" fill="#CE7419"/>
<g clip-path="url(#clip0)">
<path d="M35 39.7015L28.8783 47.0149L35 54.3283L41.1217 47.0149L35 39.7015Z" fill="#FD2C2C"/>
<path d="M35 54.3283L28.8783 47.0149L35 39.7015V54.3283Z" fill="black" fill-opacity="0.3"/>
</g>
<defs>
<clipPath id="clip0">
<rect x="27.1642" y="39.7015" width="15.6716" height="14.6269" fill="white"/>
</clipPath>
</defs>
</svg>
