<svg width="31" height="25" viewBox="0 0 31 25" fill="none" xmlns="http://www.w3.org/2000/svg">
<path d="M15.2094 10.6904C14.0146 11.8945 12.5615 12.4965 10.85 12.4965C9.13854 12.4965 7.66927 11.8945 6.44219 10.6904C5.2474 9.45374 4.65 7.97304 4.65 6.24826C4.65 4.52348 5.2474 3.05904 6.44219 1.85495C7.66927 0.618317 9.13854 0 10.85 0C12.5615 0 14.0146 0.618317 15.2094 1.85495C16.4365 3.05904 17.05 4.52348 17.05 6.24826C17.05 7.97304 16.4365 9.45374 15.2094 10.6904ZM15.2094 14.0586C17.1146 14.0586 18.7292 14.8071 20.0531 16.304L16.275 20.0628L15.8875 20.4533L15.8391 20.9902L15.5 23.9679C15.4677 24.2934 15.5161 24.6351 15.6453 24.993H2.325C1.67917 24.993 1.13021 24.7652 0.678125 24.3096C0.226042 23.854 0 23.3008 0 22.6499V20.5997C0 18.8099 0.629687 17.2803 1.88906 16.0112C3.18073 14.7094 4.71458 14.0586 6.49062 14.0586H7.31406C8.44427 14.5793 9.62292 14.8396 10.85 14.8396C12.0771 14.8396 13.2557 14.5793 14.3859 14.0586H15.2094ZM17.3891 21.1367L24.0734 14.4491L27.5125 17.9149L20.8766 24.6513L17.9219 24.993C17.6635 25.0256 17.4375 24.9442 17.2437 24.749C17.0823 24.5862 17.0177 24.3747 17.05 24.1144L17.3891 21.1367ZM30.6609 13.1311C30.887 13.3589 31 13.6355 31 13.9609C31 14.2864 30.887 14.563 30.6609 14.7908L28.6266 16.841L25.1391 13.3264L25.3812 13.1311L27.1734 11.2762C27.3995 11.0483 27.674 10.9344 27.9969 10.9344C28.3198 10.9344 28.5943 11.0483 28.8203 11.2762L30.6609 13.1311Z" fill="#012F59"/>
</svg>
