<svg width="187" height="218" viewBox="0 0 187 218" fill="none" 
    xmlns="http://www.w3.org/2000/svg">
    <path d="M58.5619 24.8611C58.7553 25.0823 58.8544 25.4319 58.9843 25.6856C59.1468 26.0028 59.3093 26.3199 59.6605 26.3802C60.2685 26.6292 60.6553 27.0717 60.9153 27.5791C61.0128 27.7694 61.299 27.7028 61.2649 27.48L61.2324 27.4166C61.1303 26.7483 61.4149 26.5224 61.9873 26.3893C62.5597 26.2562 63.0687 26.1556 63.5824 26.533C64.1285 26.9739 64.5478 27.4798 64.9362 28.0815C65.1312 28.4621 65.3261 28.8427 65.4886 29.1598C65.7486 29.6672 66.1029 30.0462 66.6784 30.2318C67.3824 30.5118 67.517 31.2435 67.7461 31.8469C68.1747 33.3089 68.3806 34.8049 68.5541 36.2375C68.5897 36.6196 68.6887 36.9692 68.7553 37.2554C68.7893 37.4782 68.8868 37.6685 69.1111 37.7938C69.7192 38.0428 69.9791 38.5502 70.0488 39.1551C70.25 40.1731 70.3553 41.1601 70.2378 42.1812L70.2069 42.2771C69.7335 42.7599 69.8666 43.3323 69.9997 43.9047C70.0647 44.0315 70.1606 44.0625 70.2875 43.9975C70.7933 43.5782 71.1136 43.7344 71.4076 44.4646C71.6026 44.8452 71.7001 45.0355 72.1456 44.9673C72.4318 44.9008 72.6252 45.122 72.6918 45.4082C72.7893 45.5985 72.8233 45.8213 72.9533 46.075C72.9533 46.075 72.9533 46.075 72.9858 46.1384C73.317 47.4101 73.4579 48.7793 73.5663 50.085C73.5694 50.4037 73.6035 50.6265 73.9872 50.7502C74.275 50.843 74.309 51.0658 74.3756 51.352C74.583 53.0073 74.5352 54.6333 74.2956 56.1975C74.2971 56.3568 74.2028 56.4852 74.2678 56.6121C74.4302 56.9292 74.4024 57.3438 74.2787 57.7275C74.2787 57.7275 74.2787 57.7275 74.2152 57.76C73.8394 58.433 74.1009 59.0998 74.2031 59.7681C74.2062 60.0868 74.6842 60.0822 74.8142 60.3359C74.8467 60.3993 74.8792 60.4627 74.8792 60.4627C75.0495 61.5766 74.9336 62.7571 74.6892 63.8431C74.6598 64.0984 74.6305 64.3537 74.3443 64.4202C74.0581 64.4868 73.9606 64.2965 73.7997 64.1387C73.156 63.5076 72.3562 63.1967 71.5253 62.9817C71.5253 62.9817 71.5253 62.9817 71.4619 63.0142C70.8245 63.0204 70.2521 63.1535 70.0046 63.9209C69.9118 64.2087 69.6566 64.1793 69.4338 64.2134C68.6695 64.2846 68.354 64.6064 68.2334 65.3088C68.1421 65.7559 67.8575 65.9818 67.2526 66.0515C67.2526 66.0515 67.1891 66.084 67.1566 66.0206C66.2283 65.6153 65.71 64.7598 65.0339 64.0652C64.4536 63.4016 64.0312 62.577 63.4819 61.8175C63.256 61.5328 62.9667 61.2807 62.6464 61.1245C61.8775 60.7176 61.5201 60.0199 61.1626 59.3222C60.9676 58.9417 60.7092 58.5936 60.4184 58.1821C60.2249 57.9609 59.9991 57.6762 59.8691 57.4225C59.5766 56.8517 59.3151 56.1849 58.7055 55.7765C58.2243 55.4625 57.6441 54.7989 57.4167 54.3549C56.8008 53.3091 56.0256 52.2649 55.8213 50.9282C55.7191 50.2599 55.2983 49.5947 54.9408 48.897C54.4534 47.9455 54.1253 46.9926 53.9551 45.8787C53.8854 45.2738 53.8838 45.1144 54.3603 44.9504C54.4872 44.8854 54.5181 44.7895 54.4531 44.6626C54.0338 44.1568 53.7738 43.6494 53.1333 43.3369C52.3644 42.9301 52.1338 42.1674 51.8398 41.4372C51.3524 40.4858 51.0227 39.3734 50.6622 38.357C50.2026 36.991 50.0292 35.5584 50.2069 34.1861C50.2966 33.5797 50.227 32.9748 50.1573 32.3699C49.9854 31.0966 50.1013 29.9162 50.536 28.7326C50.6906 28.253 50.9428 27.9637 51.4843 27.9265C51.7395 27.9559 51.8014 27.764 51.8633 27.5722C52.1123 26.9642 52.4263 26.483 52.9322 26.0637C53.2478 25.7418 53.3406 25.4541 53.4627 24.911C53.6111 23.794 57.782 23.3388 58.5619 24.8611Z" fill="#8B0019"/>
    <path d="M62.7782 149.38L81.438 170.329L107.2 180.913L127.354 175.552L139.023 166.131L149.709 147.444L149.41 126.698L144.51 111.351L89.0775 136.787L62.7782 149.38Z" fill="#E2BA93"/>
    <path d="M142.081 159.439C142.302 168.935 113.784 182.825 105.737 178.059C105.801 178.026 115.453 197.024 115.453 197.024C115.453 197.024 129.224 197.175 135.282 190.869C143.939 189.637 151.861 178.372 151.861 178.372C151.861 178.372 141.954 159.504 142.081 159.439Z" fill="#000400"/>
    <path d="M102.378 160.656C103.674 160.008 104.144 158.376 103.427 157.011C102.71 155.645 101.078 155.064 99.7822 155.712C98.486 156.36 98.0163 157.992 98.7332 159.357C99.4501 160.722 101.082 161.303 102.378 160.656Z" fill="#000400"/>
    <path d="M129.018 147.008C130.314 146.36 130.784 144.728 130.067 143.363C129.35 141.998 127.718 141.416 126.422 142.064C125.126 142.712 124.656 144.344 125.373 145.709C126.09 147.074 127.722 147.656 129.018 147.008Z" fill="#000400"/>
    <path d="M69.2424 63.5491C43.2112 76.5642 28.6005 94.019 28.6005 94.019C28.6005 94.019 46.7141 124.825 67.5392 155.912C88.0645 186.576 116.771 186.057 130.063 179.411C143.294 172.796 160.743 150.239 146.925 116.221C132.931 81.7181 118.325 49.1584 118.325 49.1584C118.325 49.1584 95.2736 50.534 69.2424 63.5491ZM143.636 158.055C139.377 166.814 132.61 172.571 127.749 175.002C122.887 177.433 114.146 179.429 104.374 177.685C97.5107 176.451 85.6319 172.322 72.2526 156.011C85.8662 160.337 139.763 132.325 144.5 119.889C150.657 136.946 146.619 151.898 143.636 158.055Z" fill="#012F59"/>
    <path d="M74.3233 72.0381C76.9505 70.6921 77.9892 67.4712 76.6433 64.8439C75.2973 62.2167 72.0764 61.178 69.4491 62.524C66.8218 63.8699 65.7831 67.0909 67.1291 69.7181C68.4751 72.3454 71.696 73.3841 74.3233 72.0381Z" fill="#EAD300"/>
    <path d="M132.407 118.673C123.088 123.928 123.356 118.825 118.721 120.719C114.087 122.613 105.822 118.36 99.6057 121.544C93.3898 124.729 92.0137 133.922 87.7687 136.577C83.5238 139.232 87.8853 141.962 78.1127 146.488C68.4036 150.982 70.6582 156.633 70.6582 156.633L145.059 118.517C145.059 118.517 141.789 113.386 132.407 118.673Z" fill="#EAD300"/>
    <path d="M129.132 158.546C126.671 157.805 123.211 156.054 118.581 158.427C112.999 161.286 113.351 164.629 112.514 167.06C111.677 169.49 109.491 170.85 107.265 171.35C107.265 171.35 110.903 175.012 114.88 171.053C118.921 167.061 118.332 165.6 121.44 164.008C124.548 162.416 125.39 163.746 130.99 162.799C136.591 161.852 135.681 156.793 135.681 156.793C133.974 158.308 131.594 159.287 129.132 158.546Z" fill="#000400"/>
    <path d="M121.37 125.772C120.43 125.489 119.844 125.279 118.742 125.749C116.566 126.592 113.926 126.24 111.153 125.786C107.961 125.291 104.645 124.859 101.945 126.217C99.3079 127.544 97.7621 130.507 96.2097 133.305C94.9017 135.812 93.6499 138.122 91.7449 139.333C90.7123 139.937 90.6067 140.494 90.2286 141.44C89.5418 143.467 87.7543 145.206 88.935 147.47L127.045 128.295C125.928 126 123.446 126.408 121.37 125.772Z" fill="#E8B100"/>
</svg>
