<svg width="70" height="70" viewBox="0 0 70 70" fill="none" 
  xmlns="http://www.w3.org/2000/svg">
  <path d="M61.25 3.28125H25.1562C22.1364 3.28125 19.6875 5.73016 19.6875 8.75V61.25C19.6875 64.5312 17.5 66.7188 14.2188 66.7188H55.7812V8.75C55.7812 5.73016 58.2302 3.28125 61.25 3.28125Z" fill="#FFECC7"/>
  <path d="M61.25 3.28125C58.2302 3.28125 55.7812 5.73016 55.7812 8.75V14.2188H61.25C64.2698 14.2188 66.7188 11.7698 66.7188 8.75C66.7188 5.73016 64.2698 3.28125 61.25 3.28125Z" fill="#D1C2A3"/>
  <path d="M8.75 61.25C8.75 64.2698 11.1989 66.7188 14.2188 66.7188C17.5 66.7188 19.6875 64.5312 19.6875 61.25V55.7812H14.2188C11.1989 55.7812 8.75 58.2302 8.75 61.25Z" fill="#D1C2A3"/>
  <path d="M24.7264 32.527C23.4938 29.12 21.8859 25.8147 19.6153 22.9917C16.9652 19.6974 13.4509 17.348 9.4161 16.1066C5.25656 14.8269 3.84453 19.262 4.70422 22.4569C6.37656 28.6727 9.21594 34.4236 12.3889 39.9809C14.3981 43.4995 18.5839 50.5378 23.6184 48.2847C23.6895 48.253 23.7584 48.2388 23.8284 48.2038C29.0642 45.5995 26.1931 36.5805 24.7264 32.527Z" fill="#4398D1"/>
  <path d="M63.4375 52.5V49.2188C63.4375 48.615 62.9475 48.125 62.3438 48.125H49.2188C48.615 48.125 48.125 48.615 48.125 49.2188V52.5H45.9375C45.3338 52.5 44.8438 52.99 44.8438 53.5938V65.625C44.8438 66.2288 45.3338 66.7188 45.9375 66.7188H65.625C66.2288 66.7188 66.7188 66.2288 66.7188 65.625V53.5938C66.7188 52.99 66.2288 52.5 65.625 52.5H63.4375Z" fill="#707070"/>
  <path d="M48.125 51.4062H63.4375V52.5H48.125V51.4062Z" fill="#5E5E5E"/>
  <path d="M49.2187 62.3438C47.2347 61.1538 45.8325 59.6761 44.8438 58.2761V65.625C44.8438 66.2288 45.3337 66.7188 45.9375 66.7188H65.0191C59.5262 65.7639 52.3731 64.236 49.2187 62.3438Z" fill="#5E5E5E"/>
  <path d="M36.0938 12.0312H25.1562C24.5525 12.0312 24.0625 11.5412 24.0625 10.9375C24.0625 10.3338 24.5525 9.84375 25.1562 9.84375H36.0938C36.6975 9.84375 37.1875 10.3338 37.1875 10.9375C37.1875 11.5412 36.6975 12.0312 36.0938 12.0312Z" fill="#545454"/>
  <path d="M50.3125 17.5H25.1562C24.5525 17.5 24.0625 17.01 24.0625 16.4062C24.0625 15.8025 24.5525 15.3125 25.1562 15.3125H50.3125C50.9163 15.3125 51.4062 15.8025 51.4062 16.4062C51.4062 17.01 50.9163 17.5 50.3125 17.5Z" fill="#545454"/>
  <path d="M50.3125 21.875H25.1562C24.5525 21.875 24.0625 21.385 24.0625 20.7812C24.0625 20.1775 24.5525 19.6875 25.1562 19.6875H50.3125C50.9163 19.6875 51.4062 20.1775 51.4062 20.7812C51.4062 21.385 50.9163 21.875 50.3125 21.875Z" fill="#545454"/>
  <path d="M50.3125 26.25H25.1562C24.5525 26.25 24.0625 25.76 24.0625 25.1562C24.0625 24.5525 24.5525 24.0625 25.1562 24.0625H50.3125C50.9163 24.0625 51.4062 24.5525 51.4062 25.1562C51.4062 25.76 50.9163 26.25 50.3125 26.25Z" fill="#545454"/>
  <path d="M50.3125 30.625H25.1562C24.5525 30.625 24.0625 30.135 24.0625 29.5312C24.0625 28.9275 24.5525 28.4375 25.1562 28.4375H50.3125C50.9163 28.4375 51.4062 28.9275 51.4062 29.5312C51.4062 30.135 50.9163 30.625 50.3125 30.625Z" fill="#545454"/>
  <path d="M25.1169 61.25C24.5328 61.25 24.0548 60.7928 24.0242 60.2098C23.9159 58.1569 23.4992 53.0775 21.8958 45.0581C19.7936 34.5439 8.45906 18.9459 8.45906 18.9459C9.00375 19.5355 21.8192 33.518 24.0406 44.6294C25.6823 52.8369 26.1034 57.9687 26.2117 60.1081C26.2445 60.7305 25.7436 61.25 25.1201 61.25H25.1169Z" fill="#B4C5D1"/>
  <path d="M55.7812 39.375H52.5C52.3305 39.375 52.162 39.3356 52.0111 39.2602L50.0544 38.2812H44.8438V36.0938H50.3125C50.482 36.0938 50.6505 36.1331 50.8014 36.2086L52.7581 37.1875H55.7812V39.375Z" fill="#D1C2A3"/>
  <path d="M51.4062 41.5625H55.7812V43.75H51.4062V41.5625Z" fill="#D1C2A3"/>
  <path d="M47.0312 41.5625H49.2188V43.75H47.0312V41.5625Z" fill="#D1C2A3"/>
</svg>
