<svg width="93" height="78" viewBox="0 0 93 78" fill="none" xmlns="http://www.w3.org/2000/svg">
<path fill-rule="evenodd" clip-rule="evenodd" d="M42.7114 70.3291C47.2892 68.4814 51.4338 65.4038 54.4883 60.9619C59.8684 62.1085 65.0016 61.5612 69.5794 59.7135C81.4584 54.9776 89.0952 41.7503 84.2211 27.4237C78.6551 10.9013 63.753 3.19565 50.7079 7.82987C44.3915 10.1435 39.8951 15.3859 39.1039 21.706C34.1841 17.6408 27.3551 16.8825 21.213 19.46C8.5233 25.0343 2.91872 40.8228 10.075 56.7121C15.2162 68.1719 26.1922 73.2025 36.5036 71.889L38.6804 71.5128C39.962 71.2729 41.3143 70.9105 42.7114 70.3291ZM22.9054 23.4582C15.0246 26.5016 6.58043 37.8747 13.7765 54.685C18.6538 66.3191 31.4581 70.4457 40.9552 66.8657C44.3548 65.6441 47.5664 63.3342 50.1518 59.8462L48.3923 59.0753L49.8236 54.7578C50.7516 55.1303 51.5831 55.5287 52.5111 55.9012C52.9095 55.0697 53.282 54.1417 53.6545 53.2137L57.6444 55.3539L56.8735 57.1134C61.2289 57.9134 65.0289 57.4128 68.4734 55.9722C77.9445 52.2956 84.4171 40.5191 80.1194 28.7298C73.96 11.5381 59.9207 8.98478 52.0658 12.1248C44.6679 15.0388 41.0824 22.5217 44.8727 30.0989C47.3139 35.3459 52.1283 37.4723 56.4422 35.7988C59.1657 34.7584 60.573 31.8967 59.9638 28.8505L64.188 27.6151C65.4303 32.2516 63.0729 37.7491 58.2054 39.6745C54.0847 41.2962 49.1497 40.6515 45.365 37.7316C44.5719 42.4993 41.4329 46.2392 37.3122 47.861C32.4188 49.6898 26.9213 47.3323 24.6424 43.0771L28.5629 41.0949C30.2087 43.7597 33.186 44.8255 35.9095 43.7851C40.2234 42.1116 42.3239 37.2006 40.533 31.6759C38.0432 23.5431 30.3033 20.5442 22.9054 23.4582Z" fill="#E2D691"/>
</svg>
