<svg width="375" height="180" viewBox="0 0 375 180" fill="none" 
    xmlns="http://www.w3.org/2000/svg">
    <path d="M128.23 179.566C127.416 179.566 126.757 178.906 126.756 178.092L126.744 124.71C126.743 123.896 127.403 123.236 128.216 123.236H128.217C129.031 123.236 129.69 123.895 129.69 124.709L129.703 178.091C129.703 178.905 129.044 179.566 128.23 179.566H128.23Z" fill="#012F59"/>
    <path d="M129.704 153.943C131.275 154.654 132.992 155.027 134.718 155.027C136.932 155.027 139.107 154.412 141.006 153.25C144.425 151.158 146.579 147.477 146.77 143.496C145.2 142.784 143.483 142.412 141.756 142.412C139.542 142.412 137.368 143.026 135.468 144.189C132.05 146.281 129.895 149.962 129.704 153.943ZM134.719 157.975H134.718C132.212 157.975 129.721 157.343 127.518 156.146C127.055 155.895 126.761 155.413 126.748 154.886C126.618 149.528 129.37 144.465 133.931 141.673C136.294 140.227 138.999 139.463 141.756 139.463C144.263 139.463 146.753 140.096 148.956 141.292C149.42 141.544 149.713 142.025 149.726 142.552C149.856 147.911 147.104 152.973 142.544 155.765C140.181 157.211 137.475 157.975 134.719 157.975Z" fill="#012F59"/>
    <path d="M109.664 143.496C109.855 147.477 112.009 151.158 115.428 153.25C117.327 154.412 119.501 155.027 121.716 155.027C123.442 155.027 125.159 154.654 126.73 153.943C126.538 149.962 124.384 146.281 120.966 144.189C119.066 143.026 116.892 142.412 114.678 142.412C112.951 142.412 111.234 142.784 109.664 143.496ZM121.716 157.975C118.959 157.975 116.253 157.211 113.89 155.765C109.329 152.973 106.577 147.91 106.707 142.552C106.72 142.025 107.014 141.544 107.478 141.292C109.681 140.096 112.171 139.463 114.678 139.463C117.434 139.463 120.14 140.227 122.503 141.673C127.063 144.465 129.816 149.528 129.686 154.886C129.673 155.413 129.379 155.895 128.916 156.146C126.712 157.343 124.222 157.975 121.716 157.975Z" fill="#012F59"/>
    <path d="M129.704 123.802C131.275 124.513 132.992 124.886 134.718 124.886C136.932 124.886 139.107 124.272 141.006 123.109C144.425 121.016 146.579 117.336 146.77 113.355C145.2 112.644 143.483 112.271 141.756 112.271C139.542 112.271 137.368 112.885 135.468 114.048C132.05 116.14 129.895 119.82 129.704 123.802ZM134.719 127.835H134.718C132.212 127.835 129.722 127.202 127.518 126.005C127.055 125.754 126.761 125.273 126.748 124.745C126.618 119.387 129.37 114.324 133.931 111.532C136.294 110.086 138.999 109.322 141.756 109.322C144.263 109.322 146.753 109.955 148.956 111.152C149.42 111.403 149.713 111.884 149.726 112.412C149.856 117.77 147.104 122.833 142.544 125.624C140.181 127.07 137.475 127.835 134.719 127.835Z" fill="#012F59"/>
    <path d="M109.664 113.355C109.855 117.336 112.009 121.016 115.428 123.109C117.327 124.272 119.501 124.886 121.716 124.886C123.442 124.886 125.159 124.513 126.73 123.802C126.538 119.82 124.384 116.14 120.966 114.048C119.066 112.885 116.892 112.271 114.678 112.271C112.951 112.271 111.234 112.644 109.664 113.355ZM121.716 127.835C118.959 127.835 116.252 127.07 113.89 125.624C109.329 122.833 106.577 117.77 106.707 112.412C106.72 111.884 107.014 111.403 107.478 111.152C109.681 109.955 112.171 109.322 114.678 109.322C117.434 109.322 120.14 110.086 122.503 111.532C127.063 114.324 129.816 119.387 129.686 124.745C129.673 125.273 129.379 125.754 128.916 126.005C126.712 127.202 124.222 127.835 121.716 127.835Z" fill="#012F59"/>
    <path d="M240.813 179.566C240.001 179.566 239.341 178.906 239.341 178.092L239.323 154.851C239.323 154.037 239.982 153.376 240.795 153.376H240.797C241.609 153.376 242.269 154.035 242.27 154.849L242.287 178.09C242.288 178.904 241.628 179.565 240.815 179.566H240.813Z" fill="#012F59"/>
    <path d="M242.287 153.943C243.859 154.654 245.575 155.027 247.302 155.027C249.516 155.027 251.69 154.412 253.59 153.25C257.008 151.158 259.163 147.477 259.354 143.496C257.783 142.784 256.067 142.412 254.34 142.412C252.126 142.412 249.951 143.026 248.052 144.189C244.634 146.281 242.479 149.962 242.287 153.943ZM247.303 157.975H247.302C244.795 157.975 242.305 157.343 240.102 156.146C239.638 155.895 239.344 155.413 239.332 154.886C239.202 149.528 241.954 144.465 246.514 141.673C248.877 140.227 251.583 139.463 254.34 139.463C256.847 139.463 259.336 140.096 261.54 141.292C262.003 141.544 262.297 142.025 262.31 142.552C262.44 147.911 259.688 152.973 255.127 155.765C252.765 157.211 250.059 157.975 247.303 157.975Z" fill="#012F59"/>
    <path d="M222.247 143.496C222.438 147.477 224.593 151.158 228.011 153.25C229.911 154.412 232.085 155.027 234.299 155.027C236.026 155.027 237.742 154.654 239.313 153.943C239.122 149.962 236.967 146.281 233.549 144.189C231.649 143.026 229.475 142.412 227.261 142.412C225.534 142.412 223.817 142.784 222.247 143.496ZM234.299 157.975C231.543 157.975 228.836 157.211 226.474 155.765C221.913 152.973 219.161 147.91 219.291 142.552C219.304 142.025 219.597 141.544 220.061 141.292C222.265 140.096 224.754 139.463 227.261 139.463C230.018 139.463 232.724 140.227 235.086 141.673C239.647 144.465 242.399 149.528 242.269 154.886C242.257 155.413 241.963 155.894 241.5 156.146C239.296 157.343 236.806 157.975 234.299 157.975Z" fill="#012F59"/>
    <path d="M184.509 179.566C183.695 179.566 183.036 178.906 183.036 178.092L183.019 65.7945C183.018 64.9802 183.678 64.3203 184.491 64.3198C185.305 64.3198 185.965 64.9798 185.965 65.794L185.982 178.091C185.982 178.905 185.323 179.566 184.509 179.566Z" fill="#012F59"/>
    <path d="M185.972 144.287C188.152 145.324 190.553 145.869 192.969 145.869H192.97C195.938 145.869 198.854 145.044 201.401 143.486C206.071 140.627 208.982 135.558 209.142 130.104C206.962 129.068 204.56 128.523 202.144 128.523C199.176 128.523 196.26 129.347 193.713 130.906C189.043 133.765 186.132 138.834 185.972 144.287ZM192.97 148.817H192.969C189.775 148.817 186.602 148.011 183.794 146.486C183.331 146.234 183.037 145.754 183.024 145.226C182.858 138.399 186.365 131.948 192.176 128.391C195.186 126.548 198.633 125.575 202.144 125.575C205.339 125.575 208.511 126.381 211.319 127.906C211.783 128.158 212.077 128.638 212.089 129.166C212.255 135.993 208.749 142.444 202.938 146.001C199.928 147.843 196.481 148.817 192.97 148.817Z" fill="#012F59"/>
    <path d="M159.841 130.104C160.002 135.558 162.913 140.627 167.583 143.486C170.13 145.044 173.045 145.869 176.015 145.869C178.43 145.869 180.832 145.324 183.011 144.287C182.852 138.834 179.94 133.765 175.27 130.906C172.723 129.347 169.808 128.523 166.839 128.523C164.423 128.523 162.021 129.068 159.841 130.104ZM176.015 148.817C172.503 148.817 169.055 147.843 166.045 146.001C160.235 142.444 156.728 135.993 156.894 129.166C156.907 128.638 157.2 128.158 157.664 127.906C160.472 126.381 163.644 125.575 166.839 125.575C170.351 125.575 173.798 126.548 176.808 128.391C182.619 131.948 186.125 138.398 185.959 145.226C185.946 145.754 185.653 146.234 185.189 146.486C182.381 148.011 179.209 148.817 176.015 148.817Z" fill="#012F59"/>
    <path d="M185.972 104.987C188.152 106.024 190.553 106.568 192.969 106.569H192.97C195.938 106.569 198.854 105.745 201.401 104.185C206.071 101.327 208.982 96.258 209.142 90.8052C206.962 89.7681 204.56 89.2235 202.144 89.2235C199.175 89.2235 196.26 90.0476 193.713 91.6068C189.043 94.4657 186.132 99.5339 185.972 104.987ZM192.97 109.518H192.969C189.775 109.517 186.602 108.711 183.794 107.186C183.331 106.934 183.037 106.453 183.024 105.926C182.858 99.0991 186.365 92.6481 192.176 89.0912C195.186 87.2488 198.633 86.275 202.144 86.275C205.339 86.275 208.511 87.0813 211.319 88.6067C211.783 88.8581 212.077 89.3389 212.089 89.8661C212.255 96.6937 208.749 103.144 202.938 106.701C199.928 108.543 196.481 109.518 192.97 109.518Z" fill="#012F59"/>
    <path d="M159.841 90.8052C160.002 96.2585 162.913 101.327 167.583 104.185C170.13 105.745 173.045 106.569 176.015 106.569C178.43 106.569 180.832 106.024 183.011 104.987C182.852 99.5339 179.94 94.4657 175.27 91.6068C172.723 90.0476 169.808 89.2235 166.839 89.2235C164.423 89.2235 162.022 89.7681 159.841 90.8052ZM176.015 109.518C172.503 109.518 169.055 108.543 166.045 106.701C160.235 103.144 156.728 96.6937 156.894 89.8666C156.907 89.3389 157.2 88.8581 157.664 88.6067C160.472 87.0813 163.645 86.275 166.839 86.275C170.351 86.275 173.798 87.2488 176.808 89.0912C182.619 92.6481 186.125 99.0991 185.959 105.926C185.946 106.453 185.653 106.934 185.189 107.186C182.381 108.712 179.209 109.518 176.015 109.518Z" fill="#012F59"/>
    <path d="M207.271 46.1226C207.271 58.7032 197.08 68.902 184.509 68.902C171.937 68.902 161.747 58.7032 161.747 46.1226C161.747 33.5415 171.937 23.3427 184.509 23.3427C197.08 23.3427 207.271 33.5415 207.271 46.1226Z" fill="#EAD300"/>
    <path d="M203.037 46.1226C203.037 56.3632 194.741 64.665 184.509 64.665C174.276 64.665 165.981 56.3632 165.981 46.1226C165.981 35.8821 174.276 27.5807 184.509 27.5807C194.741 27.5807 203.037 35.8821 203.037 46.1226Z" fill="#E5A013"/>
    <path d="M178.901 54.3425C177.976 53.5202 177.513 52.212 177.513 50.4169V49.6514H182.611V50.1899C182.611 51.0403 182.772 51.6261 183.093 51.947C183.413 52.2687 183.839 52.4292 184.368 52.4292C184.915 52.4292 185.335 52.2495 185.628 51.8907C185.92 51.5318 186.067 51.097 186.067 50.5867C186.067 49.9446 185.863 49.4342 185.457 49.0562C185.052 48.6786 184.542 48.3526 183.929 48.0782C183.315 47.8047 182.649 47.5303 181.932 47.2564C181.214 46.9824 180.549 46.6236 179.935 46.1789C179.321 45.7357 178.812 45.1545 178.406 44.4364C177.999 43.7183 177.797 42.783 177.797 41.63C177.797 38.097 179.524 36.0463 182.98 35.4792V33.8352H185.585V35.4792C187.473 35.6687 188.842 36.2401 189.692 37.1941C190.542 38.1487 190.966 39.599 190.966 41.5451H186.038V41.1201C186.038 40.5531 185.915 40.0573 185.671 39.6318C185.425 39.2069 185.047 38.9944 184.537 38.9944C183.971 38.9944 183.555 39.1782 183.292 39.5469C183.027 39.9151 182.895 40.3171 182.895 40.7515C182.895 41.4133 183.107 41.9325 183.532 42.3101C183.957 42.6882 184.49 43.0147 185.132 43.2881C185.774 43.5625 186.464 43.8266 187.199 44.0818C187.936 44.3369 188.625 44.6911 189.267 45.1447C189.909 45.5983 190.442 46.1935 190.868 46.9304C191.292 47.6673 191.505 48.65 191.505 49.878C191.505 51.8058 191.004 53.2322 190.003 54.1581C189.003 55.084 187.53 55.6507 185.585 55.8589V58.4097H182.98V55.8589C181.186 55.6694 179.826 55.1642 178.901 54.3425Z" fill="#EAD300"/>
    <path d="M191.083 16.9227C190.249 16.7308 189.721 15.9025 189.908 15.0628C190.094 14.2293 190.928 13.7007 191.766 13.8874C192.599 14.0736 193.127 14.9076 192.941 15.7467C192.775 16.4667 192.139 16.9588 191.424 16.9588C191.311 16.9588 191.197 16.9485 191.083 16.9227ZM175.917 15.788C175.725 14.9545 176.248 14.1205 177.082 13.9287C177.92 13.7321 178.754 14.2551 178.945 15.0943C179.137 15.9283 178.614 16.7622 177.78 16.9536C177.661 16.9799 177.542 16.9954 177.429 16.9954C176.72 16.9954 176.083 16.5085 175.917 15.788ZM203.08 22.6672C202.408 22.1339 202.299 21.1545 202.832 20.4814C203.365 19.8078 204.344 19.6995 205.011 20.2328C205.684 20.7661 205.798 21.7399 205.265 22.4135C204.959 22.8018 204.504 23.004 204.049 23.004C203.707 23.004 203.37 22.8952 203.08 22.6672ZM163.629 22.5223C163.091 21.8539 163.2 20.875 163.867 20.3412C164.535 19.8027 165.513 19.9115 166.052 20.5799C166.59 21.2479 166.481 22.2268 165.814 22.7657C165.524 22.9937 165.182 23.1072 164.84 23.1072C164.385 23.1072 163.935 22.9055 163.629 22.5223ZM211.414 33.0475C211.041 32.2759 211.362 31.3439 212.134 30.971C212.904 30.5925 213.831 30.9138 214.209 31.6854C214.581 32.4575 214.261 33.3899 213.489 33.7628C213.272 33.8717 213.039 33.9233 212.811 33.9233C212.236 33.9233 211.683 33.5968 211.414 33.0475ZM155.462 33.9181C154.686 33.5452 154.359 32.6179 154.732 31.8462C155.105 31.069 156.031 30.743 156.802 31.1159C157.579 31.4888 157.905 32.4162 157.532 33.1878C157.263 33.7469 156.709 34.0738 156.13 34.0738C155.907 34.0738 155.679 34.0217 155.462 33.9181ZM214.416 46.1221V46.0803L214.411 46.0132C214.411 45.1586 215.104 44.4593 215.958 44.4541C216.818 44.4541 217.516 45.1483 217.516 46.0029V46.0653V46.1221H217.521C217.521 46.9819 216.823 47.6761 215.968 47.6761C215.11 47.6761 214.416 46.9819 214.416 46.1221ZM151.497 46.1845C151.497 45.3242 152.191 44.6248 153.05 44.6248C153.904 44.6248 154.603 45.319 154.603 46.1741C154.603 47.0335 153.909 47.7328 153.055 47.7328C152.196 47.7328 151.497 47.0391 151.497 46.1845ZM212.185 61.1803C211.414 60.8074 211.088 59.8749 211.46 59.1033C211.833 58.3312 212.76 58.0048 213.536 58.3777C214.307 58.751 214.628 59.6784 214.261 60.4551C213.992 61.0091 213.438 61.3355 212.858 61.3355C212.63 61.3304 212.402 61.2839 212.185 61.1803ZM154.784 60.5067C154.411 59.7346 154.732 58.8026 155.503 58.4297C156.274 58.0512 157.206 58.3777 157.579 59.1497C157.951 59.9213 157.631 60.8538 156.859 61.2267C156.637 61.3304 156.409 61.3825 156.181 61.3825C155.607 61.3825 155.053 61.0611 154.784 60.5067ZM202.92 71.6952C202.382 71.0272 202.49 70.0483 203.163 69.5145C203.831 68.9756 204.81 69.09 205.348 69.7585C205.881 70.4269 205.772 71.4053 205.099 71.9391V71.9443C204.814 72.1718 204.473 72.2806 204.131 72.2806C203.676 72.2806 203.226 72.0836 202.92 71.6952ZM163.956 71.9752H163.961C163.288 71.4419 163.179 70.4625 163.712 69.7946C164.245 69.121 165.224 69.0122 165.892 69.546C166.564 70.0793 166.673 71.0582 166.14 71.7266C165.835 72.115 165.379 72.3172 164.923 72.3172C164.587 72.3172 164.245 72.2032 163.956 71.9752ZM190.016 77.1607C189.825 76.3262 190.347 75.4922 191.186 75.3004C192.024 75.1095 192.853 75.6325 193.044 76.4716C193.236 77.3051 192.713 78.1396 191.874 78.331C191.761 78.3568 191.647 78.3727 191.533 78.3727C190.824 78.3727 190.182 77.8802 190.016 77.1607ZM177.196 78.3413C176.357 78.1551 175.834 77.3206 176.026 76.4866C176.212 75.6475 177.045 75.1245 177.879 75.3112C178.717 75.5025 179.24 76.3365 179.054 77.1705C178.888 77.8905 178.247 78.3826 177.537 78.3826C177.424 78.3826 177.31 78.3727 177.196 78.3413Z" fill="#012F59"/>
    <path d="M292.885 179.566H108.181C107.367 179.566 106.707 178.906 106.707 178.092C106.707 177.277 107.367 176.617 108.181 176.617H292.885C293.698 176.617 294.358 177.277 294.358 178.092C294.358 178.906 293.698 179.566 292.885 179.566Z" fill="#012F59"/>
    <path d="M102.408 179.566H74.5698C73.7561 179.566 73.0967 178.906 73.0967 178.092C73.0967 177.277 73.7561 176.617 74.5698 176.617H102.408C103.222 176.617 103.881 177.277 103.881 178.092C103.881 178.906 103.222 179.566 102.408 179.566Z" fill="#012F59"/>
    <path d="M300.808 179.566H298.269C297.455 179.566 296.796 178.906 296.796 178.092C296.796 177.277 297.455 176.617 298.269 176.617H300.808C301.621 176.617 302.281 177.277 302.281 178.092C302.281 178.906 301.621 179.566 300.808 179.566Z" fill="#012F59"/>
    <path d="M68.458 179.566H67.7943C66.9806 179.566 66.3212 178.906 66.3212 178.092C66.3212 177.277 66.9806 176.617 67.7943 176.617H68.458C69.2721 176.617 69.9311 177.277 69.9311 178.092C69.9311 178.906 69.2721 179.566 68.458 179.566Z" fill="#012F59"/>
    <path d="M338.612 93.8682L361.775 78.0839L354.341 67.2842L329.394 77.1091L338.612 93.8682Z" fill="#FCD8B9"/>
    <path d="M342.542 91.1903C342.582 90.6396 342.464 90.0904 342.169 89.6063C342.24 86.798 341.275 83.6905 338.444 80.2232C337.381 78.9211 336.308 77.8076 335.226 76.884L335.447 76.7034C335.447 76.7034 339.545 80.0178 345.86 80.0178C348.514 80.0178 351.558 79.4324 354.855 77.771L354.854 77.7588L357.077 81.2857L342.542 91.1903Z" fill="#E2BA93"/>
    <path d="M331.969 103.798L320.328 81.3452C321.215 80.0956 323.585 77.2339 326.822 76.9825C329.662 76.7611 331.573 79.5313 334.684 83.3429C339.944 89.7864 338.296 93.1083 335.107 98.055C333.946 99.8548 332.721 101.758 331.969 103.798ZM267.757 107.544C268.073 107.721 268.439 107.732 268.751 107.603C268.98 107.508 269.18 107.338 269.311 107.105L269.356 107.023C271.884 107.947 274.699 107.344 276.629 105.549L303.403 125.533L303.463 125.727L303.369 125.766C302.786 126.007 302.508 126.676 302.749 127.259C302.989 127.843 303.657 128.12 304.24 127.88L337.27 114.242C337.853 114.001 338.131 113.333 337.89 112.749C337.65 112.166 336.983 111.888 336.4 112.129L336.307 112.167L335.239 110.107C333.756 106.787 335.353 103.998 337.986 99.9143C341.237 94.8733 345.282 88.5997 338.444 80.2232C334.572 75.4801 330.563 73.2398 326.53 73.5654C322.897 73.8581 320.187 76.1888 318.598 78.0088L318.339 77.5083C318.859 77.2386 319.099 76.6152 318.871 76.0626C318.631 75.4791 317.963 75.2015 317.38 75.4421L291.073 86.3036C290.489 86.5447 290.212 87.2127 290.452 87.7966C290.68 88.3483 291.288 88.6208 291.847 88.4463L298.748 110.593L278.717 101.942C279.332 99.2938 278.378 96.4742 276.211 94.7565L276.256 94.6759C276.564 94.1247 276.367 93.4282 275.817 93.12C275.266 92.8114 274.57 93.0088 274.262 93.5595L267.317 105.988C267.009 106.539 267.206 107.236 267.757 107.544Z" fill="#CA0024"/>
    <path d="M335.2 97.91C335.483 97.4701 335.753 97.0427 336.006 96.6243C336.006 96.6243 336.006 96.6243 336.007 96.6243C335.753 97.0423 335.483 97.4701 335.201 97.91H335.2Z" fill="#7EB08E"/>
    <path d="M335.201 97.91C335.483 97.4701 335.753 97.0423 336.007 96.6243C336.448 96.5408 336.889 96.3696 337.3 96.1065L340.929 93.7809C341.128 93.6533 341.31 93.5107 341.475 93.3555C341.298 93.8789 341.094 94.3907 340.869 94.8916C340.814 94.931 340.76 94.9718 340.703 95.0089L337.074 97.3345C336.483 97.7135 335.83 97.8997 335.201 97.91ZM338.683 88.4693C338.957 88.163 339.17 87.8201 339.315 87.4603C339.324 87.7558 339.286 88.0546 339.205 88.3473C339.03 88.3745 338.856 88.4149 338.683 88.4693Z" fill="#8B0019"/>
    <path d="M335.675 83.8044C335.949 83.4981 336.162 83.1557 336.307 82.7964C336.316 83.0915 336.278 83.3903 336.196 83.6825C336.022 83.7092 335.848 83.75 335.675 83.8044ZM332.668 79.1392C332.788 79.0046 332.897 78.8629 332.993 78.7156L333.29 78.4722C333.274 78.6546 333.24 78.8371 333.19 79.0172C333.016 79.044 332.841 79.0848 332.668 79.1392Z" fill="#E8B100"/>
    <path d="M325.146 77.2152L328.774 74.8896C330.307 73.9074 332.25 74.2071 333.115 75.5594C333.817 76.6551 333.594 78.1059 332.668 79.1393C333.998 78.7204 335.418 79.1233 336.123 80.2242C336.824 81.3204 336.601 82.7712 335.675 83.8045C337.006 83.3857 338.425 83.7886 339.13 84.8895H339.13C339.831 85.9857 339.608 87.436 338.683 88.4693C340.012 88.0509 341.432 88.4534 342.137 89.5547C343.002 90.9066 342.461 92.7987 340.929 93.781L337.3 96.1066C335.767 97.0888 333.824 96.7886 332.959 95.4367C332.258 94.3405 332.48 92.8897 333.407 91.8564C332.076 92.2757 330.656 91.8724 329.952 90.7719C329.251 89.6758 329.473 88.2249 330.399 87.1916C329.069 87.6105 327.649 87.2076 326.945 86.1067C326.243 85.0105 326.466 83.5597 327.392 82.5263C326.062 82.9452 324.642 82.5423 323.937 81.4414C323.072 80.0896 323.613 78.1974 325.146 77.2152Z" fill="#F0BE8D"/>
    <path d="M345.86 80.0178C339.544 80.0178 335.447 76.7034 335.447 76.7034L335.226 76.884C335.011 76.7002 334.795 76.5233 334.579 76.3545L335.178 75.8807C335.178 75.8807 339.356 79.3851 345.856 79.3851C348.432 79.3851 351.373 78.8349 354.564 77.2982L354.854 77.7588L354.855 77.771C351.558 79.4324 348.513 80.0178 345.86 80.0178Z" fill="#E3C2A4"/>
    <path d="M333.29 78.4722C333.301 78.3577 333.304 78.2437 333.3 78.1298C333.423 77.8249 333.498 77.5078 333.52 77.1912L334.579 76.3544C334.795 76.5232 335.011 76.7001 335.226 76.8839L333.29 78.4722Z" fill="#8B0019"/>
    <path d="M332.994 78.7157C333.116 78.5281 333.219 78.3315 333.3 78.1298C333.304 78.2438 333.301 78.3578 333.29 78.4722L332.994 78.7157Z" fill="#E0AD2C"/>
    <path d="M328.358 85.8885C327.867 85.8885 327.428 85.5368 327.339 85.032L327.279 84.6934C327.461 84.8468 327.696 84.9364 327.944 84.9364C328.012 84.9364 328.081 84.9298 328.15 84.9157C330.086 84.5255 331.556 82.9415 331.803 80.9808L332.154 78.2715L333.52 77.1913C333.498 77.5079 333.423 77.825 333.3 78.1299C333.219 78.3316 333.116 78.5281 332.993 78.7157L332.466 79.1482L332.163 81.8636C331.952 83.8284 330.51 85.4387 328.582 85.8642C328.507 85.8806 328.432 85.8885 328.358 85.8885Z" fill="#F1CEAD"/>
    <path d="M353.247 63.4562L349.077 66.5815C347.012 68.1299 344.467 68.8996 341.89 68.7547L335.385 68.3888C334.509 68.2237 333.608 68.514 332.994 69.1595L326.664 75.8037C326.098 76.398 325.841 77.2221 325.97 78.0331L326.922 84.062C327.014 84.6441 327.573 85.0324 328.15 84.9156C330.086 84.5254 331.556 82.9414 331.803 80.9807L332.154 78.2714L335.178 75.8806C335.178 75.8806 343.321 82.7125 354.564 77.2981L354.344 67.2832L353.247 63.4562Z" fill="#E7C29E"/>
    <path d="M359.488 81.1552L357.734 82.3284L347.56 66.1852L349.425 64.9253L359.488 81.1552Z" fill="white"/>
    <path d="M374.978 72.6746L360.307 82.4972L348.772 64.0402L374.999 45.3585L374.978 72.6746Z" fill="#007AFF"/>
    <path d="M360.307 82.4972L359.474 81.1641L357.734 82.3283L359.474 81.1641L360.307 82.4972L374.978 72.6746L360.307 82.4972Z" fill="#7EB08E"/>
    <path d="M357.734 82.3284L354.564 77.2982L356.324 76.1232L359.474 81.1642L357.734 82.3284Z" fill="#F4F6F5"/>
    <path d="M360.307 82.4972L359.475 81.1641L356.324 76.1231L374.979 63.6654V72.6746L360.307 82.4972ZM361.843 75.7765C361.641 75.7765 361.435 75.8103 361.234 75.8811C360.274 76.2179 359.769 77.2695 360.106 78.2297C360.372 78.9877 361.083 79.4624 361.843 79.4624C362.045 79.4624 362.251 79.4286 362.453 79.3578C363.412 79.021 363.917 77.9694 363.58 77.0092C363.315 76.2507 362.604 75.7765 361.843 75.7765ZM366.365 72.6746C366.163 72.6746 365.957 72.7084 365.755 72.7792C364.796 73.1165 364.291 74.1676 364.628 75.1278C364.894 75.8863 365.606 76.3605 366.365 76.3605C366.568 76.3605 366.774 76.3267 366.975 76.2559C367.935 75.9191 368.439 74.8675 368.102 73.9073C367.837 73.1493 367.125 72.6746 366.365 72.6746Z" fill="#1170B7"/>
    <path d="M361.843 79.4624C361.083 79.4624 360.372 78.9877 360.106 78.2297C359.769 77.2695 360.274 76.2179 361.234 75.8811C361.435 75.8103 361.641 75.7765 361.843 75.7765C362.604 75.7765 363.315 76.2507 363.58 77.0092C363.917 77.9694 363.412 79.021 362.453 79.3578C362.251 79.4286 362.045 79.4624 361.843 79.4624Z" fill="#012F59"/>
    <path d="M366.365 76.3606C365.606 76.3606 364.894 75.8864 364.628 75.1279C364.291 74.1677 364.796 73.1166 365.755 72.7793C365.957 72.7085 366.163 72.6747 366.365 72.6747C367.125 72.6747 367.837 73.1494 368.102 73.9074C368.439 74.8676 367.935 75.9192 366.975 76.256C366.774 76.3268 366.568 76.3606 366.365 76.3606Z" fill="#012F59"/>
    <path d="M267.127 98.4775C266.878 98.4775 266.634 98.3748 266.461 98.2013C266.288 98.0272 266.189 97.7838 266.189 97.5394C266.189 97.2913 266.288 97.0474 266.461 96.8738C266.808 96.5267 267.436 96.522 267.787 96.8738C267.961 97.0474 268.059 97.2913 268.059 97.5394C268.059 97.7838 267.961 98.0272 267.787 98.2013C267.614 98.3748 267.37 98.4775 267.127 98.4775Z" fill="#012F59"/>
    <path d="M259.59 96.1421C259.552 95.6257 259.941 95.1754 260.457 95.1379C260.973 95.0957 261.423 95.4855 261.46 96.0014C261.497 96.5174 261.113 96.9677 260.593 97.0099H260.523C260.04 97.0099 259.627 96.6346 259.59 96.1421Z" fill="#012F59"/>
    <path d="M253.366 98.8955C253.075 98.464 253.192 97.8776 253.623 97.5915C254.05 97.3007 254.636 97.4179 254.922 97.8495C255.212 98.2763 255.095 98.8626 254.664 99.1488H254.669C254.505 99.2567 254.326 99.3083 254.144 99.3083C253.844 99.3083 253.548 99.1624 253.366 98.8955ZM248.716 103.9C248.299 103.591 248.21 103.004 248.519 102.587C248.829 102.174 249.415 102.085 249.832 102.395C250.249 102.704 250.333 103.291 250.029 103.708C249.841 103.957 249.56 104.088 249.274 104.088C249.077 104.088 248.88 104.027 248.716 103.9ZM245.473 109.932C244.999 109.721 244.788 109.167 244.999 108.694C245.215 108.22 245.768 108.009 246.241 108.225C246.715 108.436 246.921 108.99 246.71 109.463C246.555 109.811 246.213 110.017 245.857 110.017C245.726 110.017 245.595 109.988 245.473 109.932ZM243.256 116.424C242.759 116.279 242.473 115.758 242.618 115.261C242.759 114.764 243.279 114.478 243.776 114.618C244.273 114.764 244.559 115.284 244.418 115.782C244.301 116.194 243.926 116.457 243.518 116.457C243.429 116.457 243.345 116.448 243.256 116.424ZM241.793 123.122C241.287 123.029 240.95 122.541 241.039 122.029H241.044C241.133 121.522 241.625 121.185 242.131 121.279C242.642 121.368 242.979 121.856 242.886 122.367C242.801 122.822 242.407 123.136 241.962 123.136C241.906 123.136 241.85 123.132 241.793 123.122ZM240.903 129.923C240.387 129.867 240.012 129.408 240.069 128.892C240.12 128.376 240.584 128.005 241.1 128.057C241.611 128.113 241.986 128.573 241.934 129.089C241.883 129.572 241.475 129.928 241.001 129.928L240.903 129.923Z" fill="#012F59"/>
    <path d="M240.495 136.791C240.251 136.791 240.012 136.692 239.834 136.519C239.661 136.341 239.562 136.101 239.562 135.853C239.562 135.604 239.661 135.365 239.834 135.191C240.181 134.84 240.814 134.84 241.161 135.191C241.334 135.365 241.437 135.609 241.437 135.853C241.437 136.097 241.334 136.341 241.161 136.514C240.983 136.692 240.744 136.791 240.495 136.791Z" fill="#012F59"/>
    <path d="M270.051 95.1805C269.808 95.1805 269.569 95.0769 269.39 94.9033C269.217 94.7251 269.114 94.4863 269.114 94.2424C269.114 93.9938 269.217 93.7494 269.39 93.5764C269.737 93.2292 270.365 93.2292 270.717 93.5764C270.89 93.7494 270.989 93.9938 270.989 94.2424C270.989 94.4863 270.89 94.7302 270.717 94.9033C270.539 95.0769 270.3 95.1805 270.051 95.1805Z" fill="#012F59"/>
    <path d="M263.78 92.3986C263.279 92.2772 262.969 91.7659 263.096 91.264C263.218 90.7621 263.724 90.4525 264.23 90.5792C264.731 90.7007 265.041 91.2124 264.914 91.7143C264.811 92.1411 264.427 92.4272 264.005 92.4272C263.93 92.4272 263.855 92.4179 263.78 92.3986Z" fill="#012F59"/>
    <path d="M256.44 91.1884C256.379 90.6776 256.75 90.2085 257.265 90.1518C257.776 90.0913 258.245 90.4618 258.301 90.9778C258.362 91.4938 257.992 91.9581 257.476 92.0144L257.368 92.0238C256.899 92.0238 256.497 91.6673 256.44 91.1884ZM250.122 93.2856C249.907 92.8114 250.113 92.2583 250.582 92.0426C251.055 91.8268 251.608 92.0332 251.824 92.5022C252.039 92.976 251.833 93.5337 251.364 93.7453C251.238 93.8058 251.102 93.8344 250.975 93.8344C250.619 93.8344 250.277 93.628 250.122 93.2856ZM244.634 97.0704C244.301 96.6722 244.357 96.0812 244.756 95.7481C245.154 95.4151 245.745 95.4714 246.073 95.8701C246.405 96.2641 246.353 96.8546 245.956 97.1877C245.782 97.3336 245.567 97.4086 245.356 97.4086C245.088 97.4086 244.821 97.2913 244.634 97.0704ZM240.181 102.038C239.769 101.719 239.693 101.133 240.012 100.72C240.326 100.312 240.912 100.232 241.325 100.551C241.737 100.866 241.812 101.452 241.498 101.865C241.311 102.104 241.034 102.23 240.753 102.23C240.551 102.23 240.355 102.17 240.181 102.038ZM236.764 107.77C236.3 107.531 236.122 106.963 236.361 106.504C236.596 106.044 237.163 105.865 237.622 106.1C238.081 106.339 238.264 106.902 238.025 107.367C237.856 107.69 237.528 107.873 237.191 107.873C237.046 107.873 236.9 107.84 236.764 107.77ZM234.285 113.971C233.793 113.802 233.535 113.268 233.704 112.78C233.868 112.287 234.402 112.024 234.894 112.193C235.382 112.362 235.644 112.897 235.475 113.385C235.344 113.774 234.979 114.023 234.59 114.023C234.487 114.023 234.383 114.004 234.285 113.971ZM232.626 120.439C232.12 120.332 231.796 119.834 231.904 119.328C232.012 118.821 232.509 118.498 233.02 118.605C233.526 118.713 233.849 119.21 233.741 119.717C233.643 120.158 233.254 120.458 232.823 120.458C232.757 120.458 232.691 120.454 232.626 120.439ZM231.67 127.053C231.159 126.997 230.784 126.533 230.845 126.016C230.896 125.501 231.36 125.13 231.876 125.186C232.391 125.243 232.761 125.707 232.705 126.223C232.654 126.701 232.246 127.058 231.773 127.058L231.67 127.053Z" fill="#012F59"/>
    <path d="M231.337 133.751C231.088 133.751 230.849 133.653 230.671 133.479C230.498 133.305 230.399 133.062 230.399 132.813C230.399 132.569 230.498 132.325 230.671 132.151C231.022 131.8 231.651 131.8 231.998 132.151C232.175 132.325 232.274 132.569 232.274 132.813C232.274 133.062 232.175 133.301 231.998 133.479C231.824 133.653 231.581 133.751 231.337 133.751Z" fill="#012F59"/>
    <path d="M265.791 103.122C265.547 103.122 265.303 103.023 265.13 102.85C264.952 102.672 264.853 102.432 264.853 102.184C264.853 101.939 264.952 101.696 265.13 101.522C265.481 101.171 266.105 101.175 266.452 101.522C266.63 101.696 266.728 101.939 266.728 102.184C266.728 102.432 266.63 102.672 266.456 102.85C266.278 103.023 266.039 103.122 265.791 103.122Z" fill="#012F59"/>
    <path d="M258.488 102.737C258.245 102.277 258.422 101.71 258.877 101.466C259.337 101.222 259.904 101.4 260.148 101.855C260.387 102.315 260.213 102.883 259.759 103.122V103.126C259.618 103.197 259.468 103.234 259.318 103.234C258.985 103.234 258.657 103.051 258.488 102.737Z" fill="#012F59"/>
    <path d="M254.79 108.197C254.321 107.981 254.116 107.428 254.331 106.954C254.547 106.485 255.1 106.274 255.573 106.49C256.042 106.71 256.248 107.264 256.032 107.737H256.037C255.878 108.08 255.536 108.286 255.179 108.286C255.048 108.286 254.917 108.258 254.79 108.197ZM252.925 114.567C252.419 114.444 252.105 113.943 252.222 113.436V113.441C252.339 112.935 252.845 112.62 253.347 112.737C253.853 112.855 254.167 113.361 254.05 113.863C253.947 114.299 253.562 114.59 253.136 114.59C253.066 114.59 252.995 114.581 252.925 114.567ZM251.833 121.115C251.317 121.045 250.961 120.571 251.031 120.06C251.102 119.544 251.575 119.187 252.086 119.257C252.602 119.328 252.958 119.801 252.888 120.313C252.822 120.782 252.424 121.124 251.96 121.124C251.917 121.124 251.875 121.12 251.833 121.115ZM251.177 127.724C250.661 127.682 250.277 127.226 250.319 126.711C250.361 126.195 250.811 125.81 251.327 125.857C251.842 125.899 252.227 126.349 252.184 126.866C252.147 127.358 251.735 127.729 251.252 127.729L251.177 127.724Z" fill="#012F59"/>
    <path d="M250.839 134.366C250.596 134.366 250.352 134.267 250.178 134.089C250.005 133.916 249.902 133.676 249.902 133.428C249.902 133.179 250.005 132.94 250.178 132.762C250.525 132.415 251.153 132.415 251.505 132.762C251.678 132.94 251.777 133.179 251.777 133.428C251.777 133.672 251.678 133.916 251.505 134.089C251.327 134.267 251.088 134.366 250.839 134.366Z" fill="#012F59"/>
    <path d="M34.9368 54.5178L13.337 36.6499L21.7403 26.5872L45.6689 38.6866L34.9368 54.5178Z" fill="#FCD8B9"/>
    <path d="M31.2725 51.4863L17.7181 40.2744L20.2588 36.9689L20.2572 36.9816C24.0659 39.3682 27.6494 40.1313 30.6774 40.1313C36.0567 40.1313 39.6803 37.7208 39.6803 37.7208L39.8828 37.9211C38.7204 38.7401 37.5484 39.7495 36.3694 40.947C33.2297 44.1366 31.9801 47.141 31.7903 49.9436C31.4525 50.3981 31.284 50.9347 31.2725 51.4863Z" fill="#E2BA93"/>
    <path d="M38.0384 59.0114C35.3216 53.7903 33.9886 50.3296 39.8233 44.4026C43.2749 40.8964 45.4351 38.3156 48.2421 38.7997C51.4414 39.3508 53.5355 42.4204 54.3033 43.7464L40.6311 65.0215C40.071 62.9201 39.0271 60.9111 38.0384 59.0114ZM104.8 73.2066L99.0376 60.1864C98.7822 59.6095 98.1077 59.3482 97.5307 59.6043C96.9538 59.8595 96.6932 60.535 96.9486 61.1124L96.9861 61.1968C94.6694 62.7062 93.4578 65.4244 93.8252 68.1192L73.0783 74.8722L82.0033 53.462C82.5427 53.6876 83.1741 53.4723 83.4516 52.9446C83.745 52.3855 83.5308 51.6946 82.9725 51.4005L57.7857 38.143C57.2275 37.8489 56.5371 38.0637 56.2432 38.6224C55.9653 39.151 56.1467 39.7941 56.6393 40.1112L56.3346 40.5849C54.9215 38.6257 52.4393 36.0533 48.85 35.4243C44.8637 34.7254 40.6646 36.5838 36.3693 40.947C28.7844 48.6523 32.2303 55.2745 34.9992 60.5955C37.2422 64.9061 38.5738 67.8316 36.7898 70.9992L35.5355 72.9514L35.4469 72.9045C34.8885 72.6109 34.1979 72.8257 33.9042 73.3844C33.6105 73.943 33.8253 74.6344 34.3835 74.928L66.0066 91.5745C66.5649 91.8681 67.2557 91.6533 67.5491 91.0946C67.843 90.536 67.6283 89.8446 67.0701 89.5505L66.9797 89.5031L67.0579 89.3155L95.5688 71.9035C97.3245 73.8708 100.072 74.732 102.674 74.0476L102.712 74.1325C102.82 74.3774 103.004 74.565 103.224 74.6808C103.522 74.8375 103.887 74.8619 104.219 74.7146C104.796 74.459 105.056 73.784 104.8 73.2066Z" fill="#1170B7"/>
    <path d="M37.9595 58.8585C37.9593 58.8585 37.9591 58.8585 37.9591 58.8585C37.7183 58.3946 37.4891 57.9434 37.2756 57.5039C37.2758 57.5039 37.276 57.5039 37.2762 57.5039C37.4895 57.9439 37.7187 58.3941 37.9595 58.8585Z" fill="#7EB08E"/>
    <path d="M37.959 58.8585C37.3338 58.79 36.7011 58.5443 36.1469 58.1118L32.7492 55.4588C32.6951 55.4166 32.6457 55.3715 32.595 55.327C32.4178 54.8073 32.2616 54.2786 32.1342 53.7411C32.2838 53.9104 32.452 54.0699 32.6382 54.2153L36.0359 56.8678C36.4209 57.1685 36.8439 57.3801 37.2756 57.5039C37.489 57.9434 37.7183 58.3946 37.959 58.8585ZM35.3675 49.1359C35.2001 49.0655 35.0299 49.0088 34.8586 48.9656C34.8047 48.6668 34.795 48.3652 34.8314 48.072C34.9425 48.4435 35.1225 48.8052 35.3675 49.1359Z" fill="#012F59"/>
    <path d="M38.7945 44.7699C38.6275 44.6995 38.4578 44.6433 38.2872 44.6001C38.233 44.3018 38.2229 44.0011 38.2588 43.7079C38.3701 44.079 38.5499 44.4397 38.7945 44.7699ZM42.2211 40.4039C42.0538 40.3335 41.8833 40.2772 41.7121 40.2341C41.679 40.0502 41.6625 39.8654 41.6634 39.682L41.9357 39.9512C42.0181 40.107 42.1133 40.2585 42.2211 40.4039Z" fill="#E8B100"/>
    <path d="M49.8896 39.1871L46.4918 36.5341C45.0571 35.414 43.0942 35.5322 42.1076 36.7977C41.3075 37.824 41.3952 39.2893 42.2211 40.4038C40.9355 39.8634 39.4842 40.1327 38.6808 41.1637C37.8809 42.19 37.9682 43.6548 38.7945 44.7698C37.5085 44.2294 36.0576 44.4982 35.2538 45.5292C34.4541 46.5555 34.5416 48.0209 35.3675 49.1358C34.0815 48.595 32.6307 48.8642 31.8272 49.8952C30.8404 51.1607 31.2034 53.0947 32.6382 54.2153L36.036 56.8678C37.4708 57.9879 39.4337 57.8702 40.4203 56.6042C41.2204 55.5779 41.1327 54.113 40.3066 52.998C41.5924 53.5384 43.0433 53.2696 43.8473 52.2386C44.647 51.2123 44.5593 49.747 43.7334 48.632C45.0194 49.1729 46.4703 48.9036 47.2738 47.8726C48.0739 46.8468 47.9863 45.3815 47.1604 44.2665C48.446 44.8073 49.8971 44.5376 50.7005 43.5071C51.6871 42.2411 51.3243 40.3072 49.8896 39.1871Z" fill="#E2BA93"/>
    <path d="M30.6773 40.1313C27.6493 40.1313 24.0658 39.3682 20.2571 36.9816L20.2587 36.9689L20.5903 36.5374C24.3042 38.7725 27.7822 39.5019 30.7409 39.5019C36.2999 39.5019 40.0237 36.9267 40.0237 36.9267L40.5764 37.4539C40.3453 37.6022 40.1145 37.7574 39.8827 37.9211L39.6802 37.7209C39.6802 37.7209 36.0566 40.1313 30.6773 40.1313Z" fill="#E3C2A4"/>
    <path d="M41.6634 39.682L39.8827 37.9212C40.1145 37.7575 40.3453 37.6022 40.5764 37.454L41.553 38.3855C41.5458 38.7031 41.5907 39.0253 41.685 39.3405C41.6709 39.4536 41.6637 39.5676 41.6634 39.682Z" fill="#012F59"/>
    <path d="M41.9357 39.9512L41.6635 39.6819C41.6638 39.5675 41.671 39.4535 41.6851 39.3404C41.7473 39.5487 41.831 39.7532 41.9357 39.9512Z" fill="#E0AD2C"/>
    <path d="M45.9822 47.5288C45.8776 47.5288 45.7713 47.5129 45.6661 47.4791C43.7853 46.8768 42.4991 45.1394 42.4708 43.1633L42.4217 40.4319L41.9356 39.9512C41.8309 39.7532 41.7472 39.5487 41.685 39.3404C41.5907 39.0252 41.5458 38.703 41.553 38.3854L42.8133 39.5876L42.9116 42.318C42.9755 44.2932 44.2927 46.0072 46.1839 46.5757C46.2833 46.6052 46.3837 46.6198 46.4821 46.6198C46.6954 46.6198 46.9007 46.5532 47.0713 46.435L46.9808 46.7661C46.854 47.2281 46.4354 47.5288 45.9822 47.5288Z" fill="#F1CEAD"/>
    <path d="M23.1854 22.8774L27.047 26.3771C28.96 28.1103 31.4225 29.1127 34.0013 29.2079L40.512 29.448C41.3999 29.3645 42.2694 29.7374 42.8223 30.4373L48.5083 37.6406C49.0169 38.2846 49.1964 39.1294 48.9934 39.9245L47.4856 45.8389C47.3399 46.4102 46.748 46.7451 46.1839 46.5757C44.2927 46.0072 42.9755 44.2933 42.9117 42.3181L42.8133 39.5877L40.0237 36.9267C40.0237 36.9267 31.2825 42.9724 20.5903 36.5374L21.7385 26.5863L23.1854 22.8774Z" fill="#E7C29E"/>
    <path d="M15.3301 39.9212L16.967 41.2515L28.5948 26.1229L26.8547 24.6955L15.3301 39.9212Z" fill="white"/>
    <path d="M0.000244141 29.8627L14.3894 41.1807L27.5867 23.8747L0.0207496 0.091053L0.000244141 29.8627Z" fill="#CA0024"/>
    <path d="M16.967 41.2515L17.718 40.2744L16.967 41.2515Z" fill="#7EB08E"/>
    <path d="M17.7181 40.2744L20.2588 36.9685V36.969L17.7181 40.2744Z" fill="#E3C2A4"/>
    <path d="M20.2588 36.9689V36.9684L20.5904 36.5373L20.2588 36.9689Z" fill="#D5B99B"/>
    <path d="M16.9671 41.2515L15.3424 39.9311L18.947 35.2039L20.5904 36.5374L20.2588 36.9685L17.7181 40.2744L16.9671 41.2515Z" fill="#F4F6F5"/>
    <path d="M14.3894 41.1807L0.000244141 29.8627L0.0299039 19.8521L18.947 35.2039L15.3424 39.9311L14.3894 41.1807ZM13.3138 34.3385C12.6166 34.3385 11.9496 34.7367 11.6399 35.4126C11.2151 36.3372 11.6203 37.431 12.5443 37.856C12.7933 37.9704 13.0544 38.0244 13.3114 38.0244C14.0086 38.0244 14.6756 37.6261 14.9857 36.9507C15.4099 36.0257 15.0048 34.9318 14.0809 34.5073C13.8321 34.3929 13.5709 34.3385 13.3138 34.3385ZM9.09921 30.8304C8.40183 30.8304 7.73483 31.2286 7.42488 31.9041C7.00048 32.8286 7.40566 33.9229 8.3297 34.3474C8.57849 34.4619 8.83978 34.5163 9.09682 34.5163C9.79419 34.5163 10.461 34.1176 10.7711 33.4421C11.1953 32.5171 10.7902 31.4233 9.86633 30.9988C9.61749 30.8843 9.35605 30.8304 9.09921 30.8304Z" fill="#8B0019"/>
    <path d="M13.3114 38.0243C13.0544 38.0243 12.7933 37.9703 12.5443 37.8559C11.6203 37.4309 11.2151 36.3371 11.6399 35.4126C11.9496 34.7367 12.6166 34.3384 13.3138 34.3384C13.5709 34.3384 13.8321 34.3928 14.0809 34.5073C15.0048 34.9318 15.4099 36.0256 14.9857 36.9506C14.6756 37.6261 14.0086 38.0243 13.3114 38.0243Z" fill="#000400"/>
    <path d="M9.09686 34.5162C8.83983 34.5162 8.57853 34.4618 8.32974 34.3474C7.40571 33.9229 7.00052 32.8286 7.42492 31.904C7.73487 31.2286 8.40188 30.8304 9.09925 30.8304C9.3561 30.8304 9.61754 30.8843 9.86637 30.9988C10.7902 31.4233 11.1954 32.5171 10.7712 33.4421C10.461 34.1175 9.79423 34.5162 9.09686 34.5162Z" fill="#000400"/>
    <path d="M105.777 65.7471C105.529 65.7471 105.29 65.6486 105.112 65.475C104.939 65.2968 104.84 65.0571 104.84 64.8089C104.84 64.565 104.939 64.3211 105.112 64.1476C105.463 63.7958 106.091 63.7958 106.438 64.1476C106.612 64.3211 106.715 64.565 106.715 64.8089C106.715 65.0571 106.612 65.2968 106.438 65.475C106.265 65.6486 106.021 65.7471 105.777 65.7471Z" fill="#012F59"/>
    <path d="M112.325 64.8887C111.814 64.8038 111.472 64.316 111.557 63.8052C111.646 63.2986 112.128 62.9515 112.639 63.0406C113.15 63.1251 113.492 63.6082 113.408 64.119C113.328 64.5792 112.935 64.9023 112.485 64.9023C112.433 64.9023 112.377 64.8981 112.325 64.8887Z" fill="#012F59"/>
    <path d="M118.029 67.5717C117.631 67.2434 117.57 66.6524 117.898 66.2537C118.221 65.8503 118.812 65.7893 119.215 66.1177C119.614 66.4455 119.674 67.037 119.351 67.4357C119.164 67.6656 118.892 67.7828 118.62 67.7828C118.414 67.7828 118.203 67.7125 118.029 67.5717ZM122.229 72.5391C121.962 72.0982 122.102 71.5212 122.543 71.2534C122.988 70.9813 123.565 71.1272 123.832 71.5677C124.099 72.009 123.958 72.586 123.513 72.8533C123.363 72.9472 123.194 72.9894 123.03 72.9894C122.712 72.9894 122.402 72.8299 122.229 72.5391ZM124.994 78.5806C124.825 78.0923 125.088 77.558 125.575 77.3887C126.067 77.2203 126.602 77.483 126.771 77.9708C126.935 78.4633 126.677 78.998 126.185 79.1669C126.086 79.1997 125.983 79.2138 125.88 79.2138C125.491 79.2138 125.13 78.9699 124.994 78.5806ZM126.691 85.0864C126.597 84.5751 126.93 84.0826 127.436 83.9888C127.947 83.8903 128.439 84.2233 128.533 84.7346C128.631 85.2412 128.298 85.7337 127.788 85.8275C127.731 85.8416 127.67 85.8463 127.614 85.8463C127.174 85.8463 126.78 85.532 126.691 85.0864ZM127.605 91.7846C127.563 91.2681 127.942 90.8136 128.458 90.7667C128.973 90.7245 129.428 91.1044 129.475 91.6199C129.522 92.1364 129.137 92.5913 128.622 92.6383L128.542 92.6429C128.059 92.6429 127.652 92.2724 127.605 91.7846ZM127.933 98.5625C127.928 98.0465 128.341 97.6244 128.856 97.615C129.376 97.6103 129.798 98.0231 129.808 98.5437C129.812 99.0597 129.4 99.4865 128.88 99.4912H128.866C128.355 99.4912 127.938 99.0784 127.933 98.5625Z" fill="#012F59"/>
    <path d="M128.734 106.372C128.491 106.372 128.247 106.269 128.073 106.096C127.9 105.922 127.797 105.678 127.797 105.434C127.797 105.186 127.9 104.942 128.073 104.768C128.425 104.421 129.048 104.421 129.4 104.768C129.573 104.946 129.672 105.186 129.672 105.434C129.672 105.678 129.573 105.922 129.4 106.096C129.222 106.269 128.983 106.372 128.734 106.372Z" fill="#012F59"/>
    <path d="M103.167 62.1917C102.918 62.1917 102.675 62.0931 102.501 61.9196C102.328 61.746 102.229 61.5021 102.229 61.2535C102.229 61.0049 102.328 60.7657 102.501 60.5922C102.848 60.2451 103.476 60.2404 103.828 60.5922C104.001 60.7657 104.104 61.0096 104.104 61.2535C104.104 61.5021 104.001 61.746 103.828 61.9196C103.654 62.0931 103.411 62.1917 103.167 62.1917Z" fill="#012F59"/>
    <path d="M108.51 59.2131C108.43 58.7018 108.787 58.2233 109.297 58.1483C109.808 58.0686 110.286 58.4204 110.361 58.9316C110.441 59.4476 110.09 59.926 109.579 60.0011C109.532 60.0105 109.485 60.0151 109.438 60.0151C108.979 60.0151 108.58 59.6774 108.51 59.2131Z" fill="#012F59"/>
    <path d="M115.887 60.1888C115.376 60.0856 115.053 59.5884 115.156 59.0818C115.264 58.5753 115.761 58.2469 116.267 58.3548C116.773 58.458 117.097 58.9552 116.993 59.4618C116.9 59.9074 116.511 60.2123 116.075 60.2123C116.014 60.2123 115.948 60.2029 115.887 60.1888ZM121.812 62.4638H121.816C121.366 62.2105 121.207 61.6382 121.465 61.1879C121.723 60.7376 122.294 60.5781 122.744 60.8361C123.194 61.0941 123.349 61.6664 123.091 62.1166C122.922 62.4215 122.604 62.5904 122.28 62.5904C122.121 62.5904 121.962 62.5482 121.812 62.4638ZM126.883 66.3804C126.517 66.0141 126.517 65.4188 126.883 65.053C127.253 64.6866 127.844 64.6866 128.209 65.053C128.575 65.4235 128.575 66.0141 128.209 66.3804C128.027 66.5629 127.787 66.6571 127.548 66.6571C127.309 66.6571 127.066 66.5629 126.883 66.3804ZM130.895 71.4416C130.618 71.0002 130.745 70.4237 131.186 70.1469C131.621 69.8702 132.203 69.9969 132.479 70.4378C132.756 70.874 132.624 71.4505 132.189 71.7324C132.029 71.8309 131.856 71.8773 131.687 71.8773C131.378 71.8773 131.073 71.7225 130.895 71.4416ZM133.843 77.234C133.646 76.7513 133.881 76.2025 134.359 76.0102C134.837 75.8179 135.385 76.0477 135.582 76.5262C135.774 77.0093 135.54 77.5534 135.062 77.7504C134.949 77.7973 134.827 77.8203 134.71 77.8203C134.34 77.8203 133.988 77.5956 133.843 77.234ZM135.821 83.4589C135.699 82.9523 136.008 82.4457 136.515 82.3237C137.016 82.2018 137.522 82.5109 137.644 83.0175C137.766 83.5198 137.457 84.0264 136.955 84.1484C136.88 84.1671 136.805 84.1765 136.735 84.1765C136.308 84.1765 135.924 83.8857 135.821 83.4589ZM136.965 89.9173C136.904 89.4018 137.269 88.9375 137.785 88.8765C138.3 88.8155 138.764 89.1861 138.825 89.6973C138.886 90.2128 138.516 90.6777 138.005 90.7382L137.893 90.748C137.424 90.748 137.021 90.3962 136.965 89.9173ZM137.391 96.4842C137.382 95.964 137.794 95.5418 138.31 95.5325C138.83 95.5231 139.257 95.9358 139.266 96.4565H139.261C139.271 96.972 138.858 97.3993 138.343 97.4087H138.328C137.818 97.4087 137.396 96.9959 137.391 96.4842Z" fill="#012F59"/>
    <path d="M138.141 104.111C137.897 104.111 137.654 104.008 137.48 103.834C137.307 103.661 137.204 103.417 137.204 103.168C137.204 102.925 137.307 102.68 137.48 102.507C137.832 102.16 138.455 102.16 138.807 102.507C138.98 102.68 139.078 102.925 139.078 103.168C139.078 103.417 138.98 103.661 138.807 103.834C138.628 104.008 138.389 104.111 138.141 104.111Z" fill="#012F59"/>
    <path d="M106.673 70.4987C106.429 70.4987 106.185 70.4002 106.007 70.2266C105.834 70.0484 105.735 69.8087 105.735 69.5605C105.735 69.3119 105.834 69.0727 106.007 68.8992C106.363 68.5474 106.987 68.5521 107.334 68.8992C107.512 69.0727 107.61 69.3166 107.61 69.5605C107.61 69.8087 107.512 70.0484 107.334 70.2266C107.16 70.4002 106.916 70.4987 106.673 70.4987Z" fill="#012F59"/>
    <path d="M112.658 71.3707C112.236 71.0709 112.138 70.4846 112.438 70.062C112.738 69.6403 113.324 69.5418 113.745 69.842C114.167 70.1422 114.266 70.7285 113.966 71.1507C113.783 71.4082 113.492 71.5447 113.202 71.5447C113.009 71.5447 112.822 71.4879 112.658 71.3707Z" fill="#012F59"/>
    <path d="M116.047 76.4886C115.869 76.0007 116.122 75.4613 116.609 75.2831C117.092 75.1095 117.631 75.3577 117.809 75.8455C117.982 76.3333 117.734 76.8732 117.247 77.0467C117.143 77.089 117.036 77.103 116.928 77.103C116.543 77.103 116.183 76.8685 116.047 76.4886ZM117.561 82.9053C117.486 82.3893 117.837 81.9156 118.353 81.8405C118.864 81.7655 119.337 82.1173 119.412 82.6281C119.487 83.1445 119.135 83.6183 118.624 83.6933C118.578 83.7022 118.531 83.7022 118.484 83.7022C118.029 83.7022 117.626 83.3692 117.561 82.9053ZM118.179 89.5753C118.156 89.0589 118.554 88.6184 119.07 88.5898C119.585 88.5668 120.026 88.9655 120.054 89.4862V89.4815C120.077 90.0022 119.679 90.4431 119.163 90.4661H119.117C118.62 90.4661 118.207 90.0772 118.179 89.5753ZM119.229 97.2632C118.714 97.2538 118.296 96.8317 118.301 96.3157C118.306 95.795 118.728 95.3823 119.248 95.3823C119.763 95.3869 120.181 95.8138 120.176 96.3293C120.171 96.8457 119.754 97.2632 119.238 97.2632H119.229Z" fill="#012F59"/>
    <path d="M119.037 104.06C118.793 104.06 118.55 103.961 118.376 103.788C118.198 103.61 118.1 103.37 118.1 103.122C118.1 102.873 118.198 102.634 118.376 102.456C118.723 102.109 119.351 102.109 119.698 102.456C119.876 102.634 119.974 102.873 119.974 103.122C119.974 103.37 119.876 103.61 119.698 103.783C119.524 103.961 119.281 104.06 119.037 104.06Z" fill="#012F59"/>
</svg>
