<svg width="25" height="25" viewBox="0 0 25 25" fill="none" 
    xmlns="http://www.w3.org/2000/svg">
    <path d="M20.3125 0H4.6875C2.09961 0 0 2.09961 0 4.6875V20.3125C0 22.9004 2.09961 25 4.6875 25H13.3464V15.3158H10.0911V11.5397H13.3464V8.75651C13.3464 5.53385 15.332 3.77604 18.2129 3.77604C19.5801 3.77604 20.7682 3.8737 21.11 3.92253V7.29167L19.1243 7.30794C17.5456 7.30794 17.2526 8.04036 17.2526 9.13086V11.5397H20.9798L20.4915 15.3158H17.2526V25H20.3125C22.9004 25 25 22.9004 25 20.3125V4.6875C25 2.09961 22.9004 0 20.3125 0Z" fill="#012F59"/>
</svg>
