<svg width="25" height="25" viewBox="0 0 25 25" fill="none" xmlns="http://www.w3.org/2000/svg">
<path d="M16.6663 12.5C16.6663 14.7947 14.7947 16.6663 12.5 16.6663C10.2053 16.6663 8.33367 14.7947 8.33367 12.5C8.33367 10.2053 10.2053 8.33367 12.5 8.33367C14.7947 8.33367 16.6663 10.2053 16.6663 12.5ZM18.9122 12.5C18.9122 8.95211 16.0479 6.08776 12.5 6.08776C8.95211 6.08776 6.08776 8.95211 6.08776 12.5C6.08776 16.0479 8.95211 18.9122 12.5 18.9122C16.0479 18.9122 18.9122 16.0479 18.9122 12.5ZM20.6699 5.82737C20.6699 4.99736 20.0026 4.33009 19.1726 4.33009C18.3426 4.33009 17.6754 4.99736 17.6754 5.82737C17.6754 6.65738 18.3426 7.32464 19.1726 7.32464C20.0026 7.32464 20.6699 6.65738 20.6699 5.82737ZM12.5 2.24693C14.3228 2.24693 18.2287 2.10046 19.8724 2.75144C20.4421 2.97929 20.8652 3.25596 21.3046 3.69538C21.744 4.1348 22.0207 4.55794 22.2486 5.12755C22.8995 6.7713 22.7531 10.6772 22.7531 12.5C22.7531 14.3228 22.8995 18.2287 22.2486 19.8724C22.0207 20.4421 21.744 20.8652 21.3046 21.3046C20.8652 21.744 20.4421 22.0207 19.8724 22.2486C18.2287 22.8995 14.3228 22.7531 12.5 22.7531C10.6772 22.7531 6.7713 22.8995 5.12755 22.2486C4.55794 22.0207 4.1348 21.744 3.69538 21.3046C3.25596 20.8652 2.97929 20.4421 2.75144 19.8724C2.10046 18.2287 2.24693 14.3228 2.24693 12.5C2.24693 10.6772 2.10046 6.7713 2.75144 5.12755C2.97929 4.55794 3.25596 4.1348 3.69538 3.69538C4.1348 3.25596 4.55794 2.97929 5.12755 2.75144C6.7713 2.10046 10.6772 2.24693 12.5 2.24693ZM24.999 12.5C24.999 10.7749 25.0153 9.06604 24.9176 7.34091C24.82 5.33912 24.3643 3.56518 22.8995 2.10046C21.4348 0.635731 19.6609 0.180039 17.6591 0.0823917C15.934 -0.0152571 14.2251 0.00101708 12.5 0.00101708C10.7749 0.00101708 9.06603 -0.0152571 7.34091 0.0823917C5.33912 0.180039 3.56518 0.635731 2.10046 2.10046C0.635731 3.56518 0.180039 5.33912 0.0823908 7.34091C-0.0152575 9.06604 0.00101716 10.7749 0.00101716 12.5C0.00101716 14.2251 -0.0152575 15.934 0.0823908 17.6591C0.180039 19.6609 0.635731 21.4348 2.10046 22.8995C3.56518 24.3643 5.33912 24.82 7.34091 24.9176C9.06603 25.0153 10.7749 24.999 12.5 24.999C14.2251 24.999 15.934 25.0153 17.6591 24.9176C19.6609 24.82 21.4348 24.3643 22.8995 22.8995C24.3643 21.4348 24.82 19.6609 24.9176 17.6591C25.0153 15.934 24.999 14.2251 24.999 12.5Z" fill="#012F59"/>
</svg>
