<svg width="232" height="225" viewBox="0 0 232 225" fill="none" xmlns="http://www.w3.org/2000/svg">
<path d="M122.447 13.9689C122.475 14.2114 122.447 14.4683 122.461 14.7251C122.475 14.9819 122.475 15.2816 122.675 15.4813C123.032 15.8523 123.117 16.2946 123.089 16.794C123.074 16.9653 123.317 16.9938 123.36 16.8368C123.36 16.8226 123.374 16.794 123.374 16.7798C123.545 16.2946 123.802 16.1948 124.287 16.3232C124.729 16.4373 125.143 16.5372 125.356 16.9938C125.599 17.4789 125.67 18.0069 125.742 18.5348V18.5491C125.742 18.8772 125.756 19.1911 125.742 19.5193C125.713 19.9759 125.841 20.3326 126.155 20.6893C126.54 21.1174 126.398 21.6881 126.312 22.1733C126.112 23.3433 125.699 24.4419 125.299 25.5549C125.2 25.826 125.143 26.0971 125.057 26.3539C125 26.5251 124.986 26.7106 125.128 26.8533C125.471 27.2528 125.442 27.6952 125.314 28.1518C125.1 28.9223 124.786 29.6499 124.387 30.3348C124.372 30.3634 124.344 30.3776 124.315 30.3919C123.845 30.5917 123.688 30.9912 123.588 31.4335C123.559 31.5334 123.659 31.619 123.759 31.6047C124.258 31.4906 124.444 31.7046 124.401 32.3467C124.372 32.6606 124.372 32.8746 124.757 32.946C124.986 32.9888 125.043 33.2313 125.014 33.4596C124.986 33.6451 124.943 33.8163 124.943 34.0161C124.943 34.0304 124.943 34.0446 124.943 34.0446C124.715 35.072 124.344 36.0422 123.916 36.984C123.816 37.198 123.731 37.3692 123.944 37.569C124.101 37.7116 124.044 37.9257 123.973 38.1112C123.545 39.324 122.932 40.4512 122.176 41.4928C122.105 41.5927 122.019 41.6783 122.005 41.7924C121.976 42.0921 121.834 42.3346 121.634 42.5629C121.62 42.5772 121.62 42.5772 121.605 42.5915C121.078 42.9054 121.063 43.5047 120.864 43.9898C120.778 44.2038 121.106 44.3608 121.078 44.5891C121.078 44.6319 121.078 44.6747 121.063 44.7175C120.778 45.5736 120.265 46.3156 119.723 47.029C119.609 47.1859 119.48 47.3572 119.252 47.3001C119.038 47.2573 119.038 47.0432 118.981 46.8863C118.753 46.2299 118.296 45.7163 117.783 45.274C117.769 45.2597 117.754 45.2597 117.74 45.2454C117.284 45.0457 116.827 44.9315 116.414 45.3453C116.271 45.488 116.086 45.4309 115.914 45.3596C115.33 45.1455 115.016 45.2311 114.659 45.7163C114.46 45.9874 114.174 46.0302 113.689 45.8875C113.661 45.8732 113.647 45.859 113.618 45.8447C113.09 45.2454 113.048 44.4606 112.848 43.733C112.663 43.0481 112.705 42.3204 112.577 41.6355C112.52 41.3358 112.392 41.079 112.22 40.8365C111.85 40.3085 111.807 39.6664 111.821 39.0529C111.821 38.6962 111.792 38.3537 111.721 38.0113C111.664 37.7687 111.607 37.5262 111.593 37.2693C111.579 36.7414 111.65 36.1992 111.379 35.7141C111.179 35.3288 111.008 34.6725 110.994 34.2444C110.951 33.2599 110.751 32.2896 111.108 31.3051C111.293 30.7914 111.222 30.1636 111.236 29.5929C111.25 28.751 111.35 27.952 111.607 27.153C111.75 26.6964 111.835 26.5965 112.22 26.6536C112.32 26.6678 112.392 26.5822 112.377 26.4823C112.263 25.9972 112.249 25.5264 111.949 25.084C111.564 24.5418 111.693 23.8855 111.707 23.2719C111.735 22.4158 111.864 21.5597 111.992 20.7179C112.163 19.6192 112.548 18.5633 113.176 17.6216C113.447 17.2221 113.647 16.8083 113.804 16.3517C114.132 15.41 114.674 14.5967 115.401 13.9261C115.672 13.6692 115.986 13.5123 116.371 13.712C116.542 13.7976 116.656 13.7263 116.77 13.6122C117.141 13.2697 117.583 13.07 118.054 12.9273C118.41 12.8131 118.582 12.6562 118.81 12.2852C119.323 11.4148 122.447 12.6134 122.447 13.9689Z" fill="#8B0019"/>
<path d="M80.7849 102.519L86.3332 123.851L100.553 140.445L116.542 143.926L128.066 141.515L142.244 132.255L149.432 117.658L151.529 105.202L103.677 103.147L80.7849 102.519Z" fill="#E2BA93"/>
<path d="M104.39 124.493C105.564 124.493 106.515 123.541 106.515 122.367C106.515 121.192 105.564 120.241 104.39 120.241C103.216 120.241 102.265 121.192 102.265 122.367C102.265 123.541 103.216 124.493 104.39 124.493Z" fill="#000400"/>
<path d="M127.91 124.493C129.083 124.493 130.035 123.541 130.035 122.367C130.035 121.192 129.083 120.241 127.91 120.241C126.736 120.241 125.784 121.192 125.784 122.367C125.784 123.541 126.736 124.493 127.91 124.493Z" fill="#000400"/>
<path d="M116.542 46.2014C92.8799 46.2014 75.7644 53.1644 75.7644 53.1644C75.7644 53.1644 77.1622 80.4458 80.4141 108.826C83.6232 136.806 104.49 146.295 116.528 146.295C128.566 146.295 149.632 136.849 152.556 108.826C155.508 80.4458 157.305 53.1644 157.305 53.1644C157.305 53.1644 140.19 46.2014 116.542 46.2014ZM134.385 136.236C127.995 140.759 120.978 142.371 116.542 142.371C112.106 142.371 105.089 140.759 98.6991 136.236C94.2063 133.054 87.2318 126.162 83.7659 110.424C91.9528 118.015 141.331 117.33 149.446 110.424C147.421 124.236 138.878 133.054 134.385 136.236Z" fill="#012F59"/>
<path d="M116.542 52.5366C118.85 52.5366 120.721 50.6649 120.721 48.3559C120.721 46.047 118.85 44.1753 116.542 44.1753C114.234 44.1753 112.363 46.047 112.363 48.3559C112.363 50.6649 114.234 52.5366 116.542 52.5366Z" fill="#EAD300"/>
<path d="M140.461 105.972C132.046 106.329 134.085 102.862 130.177 102.505C126.284 102.148 122.033 96.241 116.528 96.241C111.022 96.241 106.786 102.162 102.878 102.505C98.9845 102.862 101.024 106.315 92.5947 105.972C84.1796 105.615 83.7374 110.424 83.7374 110.424H149.29C149.318 110.424 148.876 105.615 140.461 105.972Z" fill="#EAD300"/>
<path d="M123.887 132.654C122.433 131.242 120.621 128.787 116.542 128.787C111.607 128.787 110.637 131.242 109.197 132.654C107.742 134.067 105.745 134.238 104.005 133.781C104.005 133.781 105.203 137.648 109.453 136.321C113.704 134.994 113.818 133.739 116.556 133.739C119.295 133.739 119.423 134.98 123.659 136.321C127.895 137.648 129.108 133.781 129.108 133.781C127.339 134.238 125.342 134.067 123.887 132.654Z" fill="#000400"/>
<path d="M120.621 54.2774H112.363V94.4147H120.621V54.2774Z" fill="black"/>
<path d="M123.402 91.8178C133.073 90.0771 139.505 80.8168 137.751 71.1285C136.011 61.4544 126.754 55.0193 117.07 56.7744C115.387 57.074 113.804 57.6019 112.349 58.3296V61.8968C113.903 60.898 115.686 60.1845 117.612 59.8421C125.585 58.401 133.23 63.7231 134.67 71.685C136.111 79.661 130.791 87.309 122.832 88.7501C119.052 89.435 115.358 88.5931 112.349 86.6812V90.2625C115.658 91.9034 119.494 92.5312 123.402 91.8178Z" fill="#EAD300"/>
<path d="M113.518 84.3982C113.476 84.3411 113.433 84.3126 113.376 84.284C113.019 84.0557 112.691 83.7846 112.363 83.5135V84.1984C112.734 84.1413 113.119 84.1842 113.518 84.3982Z" fill="#E8B100"/>
<path d="M122.846 88.7643C130.819 87.3232 136.125 79.6753 134.684 71.6992C133.244 63.7231 125.599 58.4153 117.626 59.8564C115.701 60.1988 113.918 60.9265 112.363 61.911V81.3447C112.406 81.4446 112.434 81.5588 112.463 81.6729C112.563 82.1152 112.606 82.529 112.392 82.9C112.377 82.9143 112.377 82.9285 112.363 82.9571V83.2852C112.877 83.7276 113.418 84.1128 113.989 84.4553C115.002 85.0545 116.071 85.4398 117.17 85.611C117.555 85.6681 117.954 85.7252 118.339 85.7109C118.268 85.6966 118.182 85.6824 118.111 85.6538C117.655 85.4969 117.298 85.1544 116.998 84.7264C116.642 84.227 116.399 83.6562 116.071 83.1283C116.057 83.0998 116.029 83.0712 116.057 83.0427C116.086 83.0141 116.114 83.0427 116.143 83.0569C116.542 83.271 116.941 83.485 117.341 83.699C117.626 83.856 117.897 84.0557 118.125 84.3126C118.382 84.5837 118.582 84.8976 118.653 85.2828C118.71 85.6253 118.681 85.6538 118.396 85.6824C118.382 85.6824 118.353 85.6823 118.339 85.6966C118.41 85.7252 118.468 85.7109 118.525 85.7109C119.666 85.7109 120.735 85.4969 121.748 85.0403C121.791 85.0117 121.848 84.9975 121.905 84.9832C121.99 84.9547 122.005 85.0403 122.033 85.0973C122.062 85.1544 122.062 85.2115 122.005 85.2258C121.862 85.2828 121.734 85.3399 121.605 85.397C121.292 85.5254 120.964 85.611 120.65 85.7109C120.849 85.7109 121.035 85.6966 121.235 85.7965C121.349 85.8536 121.391 85.9249 121.377 86.0533C121.363 86.2388 121.32 86.3958 121.235 86.5385C120.964 86.9951 120.55 87.2234 120.079 87.3518C119.651 87.4659 119.223 87.5373 118.796 87.6229C118.753 87.6371 118.71 87.6657 118.667 87.6086C118.681 87.5801 118.696 87.5515 118.71 87.5373C118.967 87.2376 119.181 86.8952 119.423 86.567C119.708 86.196 120.051 85.8964 120.479 85.7394C119.994 85.825 119.509 85.9107 118.995 85.9249C118.767 85.9249 118.553 85.9392 118.296 85.9392C118.453 86.0105 118.582 86.0676 118.696 86.1675C118.781 86.2388 118.81 86.3102 118.781 86.41C118.753 86.5385 118.696 86.6526 118.61 86.7382C118.311 87.1235 117.911 87.2662 117.455 87.2947C116.899 87.3375 116.328 87.2091 115.758 87.2091C115.743 87.2091 115.729 87.1948 115.686 87.1663C116.371 86.724 116.899 86.0248 117.754 85.8964C117.198 85.825 116.642 85.7109 116.086 85.5397C116.086 85.5825 116.114 85.5967 116.128 85.611C116.271 85.7537 116.285 85.7965 116.2 85.9677C116.143 86.0819 116.071 86.196 115.986 86.2816C115.615 86.6383 115.144 86.7382 114.631 86.6811C114.132 86.6383 113.632 86.5527 113.133 86.4814C113.119 86.4814 113.105 86.4671 113.105 86.4529C113.119 86.41 113.147 86.3815 113.176 86.3672C113.447 86.2103 113.718 86.0248 113.975 85.8393C114.317 85.5967 114.688 85.397 115.13 85.3399C115.216 85.3256 115.301 85.3256 115.387 85.3256C115.044 85.1687 114.716 84.9975 114.374 84.8405C114.146 84.7264 113.932 84.5551 113.689 84.4553C113.747 84.5266 113.804 84.5979 113.861 84.655C113.946 84.7549 113.946 84.8405 113.875 84.9261C113.761 85.0688 113.647 85.1687 113.49 85.24C113.133 85.3827 112.762 85.3684 112.363 85.2686V86.6383C115.358 88.6074 119.067 89.435 122.846 88.7643ZM133.786 72.2842C133.814 72.2985 133.814 72.3413 133.8 72.3698C133.7 72.9691 133.7 73.5827 133.543 74.1819C133.444 74.5529 133.287 74.8668 133.03 75.1237C132.93 75.2378 132.802 75.2949 132.673 75.3377C132.559 75.3805 132.488 75.3377 132.445 75.2235C132.388 75.0523 132.36 74.8811 132.374 74.6956C132.402 74.1677 132.616 73.7254 132.902 73.3401C133.158 72.9977 133.444 72.6695 133.715 72.327C133.729 72.3128 133.743 72.27 133.786 72.2842ZM130.448 66.0774C130.477 65.8491 130.477 65.6208 130.491 65.3926C130.491 65.3497 130.477 65.2927 130.52 65.2499C130.548 65.2499 130.562 65.2784 130.577 65.2927C130.762 65.6494 130.962 65.9918 131.133 66.3628C131.318 66.7481 131.404 67.1618 131.333 67.6042C131.318 67.6898 131.29 67.7754 131.261 67.861C131.147 68.1321 131.062 68.1606 130.862 67.9609C130.591 67.6898 130.477 67.3045 130.434 66.8907C130.406 66.6196 130.42 66.3485 130.448 66.0774ZM129.093 64.2939C129.093 64.1369 129.108 63.9657 129.122 63.7517C129.421 64.3081 129.835 64.7362 129.978 65.3497C130.049 65.6351 130.049 65.9205 129.935 66.2059C129.878 66.3485 129.792 66.3771 129.678 66.3057C129.379 66.1202 129.236 65.7921 129.165 65.4211C129.065 65.0644 129.079 64.6791 129.093 64.2939ZM126.982 63.8944C127.325 64.0656 127.71 64.1655 128.052 64.3652C128.352 64.5507 128.608 64.7933 128.723 65.2071C128.808 65.521 128.737 65.6208 128.466 65.6208C128.138 65.6066 127.895 65.4211 127.667 65.1643C127.482 64.9502 127.353 64.6934 127.211 64.4366C127.111 64.2653 127.011 64.0941 126.911 63.8944C126.954 63.8944 126.968 63.8801 126.982 63.8944ZM130.22 71.0429C130.163 70.943 130.106 70.8289 130.049 70.729C130.035 70.7004 130.02 70.6862 130.035 70.6576C130.049 70.6291 130.078 70.6291 130.092 70.6434C130.577 70.9002 131.104 71.0143 131.547 71.3853C131.789 71.5993 131.974 71.8419 132.06 72.1844V72.1986C132.16 72.6409 132.06 72.6695 131.689 72.6695C131.404 72.6552 131.119 72.4412 130.876 72.1558C130.605 71.8419 130.434 71.4281 130.22 71.0429ZM130.363 76.3222C130.634 77.0499 131.076 77.692 131.133 78.5196C131.162 78.8192 131.133 79.1046 131.019 79.3757C130.99 79.4328 130.962 79.5041 130.933 79.5612C130.819 79.7609 130.762 79.7752 130.591 79.6325C130.263 79.3614 130.149 78.9476 130.092 78.5053C130.078 78.3341 130.063 78.1629 130.078 78.0344C130.106 77.535 130.206 77.0785 130.263 76.6076C130.277 76.522 130.277 76.4364 130.291 76.3508C130.291 76.3222 130.306 76.2937 130.32 76.2937C130.334 76.2794 130.363 76.308 130.363 76.3222ZM130.049 79.7038C130.092 79.9179 130.092 80.1462 130.092 80.3174C130.063 80.7027 129.992 81.0023 129.835 81.2877C129.807 81.3305 129.792 81.359 129.764 81.4018C129.593 81.6158 129.478 81.6158 129.322 81.3733C129.008 80.9024 129.008 80.3602 129.079 79.7895C129.136 79.3614 129.293 78.9619 129.421 78.5481C129.464 78.3769 129.521 78.2199 129.564 78.0487C129.578 78.0202 129.578 77.9774 129.607 77.9774C129.635 77.9774 129.635 78.0059 129.65 78.0344C129.764 78.6052 129.963 79.1331 130.049 79.7038ZM128.979 67.8467C128.822 67.6898 128.665 67.5471 128.509 67.4044C128.48 67.3759 128.437 67.3616 128.452 67.3188C128.466 67.276 128.509 67.2903 128.537 67.2903C128.694 67.2903 128.865 67.3045 129.022 67.3045C129.393 67.3045 129.764 67.3188 130.106 67.5186C130.32 67.647 130.505 67.8039 130.62 68.075C130.691 68.2463 130.662 68.3319 130.505 68.4175C130.291 68.5316 130.063 68.5174 129.849 68.446C129.521 68.3461 129.25 68.1036 128.979 67.8467ZM128.765 81.2163C128.751 81.8156 128.637 82.3721 128.295 82.8572C128.181 83.0141 128.052 83.1283 127.895 83.1996C127.795 83.2424 127.738 83.2139 127.681 83.114C127.553 82.9 127.496 82.6146 127.51 82.2579C127.539 81.8013 127.667 81.3733 127.881 80.988C128.138 80.5314 128.409 80.1034 128.665 79.661C128.68 79.6325 128.694 79.5897 128.737 79.604C128.78 79.6182 128.765 79.661 128.765 79.7038C128.765 80.2175 128.78 80.7169 128.765 81.2163ZM129.364 66.8051C129.136 66.9478 128.894 66.9336 128.651 66.8479C128.48 66.7909 128.323 66.7053 128.181 66.5911C127.981 66.4199 127.767 66.2629 127.567 66.0917C127.539 66.0774 127.51 66.0632 127.51 65.9918C127.853 65.9776 128.195 65.9348 128.551 65.9633C128.723 65.9776 128.879 66.0204 129.036 66.0917C129.207 66.1773 129.364 66.3057 129.464 66.5055C129.507 66.6482 129.493 66.7195 129.364 66.8051ZM127.139 81.0736C127.168 81.0451 127.182 81.0023 127.211 81.0166C127.239 81.0308 127.239 81.0736 127.225 81.1022C127.097 81.7014 127.068 82.3293 126.911 82.9143C126.783 83.4137 126.569 83.8703 126.184 84.1699C126.127 84.227 126.055 84.2555 125.984 84.3126C126.355 84.1984 126.697 84.0129 127.054 83.8132C128.024 83.271 128.879 82.5433 129.621 81.6301C130.605 80.4173 131.333 78.9904 131.775 77.3924C131.775 77.3781 131.789 77.3496 131.775 77.321C131.689 77.5208 131.575 77.478 131.447 77.4066C131.133 77.2354 130.948 76.9215 130.819 76.5505C130.662 76.1225 130.648 75.6659 130.634 75.2093C130.62 75.0095 130.605 74.7955 130.591 74.5957C130.591 74.5529 130.577 74.4959 130.605 74.4816C130.648 74.453 130.662 74.5101 130.691 74.5529C130.905 74.8383 131.119 75.1237 131.333 75.409C131.646 75.8371 131.903 76.3793 131.86 77.0499C132.032 76.4078 132.146 75.7657 132.188 75.0666C132.131 75.1522 132.131 75.2521 132.06 75.2664C132.003 75.2806 131.932 75.2664 131.875 75.2521C131.518 75.1522 131.276 74.8668 131.09 74.5101C130.862 74.0963 130.776 73.6255 130.677 73.1546C130.634 72.9406 130.577 72.7266 130.534 72.5125C130.534 72.484 130.52 72.4412 130.548 72.4269C130.577 72.4127 130.591 72.4269 130.605 72.4555C130.948 72.8122 131.333 73.0975 131.661 73.4828C131.946 73.811 132.146 74.1962 132.203 74.6671C132.402 74.0107 132.017 71.1285 131.604 70.1868C131.646 70.3865 131.547 70.4436 131.418 70.4721C131.047 70.5577 130.748 70.3865 130.463 70.144C130.234 69.9442 130.063 69.6874 129.892 69.4305C129.792 69.2736 129.678 69.1309 129.564 68.9882C129.55 68.9597 129.507 68.9311 129.536 68.8883C129.55 68.8598 129.593 68.8741 129.607 68.8883C129.963 69.0025 130.334 69.0596 130.691 69.2022C131.005 69.3307 131.29 69.5304 131.49 69.8729C130.905 68.2605 130.049 66.8907 128.879 65.7635C129.079 65.7635 129.892 66.7053 130.406 67.4615C130.833 68.1178 131.19 68.8313 131.518 69.6018C131.518 69.3735 131.49 69.1737 131.518 68.9597C131.561 68.4745 131.746 68.0465 131.889 67.6184C131.932 67.49 131.974 67.3759 132.017 67.2475C132.032 67.2189 132.032 67.1904 132.06 67.1904C132.089 67.1904 132.089 67.2189 132.103 67.2475C132.203 67.9038 132.474 68.5459 132.388 69.245C132.345 69.559 132.26 69.8586 132.06 70.0869C131.917 70.2438 131.86 70.2438 131.732 70.0584C131.718 70.0441 131.703 70.0155 131.689 70.0013C131.875 70.6006 132.032 71.1856 132.16 71.7991C132.231 70.8859 132.787 70.2724 133.144 69.5447C133.158 69.5447 133.173 69.5447 133.187 69.559C133.187 69.6874 133.201 69.8301 133.201 69.9585C133.215 70.2724 133.23 70.6006 133.23 70.9145C133.23 71.3568 133.158 71.7706 132.973 72.1558C132.902 72.2985 132.802 72.4269 132.673 72.5268C132.474 72.6838 132.445 72.6838 132.274 72.4555C132.374 73.2402 132.417 73.9965 132.374 74.7527C132.331 75.5089 132.231 76.2651 132.074 77.0071C132.174 76.8502 132.26 76.6932 132.374 76.5505C132.688 76.1795 133.087 75.994 133.472 75.78C133.629 75.6944 133.772 75.6088 133.928 75.5375C133.943 75.5232 133.971 75.5089 133.986 75.5375C134.014 75.566 133.986 75.5803 133.986 75.6088C133.743 76.0511 133.572 76.5363 133.315 76.9643C133.13 77.2639 132.887 77.5065 132.602 77.6492C132.474 77.7063 132.331 77.7491 132.174 77.7348C132.017 77.7205 132.017 77.692 131.989 77.3781C131.889 77.7205 131.789 78.0344 131.689 78.3341C131.589 78.6337 131.475 78.9334 131.347 79.2473C131.746 78.6337 132.331 78.4197 132.916 78.2199C133.116 78.1629 133.301 78.0772 133.501 78.0059C133.543 77.9916 133.572 77.9631 133.629 77.9916C133.543 78.12 133.458 78.2485 133.387 78.3769C133.144 78.7336 132.944 79.1331 132.659 79.4613C132.331 79.8465 131.946 80.1319 131.461 80.1034C131.447 80.1034 131.432 80.1034 131.418 80.1034C131.176 80.0748 131.119 80.0035 131.176 79.7181C131.176 79.6753 131.19 79.6468 131.176 79.604C131.09 79.7609 131.019 79.9179 130.933 80.0606C130.705 80.4886 130.448 80.9024 130.177 81.2877C130.149 81.3305 130.106 81.3733 130.092 81.4446C130.534 80.9309 131.09 80.8025 131.661 80.7883C131.989 80.774 132.303 80.774 132.631 80.7455C132.659 80.7455 132.688 80.7312 132.716 80.7597C132.73 80.7883 132.716 80.8025 132.702 80.8168C132.288 81.1592 131.946 81.573 131.518 81.8869C131.19 82.1295 130.833 82.2864 130.434 82.2722C130.263 82.2722 130.106 82.2008 129.963 82.1152C129.864 82.0582 129.835 81.9725 129.878 81.8584C129.906 81.7728 129.935 81.6872 129.963 81.6016C129.778 81.7728 129.635 82.0153 129.45 82.2008C129.193 82.4719 128.936 82.743 128.68 83.0141C128.765 82.9856 128.851 82.9571 128.936 82.9428C129.364 82.8429 129.778 82.9 130.192 82.9999C130.505 83.0855 130.805 83.1711 131.119 83.2282C131.147 83.2282 131.19 83.2424 131.219 83.2852C131.204 83.2995 131.204 83.3138 131.19 83.3281C130.748 83.5706 130.306 83.8274 129.864 84.0415C129.407 84.2555 128.936 84.3268 128.452 84.1271C128.337 84.0843 128.238 83.9987 128.138 83.9131C128.009 83.7846 127.995 83.7276 128.081 83.5421C128.095 83.5278 128.109 83.4993 128.095 83.4565C127.639 83.8132 127.154 84.0985 126.654 84.3696C127.496 84.1842 128.223 84.655 129.036 84.8405C129.008 84.8833 128.994 84.8976 128.994 84.9118C128.466 85.1116 127.981 85.4398 127.439 85.5825C126.997 85.7109 126.569 85.7109 126.155 85.4541C126.055 85.397 125.956 85.3114 125.884 85.1972C125.827 85.1116 125.813 85.0403 125.87 84.9404C125.941 84.812 126.041 84.7264 126.169 84.5979C125.927 84.6836 125.713 84.7549 125.513 84.8262C125.043 84.9975 124.558 85.0831 124.059 85.1687C124.515 85.1687 124.943 85.3114 125.342 85.5682C125.685 85.7822 125.998 86.0248 126.355 86.2246C126.383 86.2388 126.398 86.2531 126.426 86.2816C126.398 86.353 126.341 86.3387 126.312 86.3387C125.884 86.41 125.456 86.4957 125.014 86.5385C124.529 86.5955 124.059 86.5242 123.645 86.1817C123.517 86.0819 123.417 85.9392 123.331 85.768C123.274 85.6538 123.288 85.5682 123.374 85.4683C123.531 85.3114 123.716 85.2543 123.902 85.183C123.559 85.1972 123.231 85.2258 122.889 85.2115C122.746 85.2115 122.59 85.1972 122.447 85.183C122.376 85.183 122.361 85.1402 122.376 85.0688C122.39 84.9975 122.376 84.9261 122.461 84.9118C122.518 84.9118 122.575 84.9118 122.618 84.9118C123.731 84.9832 124.815 84.812 125.87 84.4125C125.927 84.3839 125.984 84.3697 126.041 84.3268C126.027 84.3268 125.998 84.3268 125.984 84.3411C125.699 84.4267 125.67 84.3982 125.599 84.0557C125.528 83.6705 125.613 83.2995 125.756 82.9571C125.884 82.6289 126.07 82.3578 126.284 82.101C126.54 81.7585 126.84 81.4161 127.139 81.0736ZM123.331 84.5694C123.331 84.5266 123.331 84.4838 123.331 84.441C123.374 83.9701 123.588 83.5991 123.859 83.271C124.087 83.0141 124.344 82.8287 124.615 82.6574C124.914 82.4719 125.228 82.315 125.513 82.101C125.542 82.0867 125.57 82.0439 125.613 82.0724C125.642 82.101 125.628 82.1295 125.613 82.158C125.342 82.7145 125.171 83.3423 124.857 83.8703C124.643 84.2412 124.372 84.5551 124.002 84.7406C123.859 84.812 123.716 84.8548 123.559 84.8405C123.36 84.8262 123.331 84.7834 123.331 84.5694ZM114.189 84.1128C114.132 84.3839 114.018 84.4267 113.789 84.284C113.747 84.2555 113.718 84.227 113.675 84.1984C113.418 83.9987 113.247 83.7276 113.09 83.3851C113.033 83.2282 112.962 83.0141 112.919 82.8001C112.805 82.2294 112.819 81.6729 112.72 81.1022C112.72 81.0736 112.705 81.0451 112.734 81.0308C112.762 81.0166 112.777 81.0594 112.805 81.0736C112.905 81.2163 113.005 81.359 113.119 81.4874C113.376 81.8299 113.661 82.158 113.875 82.5433C114.132 83.0427 114.317 83.5563 114.189 84.1128ZM116.2 84.3126C116.328 84.6265 116.385 84.9261 116.342 85.1687C116.328 85.2828 116.271 85.3256 116.171 85.3256C116 85.3114 115.829 85.2543 115.672 85.1402C115.187 84.812 114.888 84.3268 114.659 83.7704C114.474 83.2995 114.317 82.8286 114.146 82.3435C114.132 82.315 114.103 82.2722 114.132 82.2436C114.16 82.2151 114.189 82.2579 114.217 82.2722C114.617 82.6004 115.016 82.9143 115.415 83.2424C115.743 83.5278 116.014 83.8845 116.2 84.3126ZM120.807 85.3399C120.664 85.397 120.507 85.4113 120.35 85.397C119.951 85.3542 119.594 85.1544 119.252 84.8833C118.767 84.4981 118.396 83.9701 117.94 83.5421C117.926 83.5278 117.883 83.4993 117.911 83.4565C117.94 83.4137 117.983 83.4422 118.011 83.4565C118.353 83.5564 118.696 83.5992 119.052 83.6705C119.366 83.7276 119.68 83.8132 119.979 83.9844C120.365 84.1842 120.678 84.4695 120.892 84.8976C120.906 84.9404 120.921 84.9689 120.935 85.0117C121.006 85.2115 120.978 85.2543 120.807 85.3399ZM121.52 81.3875C120.921 81.5017 120.35 81.1022 120.236 80.5029L120.022 79.3186C117.469 79.3614 115.287 77.9488 114.916 75.8514C114.802 75.2521 115.201 74.6813 115.8 74.5672C116.399 74.453 116.97 74.8526 117.084 75.4518C117.255 76.3793 118.325 77.0071 119.623 77.0927L118.853 72.7979C116.3 72.8407 114.117 71.4281 113.747 69.3307C113.361 67.2332 114.916 65.1357 117.327 64.2939L117.113 63.1239C116.998 62.5246 117.398 61.9538 117.997 61.8397C118.596 61.7255 119.166 62.1251 119.281 62.7243L119.494 63.8944C122.048 63.8516 124.23 65.2641 124.601 67.3616C124.715 67.9609 124.315 68.5316 123.716 68.6458C123.117 68.7599 122.547 68.3604 122.433 67.7611C122.261 66.8337 121.192 66.2059 119.894 66.1202L120.664 70.4151C123.217 70.3723 125.399 71.7848 125.77 73.8823C126.155 75.9798 124.601 78.0772 122.19 78.9191L122.404 80.1034C122.504 80.7027 122.119 81.2734 121.52 81.3875Z" fill="#E8B100"/>
<path d="M115.9 68.9311C116.071 69.8586 117.141 70.4864 118.439 70.572L117.711 66.5055C116.513 67.0477 115.743 68.018 115.9 68.9311Z" fill="#E8B100"/>
<path d="M123.588 74.2818C123.417 73.3544 122.347 72.7265 121.049 72.6409L121.776 76.7075C122.975 76.1652 123.759 75.195 123.588 74.2818Z" fill="#E8B100"/>
<path d="M122.404 80.1034L122.19 78.9191C124.586 78.063 126.141 75.9798 125.77 73.8823C125.385 71.7848 123.203 70.3723 120.664 70.4151L119.894 66.1202C121.192 66.2059 122.261 66.8337 122.433 67.7611C122.547 68.3604 123.117 68.7599 123.716 68.6458C124.315 68.5316 124.715 67.9609 124.601 67.3616C124.215 65.2641 122.033 63.8516 119.494 63.8944L119.28 62.7243C119.166 62.1251 118.596 61.7256 117.997 61.8397C117.398 61.9538 116.998 62.5246 117.113 63.1239L117.326 64.2939C114.93 65.15 113.376 67.2332 113.746 69.3307C114.132 71.4281 116.314 72.8407 118.853 72.7979L119.623 77.0927C118.325 77.0071 117.255 76.3793 117.084 75.4518C116.97 74.8526 116.399 74.453 115.8 74.5672C115.201 74.6813 114.802 75.2521 114.916 75.8514C115.301 77.9488 117.483 79.3614 120.022 79.3186L120.236 80.5029C120.35 81.1022 120.921 81.5017 121.52 81.3875C122.119 81.2734 122.504 80.7026 122.404 80.1034ZM115.9 68.9311C115.729 68.0037 116.513 67.0334 117.697 66.5055L118.425 70.572C117.141 70.5007 116.071 69.8586 115.9 68.9311ZM121.049 72.6409C122.347 72.7266 123.417 73.3544 123.588 74.2818C123.759 75.2093 122.975 76.1795 121.791 76.7075L121.049 72.6409Z" fill="#EAD300"/>
<path d="M113.518 84.3982C113.575 84.4267 113.632 84.4553 113.689 84.5123C113.932 84.6122 114.146 84.7834 114.374 84.8976C114.702 85.0545 115.044 85.2258 115.387 85.3827C115.301 85.3827 115.216 85.3827 115.13 85.397C114.702 85.454 114.331 85.6395 113.975 85.8964C113.718 86.0819 113.461 86.2674 113.176 86.4243C113.147 86.4386 113.119 86.4528 113.105 86.5099C113.119 86.5242 113.133 86.5385 113.133 86.5385C113.632 86.6098 114.132 86.6954 114.631 86.7382C115.13 86.781 115.601 86.6811 115.986 86.3387C116.071 86.2531 116.143 86.1532 116.2 86.0248C116.285 85.8536 116.271 85.7965 116.128 85.6681C116.114 85.6538 116.086 85.6395 116.086 85.5967C116.642 85.768 117.198 85.8678 117.754 85.9534C116.899 86.0676 116.385 86.781 115.686 87.2233C115.729 87.2519 115.743 87.2661 115.758 87.2661C116.328 87.2804 116.899 87.3946 117.455 87.3518C117.911 87.309 118.325 87.1663 118.61 86.7953C118.681 86.6954 118.739 86.5813 118.781 86.4671C118.81 86.3672 118.781 86.2959 118.696 86.2245C118.582 86.1247 118.453 86.0819 118.296 85.9963C118.553 85.9963 118.781 85.982 118.995 85.982C119.494 85.982 119.994 85.8964 120.479 85.7965C120.536 85.7822 120.593 85.768 120.65 85.768C120.964 85.6681 121.292 85.5825 121.605 85.4541C121.748 85.397 121.876 85.3399 122.005 85.2828C122.062 85.2543 122.062 85.2115 122.033 85.1544C122.005 85.0973 121.976 85.0117 121.905 85.0403C121.848 85.0545 121.805 85.0831 121.748 85.0973C120.735 85.5539 119.651 85.768 118.525 85.768C118.468 85.768 118.396 85.7822 118.339 85.7537C117.954 85.7822 117.555 85.7251 117.17 85.6538C116.071 85.4826 115.016 85.0973 113.989 84.4981C113.418 84.1556 112.876 83.7704 112.363 83.328V83.5563C112.691 83.8417 113.019 84.0985 113.376 84.3268C113.418 84.3268 113.476 84.3411 113.518 84.3982Z" fill="#EAD300"/>
<path d="M120.878 84.8833C120.678 84.4553 120.35 84.1699 119.965 83.9701C119.666 83.8132 119.352 83.7276 119.038 83.6562C118.696 83.5849 118.339 83.5421 117.997 83.4422C117.968 83.4279 117.925 83.4137 117.897 83.4422C117.883 83.4707 117.911 83.4993 117.925 83.5278C118.382 83.9559 118.753 84.4838 119.238 84.869C119.58 85.1401 119.937 85.3399 120.336 85.3827C120.493 85.397 120.65 85.3827 120.792 85.3256C120.963 85.2543 120.992 85.1972 120.906 84.9832C120.906 84.9546 120.892 84.9119 120.878 84.8833Z" fill="#EAD300"/>
<path d="M115.415 83.2424C115.016 82.9143 114.617 82.6004 114.217 82.2722C114.189 82.2579 114.16 82.2151 114.132 82.2436C114.103 82.2722 114.132 82.315 114.146 82.3435C114.317 82.8144 114.474 83.2995 114.659 83.7704C114.873 84.3268 115.187 84.812 115.672 85.1401C115.829 85.24 116 85.3114 116.171 85.3256C116.271 85.3399 116.328 85.2828 116.342 85.1687C116.385 84.9261 116.342 84.6265 116.2 84.3126C116.014 83.8845 115.743 83.5278 115.415 83.2424Z" fill="#EAD300"/>
<path d="M118.325 85.7109C118.339 85.7109 118.353 85.7109 118.382 85.6966C118.667 85.6681 118.696 85.6395 118.639 85.2971C118.567 84.9118 118.368 84.5979 118.111 84.3268C117.883 84.07 117.612 83.8702 117.326 83.7133C116.927 83.4993 116.528 83.2852 116.128 83.0712C116.1 83.0569 116.071 83.0284 116.043 83.0569C116.014 83.0855 116.043 83.114 116.057 83.1426C116.385 83.6562 116.628 84.227 116.984 84.7406C117.284 85.1687 117.64 85.5111 118.097 85.6681C118.182 85.6823 118.253 85.6823 118.325 85.7109Z" fill="#EAD300"/>
<path d="M119.409 86.6098C119.166 86.9237 118.952 87.2662 118.696 87.5801C118.681 87.5943 118.667 87.6229 118.653 87.6514C118.696 87.7085 118.753 87.6799 118.781 87.6657C119.209 87.5801 119.637 87.5087 120.065 87.3946C120.536 87.2662 120.963 87.0379 121.22 86.5813C121.306 86.4386 121.349 86.2674 121.363 86.0961C121.377 85.9677 121.334 85.8964 121.22 85.8393C121.02 85.7394 120.821 85.7537 120.635 85.7537C120.578 85.768 120.521 85.7822 120.464 85.7822C120.022 85.9392 119.694 86.2245 119.409 86.6098Z" fill="#EAD300"/>
<path d="M113.476 85.2971C113.632 85.24 113.761 85.1259 113.861 84.9832C113.932 84.8976 113.932 84.812 113.846 84.7121C113.789 84.6407 113.732 84.5694 113.675 84.5123C113.632 84.4553 113.561 84.441 113.504 84.3982C113.105 84.1842 112.72 84.1413 112.349 84.1984V85.3114C112.748 85.4255 113.119 85.4398 113.476 85.2971Z" fill="#EAD300"/>
<path d="M113.119 81.5017C113.019 81.359 112.919 81.2163 112.805 81.0879C112.791 81.0594 112.777 81.0308 112.734 81.0451C112.705 81.0594 112.72 81.0879 112.72 81.1164C112.819 81.6872 112.805 82.2436 112.919 82.8144C112.962 83.0284 113.033 83.2424 113.09 83.3994C113.247 83.7418 113.419 84.0129 113.675 84.2127C113.718 84.2412 113.747 84.2698 113.789 84.2983C114.032 84.441 114.132 84.3982 114.189 84.1271C114.317 83.5706 114.132 83.057 113.861 82.5718C113.661 82.1723 113.376 81.8441 113.119 81.5017Z" fill="#EAD300"/>
<path d="M112.463 81.6729C112.434 81.5588 112.406 81.4446 112.363 81.3447V82.9571C112.377 82.9428 112.377 82.9285 112.392 82.9C112.605 82.5433 112.563 82.1152 112.463 81.6729Z" fill="#EAD300"/>
<path d="M125.998 84.3268C125.941 84.3696 125.884 84.3839 125.827 84.4124C124.772 84.812 123.688 84.9832 122.575 84.9118C122.518 84.9118 122.461 84.9118 122.418 84.9118C122.333 84.9118 122.333 84.9975 122.333 85.0688C122.333 85.1401 122.347 85.183 122.404 85.183C122.547 85.183 122.704 85.1972 122.846 85.2115C123.189 85.2258 123.517 85.1972 123.859 85.183C123.916 85.1687 123.973 85.1687 124.03 85.1544C124.515 85.0688 125 84.9832 125.485 84.812C125.699 84.7406 125.898 84.6693 126.141 84.5837C126.027 84.7121 125.913 84.7977 125.841 84.9261C125.784 85.026 125.799 85.0973 125.856 85.183C125.927 85.2828 126.027 85.3684 126.127 85.4398C126.54 85.6966 126.968 85.6824 127.41 85.5682C127.952 85.4112 128.437 85.0973 128.965 84.8976C128.979 84.8976 128.979 84.869 129.008 84.8262C128.209 84.655 127.467 84.1699 126.626 84.3554C127.125 84.0843 127.61 83.7989 128.066 83.4422C128.081 83.485 128.052 83.4993 128.052 83.5278C127.967 83.7133 127.967 83.7561 128.109 83.8988C128.209 83.9844 128.309 84.07 128.423 84.1128C128.894 84.3126 129.379 84.2412 129.835 84.0272C130.291 83.8132 130.719 83.5563 131.161 83.3138C131.176 83.3138 131.176 83.2852 131.19 83.271C131.161 83.2282 131.133 83.2282 131.09 83.2139C130.776 83.1711 130.463 83.0712 130.163 82.9856C129.749 82.8715 129.336 82.8144 128.908 82.9285C128.822 82.9428 128.737 82.9856 128.651 82.9999C128.922 82.7288 129.165 82.4577 129.421 82.1866C129.607 82.0011 129.735 81.7585 129.935 81.5873C129.963 81.5159 130.006 81.4731 130.049 81.4303C130.063 81.359 130.106 81.3162 130.135 81.2734C130.42 80.8881 130.662 80.4743 130.89 80.0463C130.976 79.8893 131.047 79.7324 131.133 79.5897C131.147 79.6325 131.133 79.6753 131.133 79.7038C131.076 79.9892 131.133 80.0606 131.375 80.0891C131.39 80.0891 131.404 80.0891 131.418 80.0891C131.903 80.1176 132.274 79.8323 132.616 79.447C132.902 79.1188 133.101 78.7336 133.344 78.3626C133.429 78.2342 133.501 78.12 133.586 77.9774C133.529 77.9488 133.486 77.9774 133.458 77.9916C133.258 78.063 133.073 78.1343 132.873 78.2057C132.288 78.3911 131.703 78.6194 131.304 79.233C131.432 78.9333 131.547 78.6337 131.646 78.3198C131.746 78.0202 131.846 77.7063 131.946 77.3638C131.96 77.6635 131.974 77.692 132.131 77.7205C132.274 77.7348 132.417 77.7063 132.559 77.6349C132.859 77.4922 133.087 77.2497 133.272 76.95C133.543 76.522 133.7 76.0368 133.943 75.5945C133.957 75.566 133.971 75.5517 133.943 75.5232C133.928 75.5089 133.9 75.5232 133.886 75.5232C133.729 75.6088 133.586 75.6944 133.429 75.7657C133.044 75.9798 132.645 76.1653 132.331 76.5362C132.217 76.6789 132.131 76.8359 132.032 76.9928C132.188 76.2509 132.303 75.4946 132.331 74.7384C132.374 73.9679 132.331 73.2117 132.231 72.4412C132.402 72.6837 132.431 72.6837 132.631 72.5125C132.759 72.4126 132.845 72.2985 132.93 72.1415C133.13 71.7563 133.201 71.3425 133.187 70.9002C133.187 70.5863 133.173 70.2581 133.158 69.9442C133.158 69.8158 133.144 69.6731 133.144 69.5447C133.13 69.5447 133.116 69.5447 133.101 69.5304C132.745 70.2581 132.188 70.8716 132.117 71.7848C131.989 71.1713 131.832 70.572 131.646 69.987C131.675 70.0013 131.675 70.0298 131.689 70.0441C131.818 70.2296 131.86 70.2296 132.017 70.0726C132.217 69.8443 132.317 69.5589 132.345 69.2308C132.431 68.5316 132.16 67.9038 132.06 67.2332C132.06 67.2046 132.046 67.1761 132.017 67.1761C131.989 67.1761 131.974 67.2046 131.974 67.2332C131.932 67.3616 131.889 67.4757 131.846 67.6042C131.703 68.0465 131.518 68.4745 131.475 68.9454C131.461 69.1452 131.49 69.3449 131.475 69.5875C131.147 68.817 130.805 68.1036 130.363 67.4472C129.849 66.6767 129.036 65.7493 128.837 65.7493C130.006 66.8765 130.862 68.2462 131.447 69.8586C131.247 69.5304 130.962 69.3306 130.648 69.188C130.291 69.0453 129.921 68.9882 129.564 68.8741C129.536 68.8598 129.507 68.8455 129.493 68.8741C129.464 68.9169 129.493 68.9454 129.521 68.9739C129.635 69.1166 129.749 69.2593 129.849 69.4163C130.02 69.6731 130.192 69.9299 130.42 70.1297C130.705 70.3722 131.005 70.5435 131.375 70.4579C131.504 70.4293 131.604 70.3722 131.561 70.1725C131.974 71.0999 132.36 73.9964 132.16 74.6528C132.103 74.1677 131.903 73.7967 131.618 73.4685C131.29 73.0833 130.905 72.8122 130.562 72.4412C130.548 72.4269 130.52 72.3984 130.505 72.4126C130.477 72.4269 130.491 72.4697 130.491 72.4983C130.534 72.7123 130.591 72.9263 130.634 73.1403C130.734 73.6112 130.819 74.0821 131.047 74.4958C131.233 74.8526 131.475 75.1237 131.832 75.2378C131.889 75.2521 131.96 75.2663 132.017 75.2521C132.089 75.2378 132.089 75.1379 132.146 75.0523C132.089 75.7515 131.989 76.3936 131.818 77.0356C131.86 76.3508 131.604 75.8228 131.29 75.3948C131.076 75.1094 130.862 74.824 130.648 74.5387C130.62 74.5101 130.605 74.453 130.562 74.4673C130.52 74.4816 130.534 74.5387 130.548 74.5815C130.562 74.7812 130.591 74.9952 130.591 75.195C130.619 75.6516 130.634 76.1082 130.776 76.5362C130.905 76.893 131.076 77.2211 131.404 77.3924C131.518 77.4494 131.646 77.4922 131.732 77.3067C131.732 77.3353 131.732 77.3638 131.732 77.3781C131.29 78.9904 130.577 80.403 129.578 81.6158C128.837 82.529 127.967 83.2567 127.011 83.7989C126.726 84.0129 126.369 84.2127 125.998 84.3268Z" fill="#EAD300"/>
<path d="M124.002 84.7406C124.358 84.5551 124.629 84.2555 124.857 83.8702C125.171 83.3423 125.342 82.7145 125.613 82.158C125.628 82.1295 125.642 82.101 125.613 82.0724C125.57 82.0439 125.542 82.0867 125.513 82.101C125.228 82.315 124.914 82.4719 124.615 82.6574C124.344 82.8286 124.073 83.0141 123.859 83.271C123.574 83.5991 123.374 83.9701 123.331 84.441C123.331 84.4838 123.331 84.5266 123.331 84.5694C123.331 84.7977 123.374 84.8262 123.559 84.8405C123.716 84.8405 123.859 84.812 124.002 84.7406Z" fill="#EAD300"/>
<path d="M128.737 79.604C128.694 79.5897 128.68 79.6325 128.665 79.661C128.409 80.1034 128.138 80.5314 127.881 80.988C127.667 81.3733 127.539 81.8013 127.51 82.2579C127.496 82.6004 127.553 82.9 127.681 83.114C127.738 83.2139 127.81 83.2425 127.895 83.1996C128.052 83.1283 128.18 83.0142 128.295 82.8572C128.637 82.3863 128.751 81.8156 128.765 81.2163C128.779 80.7169 128.765 80.2032 128.751 79.7038C128.751 79.6753 128.765 79.6182 128.737 79.604Z" fill="#EAD300"/>
<path d="M125.57 84.0415C125.627 84.3839 125.67 84.3982 125.955 84.3268C125.97 84.3268 125.984 84.3126 126.012 84.3126C126.084 84.2698 126.141 84.227 126.212 84.1699C126.597 83.856 126.797 83.4137 126.94 82.9143C127.096 82.315 127.125 81.7014 127.253 81.1022C127.253 81.0736 127.268 81.0308 127.239 81.0166C127.211 81.0023 127.182 81.0451 127.168 81.0736C126.868 81.4161 126.569 81.7443 126.269 82.101C126.055 82.3435 125.87 82.6289 125.741 82.9571C125.585 83.2995 125.499 83.6562 125.57 84.0415Z" fill="#EAD300"/>
<path d="M123.345 85.4541C123.26 85.5397 123.245 85.6395 123.303 85.7537C123.374 85.9106 123.488 86.0533 123.616 86.1675C124.03 86.5099 124.501 86.567 124.986 86.5242C125.413 86.4814 125.841 86.3958 126.283 86.3244C126.326 86.3244 126.369 86.3387 126.398 86.2674C126.369 86.2531 126.355 86.2246 126.326 86.2103C125.984 86.0105 125.656 85.768 125.314 85.5539C124.914 85.2971 124.501 85.1401 124.03 85.1544C123.973 85.1687 123.916 85.1687 123.859 85.183C123.673 85.2258 123.488 85.2971 123.345 85.4541Z" fill="#EAD300"/>
<path d="M129.849 81.8299C129.806 81.944 129.835 82.0296 129.935 82.0867C130.077 82.1723 130.234 82.2437 130.405 82.2437C130.805 82.2579 131.161 82.101 131.489 81.8584C131.917 81.5445 132.274 81.1307 132.673 80.7883C132.688 80.774 132.702 80.7597 132.688 80.7312C132.659 80.7026 132.63 80.7169 132.602 80.7169C132.274 80.7455 131.96 80.7455 131.632 80.7597C131.047 80.7883 130.491 80.9024 130.063 81.4161C130.02 81.4589 129.978 81.516 129.949 81.573C129.921 81.6586 129.892 81.7443 129.849 81.8299Z" fill="#EAD300"/>
<path d="M129.607 77.9916C129.564 77.9916 129.564 78.0344 129.564 78.063C129.521 78.2342 129.464 78.3911 129.421 78.5624C129.307 78.9762 129.15 79.3757 129.079 79.8037C128.993 80.3602 129.008 80.9024 129.321 81.3875C129.478 81.6158 129.592 81.6301 129.764 81.4161C129.792 81.3875 129.821 81.3447 129.835 81.3019C130.006 81.0308 130.077 80.7169 130.092 80.3317C130.092 80.1604 130.092 79.9321 130.049 79.7181C129.949 79.1474 129.749 78.6194 129.65 78.0487C129.65 78.0202 129.635 77.9916 129.607 77.9916Z" fill="#EAD300"/>
<path d="M130.292 76.3507C130.277 76.4364 130.277 76.522 130.263 76.6076C130.22 77.0784 130.106 77.5208 130.078 78.0344C130.063 78.1771 130.078 78.3341 130.092 78.5053C130.149 78.9476 130.263 79.3614 130.591 79.6325C130.762 79.7752 130.819 79.7466 130.933 79.5611C130.962 79.5041 130.99 79.447 131.019 79.3757C131.133 79.1046 131.147 78.8192 131.133 78.5195C131.076 77.692 130.634 77.0499 130.363 76.3222C130.363 76.3079 130.334 76.2937 130.32 76.2937C130.306 76.2937 130.292 76.3222 130.292 76.3507Z" fill="#EAD300"/>
<path d="M132.374 74.6956C132.359 74.8811 132.388 75.0523 132.445 75.2235C132.488 75.352 132.559 75.3805 132.673 75.3377C132.802 75.2806 132.93 75.2235 133.03 75.1237C133.287 74.8668 133.444 74.5387 133.543 74.1819C133.7 73.5969 133.7 72.9691 133.8 72.3698C133.8 72.3413 133.814 72.2985 133.786 72.2842C133.757 72.27 133.743 72.3128 133.715 72.327C133.444 72.6695 133.158 72.9834 132.901 73.3401C132.616 73.7253 132.402 74.1677 132.374 74.6956Z" fill="#EAD300"/>
<path d="M131.703 72.6838C132.06 72.698 132.16 72.6552 132.074 72.2129V72.1986C131.989 71.8562 131.789 71.5994 131.561 71.3996C131.119 71.0143 130.591 70.9145 130.106 70.6576C130.092 70.6434 130.063 70.6434 130.049 70.6719C130.035 70.7004 130.049 70.729 130.063 70.7432C130.12 70.8431 130.177 70.9573 130.234 71.0571C130.448 71.4424 130.619 71.8562 130.905 72.1844C131.133 72.4555 131.418 72.6695 131.703 72.6838Z" fill="#EAD300"/>
<path d="M130.862 67.9609C131.062 68.1606 131.147 68.1321 131.261 67.861C131.29 67.7754 131.318 67.6898 131.333 67.6042C131.404 67.1618 131.318 66.748 131.133 66.3628C130.962 66.0061 130.762 65.6494 130.577 65.2926C130.562 65.2641 130.562 65.2498 130.52 65.2498C130.477 65.2926 130.491 65.3497 130.491 65.3925C130.477 65.6208 130.463 65.8491 130.448 66.0774C130.42 66.3485 130.405 66.6196 130.434 66.8907C130.477 67.3045 130.591 67.6755 130.862 67.9609Z" fill="#EAD300"/>
<path d="M130.52 68.4175C130.676 68.3319 130.705 68.2605 130.634 68.075C130.52 67.8182 130.334 67.647 130.12 67.5185C129.778 67.3331 129.407 67.3188 129.036 67.3045C128.879 67.3045 128.708 67.2902 128.551 67.2902C128.523 67.2902 128.48 67.276 128.466 67.3188C128.451 67.3616 128.494 67.3759 128.523 67.4044C128.68 67.5471 128.837 67.704 128.993 67.8467C129.25 68.1036 129.521 68.3461 129.863 68.446C130.077 68.5031 130.306 68.5316 130.52 68.4175Z" fill="#EAD300"/>
<path d="M127.667 65.15C127.895 65.4068 128.138 65.6066 128.466 65.6066C128.737 65.6208 128.808 65.5067 128.722 65.1928C128.608 64.779 128.352 64.5364 128.052 64.3509C127.71 64.1512 127.339 64.0513 126.982 63.8801C126.968 63.8658 126.954 63.8801 126.911 63.8801C127.025 64.0798 127.125 64.2511 127.211 64.4223C127.353 64.6791 127.482 64.936 127.667 65.15Z" fill="#EAD300"/>
<path d="M129.664 66.32C129.778 66.3913 129.849 66.3628 129.921 66.2201C130.035 65.9347 130.035 65.6494 129.963 65.364C129.821 64.7362 129.421 64.3081 129.108 63.7659C129.093 63.98 129.093 64.1369 129.079 64.3081C129.065 64.6934 129.051 65.0786 129.136 65.4496C129.222 65.8063 129.364 66.1345 129.664 66.32Z" fill="#EAD300"/>
<path d="M129.022 66.0774C128.865 66.0061 128.708 65.9633 128.537 65.949C128.195 65.9205 127.838 65.9775 127.496 65.9775C127.496 66.0489 127.524 66.0489 127.553 66.0774C127.753 66.2487 127.967 66.4056 128.166 66.5768C128.309 66.691 128.466 66.7766 128.637 66.8337C128.879 66.9193 129.122 66.9335 129.35 66.7909C129.493 66.7052 129.507 66.6482 129.436 66.4912C129.35 66.2915 129.193 66.163 129.022 66.0774Z" fill="#EAD300"/>
<path d="M130.391 106.814C129.835 106.286 129.521 106.001 128.566 105.915C126.726 105.758 125 104.617 123.16 103.418C121.063 102.034 118.895 100.621 116.528 100.593C114.16 100.621 111.992 102.034 109.896 103.418C108.056 104.617 106.33 105.758 104.49 105.915C103.549 106.001 103.235 106.286 102.664 106.814C101.438 107.955 99.5407 108.483 99.5407 110.41C99.5264 110.424 133.529 110.424 133.515 110.41C133.515 108.483 131.618 107.955 130.391 106.814Z" fill="#E8B100"/>
<path d="M56.4952 186.504C60.118 186.504 63.2701 184.092 63.2701 179.098V163.018H59.5903V179.098C59.5903 182.194 57.6363 182.665 56.4382 182.665C54.313 182.665 53.6854 180.939 53.6854 179.098V163.018H49.8345V179.098V179.384C49.8345 184.263 52.9866 186.504 56.4952 186.504Z" fill="#012F59"/>
<path d="M70.1021 179.783H75.9071C76.0782 181.795 76.1923 183.864 76.1923 185.99H79.9862C79.9862 183.236 79.8151 180.525 79.5298 177.828C79.0734 172.834 78.2034 167.541 75.2795 163.003H70.7439C68.0482 167.312 67.1211 172.306 66.4936 177.828C66.2654 180.525 66.1512 183.293 66.1512 185.99H69.8881C69.8739 183.85 69.9309 181.781 70.1021 179.783ZM73.026 167.027C74.4095 169.838 75.0941 172.777 75.4934 175.988H70.5014C70.9008 172.934 71.6567 170.009 73.026 167.027Z" fill="#012F59"/>
<path d="M86.5328 179.598C87.5027 179.369 88.3727 179.084 89.2285 178.741C90.3268 182.708 92.509 187.188 97.1587 186.261V182.637C94.2919 183.265 93.2507 179.541 92.6801 176.658C94.5201 175.103 95.7752 173.034 95.9606 170.223C95.9606 166.599 94.0636 162.989 89.528 162.989H82.7532V185.976H86.5471V179.598H86.5328ZM86.5328 166.727H89.5138C91.5248 166.727 92.2095 168.34 92.2095 170.123C92.2095 171.736 91.1825 173.163 89.742 174.261C88.8292 174.889 87.7309 175.36 86.5328 175.759V166.727Z" fill="#012F59"/>
<path d="M112.834 172.078C112.663 166.856 109.967 163.003 103.763 163.003H98.5994V185.99H99.1128C109.61 186.147 113.005 177.3 112.834 172.078ZM102.436 166.799H103.763C107.442 166.799 108.983 168.639 108.983 172.021C108.983 175.988 106.858 180.297 102.436 181.667V166.799Z" fill="#012F59"/>
<path d="M117.555 179.783H123.36C123.531 181.795 123.645 183.864 123.645 185.99H127.439C127.439 183.236 127.268 180.525 126.982 177.828C126.526 172.834 125.656 167.541 122.732 163.003H118.197C115.501 167.312 114.574 172.306 113.946 177.828C113.718 180.525 113.604 183.293 113.604 185.99H117.341C117.326 183.85 117.384 181.781 117.555 179.783ZM120.479 167.027C121.862 169.838 122.547 172.777 122.946 175.988H117.954C118.353 172.934 119.095 170.009 120.479 167.027Z" fill="#012F59"/>
<path d="M198.511 201.899C188.17 202.812 180.825 194.551 176.232 185.69L171.697 176.444C177.387 174.432 181.923 169.61 181.467 161.791C181.181 155.298 174.749 147.308 161.656 148.235C151.087 148.977 140.632 157.767 141.559 170.937C142.187 181.281 150.174 187.945 159.302 188.116C158.903 191.326 157.862 193.866 155.622 194.608H148.163V198.289H157.063C159.816 198.289 163.381 198.518 164.822 201.043L167.86 198.746C166.077 196.22 163.724 195.236 161.028 194.836C162.183 192.939 162.811 190.527 163.096 187.773C164.251 187.602 165.392 187.317 166.548 186.917L164.936 183.707L163.324 184.106V183.307V177.557C164.879 177.671 166.419 177.614 167.974 177.386C169.357 180.026 170.441 182.722 172.909 187.445C177.958 197.333 186.345 206.579 198.81 205.652C203.916 205.195 208.98 203.183 212.417 198.817L209.436 196.406C206.726 199.887 202.704 201.5 198.511 201.899ZM163.31 174.09V155.298H159.573V173.105L158.66 172.592L157.049 176.216C157.904 176.616 158.717 176.787 159.573 177.015V183.279V184.435C152.342 184.263 145.738 179.555 145.096 170.708C144.355 159.051 154.282 152.259 161.755 151.631C173.294 150.889 177.716 157.096 178.015 162.433C178.471 171.45 170.028 174.832 163.31 174.09Z" fill="#012F59"/>
<path d="M190.124 186.275C192.592 186.275 194.603 184.777 196.157 182.48L192.877 180.468C191.907 182.023 190.98 182.423 190.124 182.423C189.383 182.423 188.284 182.023 187.314 180.468C186.63 179.369 186.159 178.114 185.931 176.558H192.877V172.763H185.874C186.102 171.208 186.559 169.724 187.314 168.511C188.284 166.956 189.383 166.499 190.124 166.499C190.98 166.499 191.907 166.956 192.877 168.511L196.157 166.499C194.603 164.202 192.592 162.647 190.124 162.647C187.657 162.647 185.589 164.202 184.148 166.499C181.338 170.979 181.338 177.928 184.148 182.466C185.574 184.72 187.643 186.275 190.124 186.275Z" fill="#012F59"/>
<path d="M207.026 163.003H202.49C199.794 167.312 198.867 172.306 198.24 177.828C198.012 180.525 197.897 183.293 197.897 185.99H201.634C201.634 183.864 201.691 181.795 201.863 179.783H207.668C207.839 181.795 207.953 183.864 207.953 185.99H211.747C211.747 183.236 211.576 180.525 211.29 177.828C210.82 172.82 209.964 167.541 207.026 163.003ZM202.262 175.988C202.661 172.949 203.417 170.009 204.786 167.027C206.17 169.838 206.855 172.777 207.254 175.988H202.262Z" fill="#012F59"/>
<path d="M217.78 182.194V163.003H213.929V185.976H223.571V182.194H217.78Z" fill="#012F59"/>
<path d="M113.704 201.314C107.143 201.186 100.282 199.302 93.0226 197.305C82.1542 194.323 70.9293 191.255 60.0182 194.123C54.2988 195.635 49.1214 197.405 44.814 199.06C45.2847 197.562 45.5129 195.935 45.5129 194.194V180.068H41.505V186.446C38.5811 189.657 34.6731 191.726 30.0234 191.555C20.8381 191.269 12.6797 183.336 13.3073 172.078C13.9349 161.22 20.4245 153.001 29.9093 152.545C35.9425 152.259 42.6603 156.454 43.1167 164.031C43.5731 170.466 40.0217 175.003 35.3007 174.375C33.0614 174.147 32.3197 172.078 31.6779 169.838L27.9981 170.937C29.0963 175.931 31.9061 177.771 35.0582 178.057C41.4337 178.684 47.4099 172.535 46.768 163.859C46.3116 153.857 37.868 148.692 29.9378 148.863C18.285 149.149 9.95553 159.151 9.49911 172.363C9.0427 186.147 19.7256 195.065 29.7667 195.35C34.7587 195.521 38.3244 194.194 41.4765 191.669V194.194C41.4765 196.434 41.0201 198.104 40.3783 199.245C39.6936 200.515 38.6952 201.571 37.2547 202.199C34.0027 203.654 32.0773 204.682 31.8776 204.796L33.746 208.292C33.8601 208.235 45.5842 202.028 61.0024 197.961C70.8723 195.35 81.5837 198.289 91.9528 201.129C106.487 205.11 121.506 209.233 134.2 197.961L131.575 194.993C126.583 199.459 120.892 201.457 113.704 201.314Z" fill="#012F59"/>
</svg>
