<svg width="218" height="54" viewBox="0 0 218 54" fill="none" xmlns="http://www.w3.org/2000/svg">
<path d="M82.4738 10.285C83.4226 10.3504 84.2733 10.8412 85.0258 11.7572C85.1566 11.9535 85.2875 12.1498 85.4184 12.3461C85.5492 12.5097 85.6474 12.706 85.7128 12.935C85.9091 13.4258 85.9745 14.1292 85.9091 15.0453C85.8437 15.9614 85.8927 16.7138 86.0563 17.3027C86.2199 17.8589 86.3835 18.3988 86.5471 18.9222C86.8415 19.8383 86.6616 21.0652 86.0073 22.6029C85.5165 24.0097 84.9112 24.844 84.1915 25.1057L83.3081 25.4001C82.4575 25.6946 81.7214 25.8091 81.0997 25.7437C80.5108 25.6455 80.1019 25.4656 79.8729 25.2038C79.2185 24.3532 79.0549 23.3717 79.3821 22.2593C79.4475 22.0303 79.4475 21.6704 79.3821 21.1797C79.3167 20.6889 79.0386 20.3781 78.5478 20.2473C78.2861 20.1818 78.1061 20.0673 78.008 19.9037C77.9426 19.7401 77.8771 19.6093 77.8117 19.5111C77.779 19.3803 77.7299 19.2985 77.6645 19.2657C77.6318 19.2003 77.4845 19.2657 77.2228 19.462C76.9611 19.6583 76.8138 19.7729 76.7811 19.8056C76.7484 19.8056 76.6339 19.7729 76.4376 19.7074C76.274 19.642 76.1104 19.6583 75.9468 19.7565C75.7833 19.8547 75.6197 20.0346 75.4561 20.2963C74.8672 21.3105 74.7527 22.9627 75.1126 25.2529C75.2434 25.94 75.3743 26.578 75.5052 27.1669C75.7669 28.6391 75.8814 29.6206 75.8487 30.1114C75.8487 30.6021 75.7505 31.1256 75.5542 31.6818C75.3907 32.2052 75.2434 32.7287 75.1126 33.2522C74.72 34.5936 74.769 35.7387 75.2598 36.6874C75.8487 37.8652 76.2249 38.5523 76.3885 38.7486C76.683 39.0431 77.0429 39.1739 77.4682 39.1412C77.8935 39.0758 78.2207 38.8631 78.4497 38.5032C78.6787 38.1106 78.8914 37.7017 79.0877 37.2763C79.284 36.8183 79.4966 36.393 79.7256 36.0004C79.9546 35.6078 80.2164 35.3788 80.5108 35.3133C80.838 35.2479 81.247 35.2479 81.7377 35.3133C82.2285 35.3461 82.5556 35.3624 82.7192 35.3624C82.9155 35.3624 83.1445 35.4769 83.4063 35.7059C83.668 35.9022 83.7989 36.3766 83.7989 37.1291C83.8316 37.8489 83.8643 38.4378 83.897 38.8958C83.9297 39.3211 83.8152 39.7137 83.5535 40.0736C83.2918 40.4008 83.1118 40.7116 83.0137 41.0061C82.9482 41.2678 82.8992 41.5295 82.8664 41.7913C82.8337 42.4783 82.7029 42.9854 82.4738 43.3126C82.2775 43.6398 82.0812 43.9179 81.8849 44.1469C81.7214 44.3432 81.247 44.4413 80.4618 44.4413C79.7093 44.4413 79.0222 44.8012 78.4006 45.521C77.779 46.2407 77.1901 46.5516 76.6339 46.4534C76.0777 46.388 75.6851 46.0608 75.4561 45.4719C75.2271 44.9484 74.72 44.6703 73.9348 44.6376C73.7057 44.6049 73.4931 44.5558 73.2968 44.4904C73.1005 44.3923 72.8715 44.3268 72.6097 44.2941C72.348 44.2287 72.0863 44.1142 71.8245 43.9506C71.1702 43.5907 70.6304 43.0181 70.205 42.2329C69.9433 41.7422 69.6816 41.3332 69.4198 41.0061C69.1908 40.6789 68.9945 40.3681 68.8309 40.0736C68.4056 39.4193 68.242 38.7977 68.3402 38.2088C68.5365 36.6384 68.3238 35.6078 67.7022 35.117C67.3423 34.888 67.1624 34.7081 67.1624 34.5772C67.1624 34.4463 67.0969 34.1682 66.9661 33.7429C66.7698 33.154 66.7698 32.467 66.9661 31.6818C67.1951 30.8966 67.2769 30.2586 67.2115 29.7678C67.146 29.2444 67.0642 28.7045 66.9661 28.1484C66.7698 26.7088 66.7534 25.76 66.917 25.302C67.0806 24.844 67.1133 24.1896 67.0152 23.339C66.9497 22.4884 66.917 21.8013 66.917 21.2778C66.917 20.7216 66.8679 20.0019 66.7698 19.1185C66.7043 18.2352 66.7043 17.2864 66.7698 16.2722C66.9988 13.7203 67.8658 11.9699 69.3708 11.0211C71.6282 9.67973 73.0678 9.04175 73.6894 9.10718C73.8857 9.10718 74.1147 9.1399 74.3764 9.20533C74.6709 9.23805 74.949 9.22169 75.2107 9.15626C75.4724 9.09082 75.7015 8.99267 75.8978 8.86181C76.0941 8.73094 76.2904 8.58371 76.4867 8.42013C77.2719 7.70036 77.9753 7.61857 78.5969 8.17475C79.1858 8.86181 79.6438 9.31984 79.971 9.54886C80.5272 9.97418 81.3615 10.2196 82.4738 10.285Z" fill="white"/>
<path d="M122.364 8.91088C123.117 8.97632 123.771 9.00903 124.327 9.00903C124.916 8.97632 125.783 8.97632 126.928 9.00903C128.826 9.10718 130.167 8.97632 130.952 8.61643C132.555 7.79851 133.848 7.70036 134.829 8.32198C135.287 8.58371 135.729 8.7473 136.154 8.81273C136.58 8.87817 137.185 8.68186 137.97 8.22383C138.821 7.86394 139.524 7.78215 140.08 7.97845C140.636 8.17475 141.045 8.42013 141.307 8.71458C141.569 9.00903 141.732 9.5325 141.798 10.285C141.896 11.0048 141.912 11.7245 141.847 12.4443C141.814 13.1641 141.749 13.8348 141.651 14.4564C141.454 16.1249 141.373 17.2209 141.405 17.7444C141.471 18.2679 141.536 18.8077 141.602 19.3639C141.7 19.9201 141.732 20.4599 141.7 20.9834C141.634 22.2593 141.111 22.9791 140.129 23.1427C139.41 23.2408 138.886 23.0773 138.559 22.6519C138.232 22.1939 137.954 21.7031 137.725 21.1797C137.528 20.6235 137.316 20.1327 137.087 19.7074C136.89 19.2821 136.596 19.1349 136.203 19.2657C135.811 19.3639 135.565 19.7892 135.467 20.5417C135.369 21.2615 135.336 22.1285 135.369 23.1427C135.402 24.1242 135.467 25.1548 135.565 26.2344C135.664 27.2814 135.729 28.1811 135.762 28.9336C135.794 29.6533 135.827 30.3895 135.86 31.1419C135.925 31.8944 135.958 32.5978 135.958 33.2522C135.958 34.659 135.762 35.6241 135.369 36.1476C135.173 36.4094 135.075 36.7202 135.075 37.08C135.075 37.4399 135.107 37.8162 135.173 38.2088C135.271 38.6014 135.369 38.994 135.467 39.3866C135.565 39.7792 135.614 40.2536 135.614 40.8098C135.614 42.1184 135.026 43.0345 133.848 43.558C133.422 43.7543 133.03 44.0814 132.67 44.5395C132.31 44.9975 132.032 45.292 131.836 45.4228C131.672 45.5864 131.459 45.6355 131.198 45.5701C130.969 45.5373 130.789 45.4228 130.658 45.2265C130.56 45.0629 130.462 44.883 130.363 44.6867C130.167 44.1632 129.889 43.8197 129.529 43.6561C129.104 43.558 128.842 43.1981 128.744 42.5765C128.678 41.9548 128.629 41.415 128.597 40.957C128.597 40.4662 128.564 39.8773 128.499 39.1903C128.433 38.5032 128.22 37.947 127.861 37.5217C127.501 37.0964 127.206 36.8347 126.977 36.7365C126.748 36.6057 126.601 36.3276 126.536 35.9022C126.47 35.4442 126.47 34.9862 126.536 34.5281C126.634 34.0701 126.748 33.563 126.879 33.0068C127.272 31.4037 127.484 29.8987 127.517 28.4919C127.615 25.8745 127.615 24.1406 127.517 23.2899C127.386 21.5886 126.928 20.738 126.143 20.738C125.75 20.7707 125.472 20.9507 125.309 21.2778C125.145 21.5723 124.965 21.9322 124.769 22.3575C124.311 23.4371 123.476 23.7316 122.266 23.2408C121.841 23.0445 121.563 22.7337 121.432 22.3084C121.334 21.8831 121.268 21.3923 121.235 20.8362C121.235 20.2473 121.219 19.642 121.186 19.0204C121.186 18.366 121.072 17.7608 120.843 17.2046C120.646 16.6157 120.45 16.0595 120.254 15.536C120.058 15.0126 119.976 14.4891 120.009 13.9656C120.041 13.4422 120.156 12.935 120.352 12.4443C120.581 11.9535 120.646 11.4628 120.548 10.972C120.483 10.4813 120.581 10.0069 120.843 9.54886C121.137 9.05811 121.644 8.84545 122.364 8.91088Z" fill="white"/>
<path d="M191.552 37.5217C191.716 37.7507 191.781 38.0452 191.749 38.4051C191.749 38.7322 191.716 39.0758 191.65 39.4357C191.618 39.7955 191.634 40.2045 191.7 40.6625C191.765 41.0879 191.814 41.5132 191.847 41.9385C191.912 42.3311 191.945 42.7073 191.945 43.0672C191.945 43.4271 191.83 43.7379 191.601 43.9996C191.405 44.2287 191.094 44.425 190.669 44.5886C190.244 44.7521 189.769 44.8666 189.246 44.9321C188.035 45.0302 186.988 44.8503 186.105 44.3923C185.287 43.9669 184.502 43.8361 183.749 43.9996C183.03 44.1632 182.457 44.3268 182.032 44.4904C181.639 44.6213 181.165 44.7521 180.609 44.883C180.085 45.0139 179.562 45.0629 179.038 45.0302C178.515 45.0302 178.073 44.7521 177.713 44.1959C177.353 43.607 177.157 42.9364 177.124 42.1839C177.091 41.4314 177.206 40.6625 177.468 39.8773C177.729 39.0921 177.828 38.2088 177.762 37.2273C177.697 36.213 177.631 35.3624 177.566 34.6754C177.5 33.9556 177.5 33.334 177.566 32.8105C177.729 31.5673 177.582 30.7003 177.124 30.2095C176.764 29.7842 176.584 29.2934 176.584 28.7373C176.584 28.1484 176.601 27.674 176.633 27.3141C176.666 26.9542 176.781 26.6434 176.977 26.3817C177.173 26.1199 177.288 25.9073 177.32 25.7437C177.386 25.5474 177.386 25.2202 177.32 24.7622C177.059 22.8973 176.961 21.4578 177.026 20.4436C177.124 19.4293 177.108 18.5623 176.977 17.8426C176.879 17.0901 176.862 16.4848 176.928 16.0268C176.993 15.536 176.961 15.1271 176.83 14.7999C176.699 14.4727 176.65 14.2437 176.683 14.1129C176.748 13.9493 176.748 13.7366 176.683 13.4749C176.617 13.1804 176.552 12.8696 176.486 12.5424C176.29 11.5609 176.224 10.8902 176.29 10.5304C176.388 10.1705 176.552 9.76152 176.781 9.30348C177.042 8.81273 177.353 8.51828 177.713 8.42013C178.073 8.32198 178.286 8.24019 178.351 8.17475C178.417 8.10932 178.58 8.02753 178.842 7.92938C179.529 7.73308 180.036 7.71672 180.363 7.8803C180.69 8.04389 180.985 8.14204 181.247 8.17475C181.508 8.17475 181.77 8.17475 182.032 8.17475C182.326 8.14204 182.604 8.09296 182.866 8.02753L183.455 7.92938C184.142 7.73308 184.665 7.76579 185.025 8.02753C185.254 8.25655 185.418 8.43649 185.516 8.56736C185.614 8.69822 185.631 8.89452 185.565 9.15626C185.5 9.41799 185.532 9.63065 185.663 9.79424C185.794 9.95782 185.843 10.2032 185.811 10.5304C185.778 10.8248 185.761 11.0538 185.761 11.2174C185.794 11.3483 185.827 11.4955 185.86 11.6591C185.925 11.9863 185.892 12.3789 185.761 12.8369C185.631 13.2949 185.549 13.6057 185.516 13.7693C185.483 13.9002 185.467 14.0311 185.467 14.1619C185.467 14.5872 185.402 14.9962 185.271 15.3888C185.173 15.7487 185.107 16.0595 185.074 16.3212C185.074 16.5503 185.074 16.8283 185.074 17.1555V18.2352C185.074 18.6278 185.042 19.1185 184.976 19.7074C184.944 20.2963 184.894 20.9997 184.829 21.8177C184.796 22.6029 184.764 23.4044 184.731 24.2223C184.6 26.3817 184.436 27.7558 184.24 28.3447C183.717 28.6391 183.635 29.3262 183.995 30.4058L184.338 31.4364C184.665 32.4179 184.829 33.383 184.829 34.3318C184.829 35.2806 184.747 36.1967 184.584 37.08C185.532 37.6035 186.203 37.8816 186.596 37.9143C187.544 38.0452 188.395 37.9143 189.148 37.5217C189.933 37.1291 190.489 36.9655 190.816 37.031C191.176 37.0964 191.421 37.26 191.552 37.5217Z" fill="white"/>
<path d="M101.462 16.1249L101.217 27.265C101.217 32.2052 101.904 34.5445 103.278 34.2828C104.456 34.0865 104.995 32.0089 104.897 28.0502C104.897 26.8724 104.979 26.1199 105.143 25.7927C105.339 25.4329 105.47 25.1384 105.535 24.9094C105.699 24.2551 105.732 23.3881 105.633 22.3084C105.568 21.6214 105.453 20.5908 105.29 19.2167C105.126 17.8426 104.979 16.4357 104.848 14.9962C104.717 13.524 104.652 12.1989 104.652 11.0211C104.652 9.84331 104.766 9.10719 104.995 8.81273C105.257 8.51828 105.568 8.3547 105.928 8.32198C106.32 8.25655 106.713 8.25655 107.106 8.32198C107.531 8.3547 107.924 8.42013 108.283 8.51828C108.676 8.61643 108.987 8.66551 109.216 8.66551C109.478 8.66551 109.772 8.63279 110.099 8.56736C110.459 8.46921 110.803 8.40377 111.13 8.37106C111.49 8.30562 111.817 8.27291 112.111 8.27291C112.438 8.27291 112.733 8.38742 112.995 8.61643C113.256 8.84545 113.469 9.41799 113.633 10.3341C113.829 11.2501 113.96 12.3298 114.025 13.573C114.123 14.8163 114.172 16.1577 114.172 17.5972C114.172 19.004 114.156 20.3454 114.123 21.6214C113.992 24.435 113.862 26.1363 113.731 26.7252C113.633 27.3141 113.502 27.7394 113.338 28.0011C113.175 28.2629 113.011 28.5082 112.847 28.7373C112.52 29.1953 112.471 29.8496 112.7 30.7003C112.929 31.5509 113.109 32.2052 113.24 32.6633C113.469 33.4812 113.485 34.2173 113.289 34.8717C113.093 35.526 113.027 36.164 113.093 36.7856C113.256 38.4541 113.06 39.6483 112.504 40.3681C112.242 40.728 111.833 41.0715 111.277 41.3987C110.165 42.0203 109.347 42.7728 108.823 43.6561C108.562 44.1796 108.251 44.4904 107.891 44.5885C107.695 44.654 107.4 44.6703 107.007 44.6376C106.615 44.5722 106.19 44.5231 105.732 44.4904C105.273 44.425 104.832 44.3759 104.406 44.3432C103.981 44.2777 103.687 44.2777 103.523 44.3432C103.36 44.3759 103.212 44.474 103.081 44.6376C102.951 44.7685 102.803 44.9157 102.64 45.0793C101.756 45.9627 100.84 45.8645 99.8916 44.7848C99.6953 44.5558 99.499 44.3432 99.3027 44.1469C99.1391 43.9179 98.9755 43.7543 98.8119 43.6561C98.6483 43.5252 98.4193 43.4107 98.1249 43.3126C97.8631 43.1817 97.5687 43.0018 97.2415 42.7728C95.8347 41.9221 94.9513 40.548 94.5914 38.6504C94.3951 37.7344 94.2316 36.5566 94.1007 35.117C93.9698 33.6448 93.8553 32.7124 93.7572 32.3197C93.6917 31.9271 93.4954 31.5018 93.1683 31.0438C92.8411 30.553 92.6284 30.1114 92.5303 29.7188C92.4321 29.2934 92.4158 28.8518 92.4812 28.3937C92.5466 27.9357 92.6284 27.4122 92.7266 26.8233C92.9883 25.2529 93.0537 23.8788 92.9229 22.701C92.792 21.5232 92.7593 20.6071 92.8247 19.9528C92.9229 19.2985 92.9392 18.8895 92.8738 18.7259C92.8084 18.5296 92.6939 18.3497 92.5303 18.1861C92.3994 18.0225 92.3667 17.679 92.4321 17.1555C92.4976 16.632 92.5303 16.1249 92.5303 15.6342C92.5303 15.1434 92.5303 14.6363 92.5303 14.1129C92.6284 11.8881 92.972 10.5467 93.5609 10.0887C94.0516 9.7288 94.5587 9.5325 95.0822 9.49979C95.9001 9.46707 96.5054 9.31984 96.898 9.05811C97.3233 8.79638 97.6668 8.58372 97.9286 8.42013C99.5644 7.50406 100.579 8.1584 100.971 10.3831C101.233 11.7572 101.397 13.6712 101.462 16.1249Z" fill="#99F877"/>
<path d="M156.713 16.1249L156.467 27.265C156.467 32.2052 157.154 34.5445 158.529 34.2828C159.706 34.0865 160.246 32.0089 160.148 28.0502C160.148 26.8724 160.23 26.1199 160.393 25.7927C160.59 25.4329 160.721 25.1384 160.786 24.9094C160.95 24.2551 160.982 23.3881 160.884 22.3084C160.819 21.6214 160.704 20.5908 160.541 19.2167C160.377 17.8426 160.23 16.4357 160.099 14.9962C159.968 13.524 159.903 12.1989 159.903 11.0211C159.903 9.84331 160.017 9.10719 160.246 8.81273C160.508 8.51828 160.819 8.3547 161.179 8.32198C161.571 8.25655 161.964 8.25655 162.356 8.32198C162.782 8.3547 163.174 8.42013 163.534 8.51828C163.927 8.61643 164.238 8.66551 164.467 8.66551C164.728 8.66551 165.023 8.63279 165.35 8.56736C165.71 8.46921 166.053 8.40377 166.381 8.37106C166.74 8.30562 167.068 8.27291 167.362 8.27291C167.689 8.27291 167.984 8.38742 168.245 8.61643C168.507 8.84545 168.72 9.41799 168.883 10.3341C169.08 11.2501 169.211 12.3298 169.276 13.573C169.374 14.8163 169.423 16.1577 169.423 17.5972C169.423 19.004 169.407 20.3454 169.374 21.6214C169.243 24.435 169.112 26.1363 168.982 26.7252C168.883 27.3141 168.753 27.7394 168.589 28.0011C168.425 28.2629 168.262 28.5082 168.098 28.7373C167.771 29.1953 167.722 29.8496 167.951 30.7003C168.18 31.5509 168.36 32.2052 168.491 32.6633C168.72 33.4812 168.736 34.2173 168.54 34.8717C168.344 35.526 168.278 36.164 168.344 36.7856C168.507 38.4541 168.311 39.6483 167.755 40.3681C167.493 40.728 167.084 41.0715 166.528 41.3987C165.415 42.0203 164.598 42.7728 164.074 43.6561C163.812 44.1796 163.502 44.4904 163.142 44.5885C162.945 44.654 162.651 44.6703 162.258 44.6376C161.866 44.5722 161.44 44.5231 160.982 44.4904C160.524 44.425 160.083 44.3759 159.657 44.3432C159.232 44.2777 158.938 44.2777 158.774 44.3432C158.61 44.3759 158.463 44.474 158.332 44.6376C158.201 44.7685 158.054 44.9157 157.891 45.0793C157.007 45.9627 156.091 45.8645 155.142 44.7848C154.946 44.5558 154.75 44.3432 154.553 44.1469C154.39 43.9179 154.226 43.7543 154.063 43.6561C153.899 43.5252 153.67 43.4107 153.376 43.3126C153.114 43.1817 152.819 43.0018 152.492 42.7728C151.085 41.9221 150.202 40.548 149.842 38.6504C149.646 37.7344 149.482 36.5566 149.352 35.117C149.221 33.6448 149.106 32.7124 149.008 32.3197C148.943 31.9271 148.746 31.5018 148.419 31.0438C148.092 30.553 147.879 30.1114 147.781 29.7188C147.683 29.2934 147.667 28.8518 147.732 28.3937C147.797 27.9357 147.879 27.4122 147.977 26.8233C148.239 25.2529 148.305 23.8788 148.174 22.701C148.043 21.5232 148.01 20.6071 148.076 19.9528C148.174 19.2985 148.19 18.8895 148.125 18.7259C148.059 18.5296 147.945 18.3497 147.781 18.1861C147.65 18.0225 147.618 17.679 147.683 17.1555C147.748 16.632 147.781 16.1249 147.781 15.6342C147.781 15.1434 147.781 14.6363 147.781 14.1129C147.879 11.8881 148.223 10.5467 148.812 10.0887C149.302 9.7288 149.81 9.5325 150.333 9.49979C151.151 9.46707 151.756 9.31984 152.149 9.05811C152.574 8.79638 152.918 8.58372 153.179 8.42013C154.815 7.50406 155.829 8.1584 156.222 10.3831C156.484 11.7572 156.647 13.6712 156.713 16.1249Z" fill="#99F877"/>
<path d="M205.289 16.1249L205.044 27.265C205.044 32.2052 205.731 34.5445 207.105 34.2828C208.283 34.0865 208.823 32.0089 208.725 28.0502C208.725 26.8724 208.806 26.1199 208.97 25.7927C209.166 25.4329 209.297 25.1384 209.363 24.9094C209.526 24.2551 209.559 23.3881 209.461 22.3084C209.395 21.6214 209.281 20.5908 209.117 19.2167C208.954 17.8426 208.806 16.4357 208.676 14.9962C208.545 13.524 208.479 12.1989 208.479 11.0211C208.479 9.84331 208.594 9.10719 208.823 8.81273C209.085 8.51828 209.395 8.3547 209.755 8.32198C210.148 8.25655 210.54 8.25655 210.933 8.32198C211.358 8.3547 211.751 8.42013 212.111 8.51828C212.503 8.61643 212.814 8.66551 213.043 8.66551C213.305 8.66551 213.599 8.63279 213.927 8.56736C214.286 8.46921 214.63 8.40377 214.957 8.37106C215.317 8.30562 215.644 8.27291 215.939 8.27291C216.266 8.27291 216.56 8.38742 216.822 8.61643C217.084 8.84545 217.296 9.41799 217.46 10.3341C217.656 11.2501 217.787 12.3298 217.853 13.573C217.951 14.8163 218 16.1577 218 17.5972C218 19.004 217.983 20.3454 217.951 21.6214C217.82 24.435 217.689 26.1363 217.558 26.7252C217.46 27.3141 217.329 27.7394 217.166 28.0011C217.002 28.2629 216.838 28.5082 216.675 28.7373C216.348 29.1953 216.299 29.8496 216.528 30.7003C216.757 31.5509 216.937 32.2052 217.067 32.6633C217.296 33.4812 217.313 34.2173 217.116 34.8717C216.92 35.526 216.855 36.164 216.92 36.7856C217.084 38.4541 216.887 39.6483 216.331 40.3681C216.07 40.728 215.661 41.0715 215.104 41.3987C213.992 42.0203 213.174 42.7728 212.651 43.6561C212.389 44.1796 212.078 44.4904 211.718 44.5885C211.522 44.654 211.227 44.6703 210.835 44.6376C210.442 44.5722 210.017 44.5231 209.559 44.4904C209.101 44.425 208.659 44.3759 208.234 44.3432C207.809 44.2777 207.514 44.2777 207.351 44.3432C207.187 44.3759 207.04 44.474 206.909 44.6376C206.778 44.7685 206.631 44.9157 206.467 45.0793C205.584 45.9627 204.668 45.8645 203.719 44.7848C203.523 44.5558 203.326 44.3432 203.13 44.1469C202.966 43.9179 202.803 43.7543 202.639 43.6561C202.476 43.5252 202.247 43.4107 201.952 43.3126C201.691 43.1817 201.396 43.0018 201.069 42.7728C199.662 41.9221 198.779 40.548 198.419 38.6504C198.223 37.7344 198.059 36.5566 197.928 35.117C197.797 33.6448 197.683 32.7124 197.585 32.3197C197.519 31.9271 197.323 31.5018 196.996 31.0438C196.669 30.553 196.456 30.1114 196.358 29.7188C196.26 29.2934 196.243 28.8518 196.309 28.3937C196.374 27.9357 196.456 27.4122 196.554 26.8233C196.816 25.2529 196.881 23.8788 196.75 22.701C196.619 21.5232 196.587 20.6071 196.652 19.9528C196.75 19.2985 196.767 18.8895 196.701 18.7259C196.636 18.5296 196.521 18.3497 196.358 18.1861C196.227 18.0225 196.194 17.679 196.26 17.1555C196.325 16.632 196.358 16.1249 196.358 15.6342C196.358 15.1434 196.358 14.6363 196.358 14.1129C196.456 11.8881 196.799 10.5467 197.388 10.0887C197.879 9.7288 198.386 9.5325 198.91 9.49979C199.728 9.46707 200.333 9.31984 200.725 9.05811C201.151 8.79638 201.494 8.58372 201.756 8.42013C203.392 7.50406 204.406 8.1584 204.799 10.3831C205.06 11.7572 205.224 13.6712 205.289 16.1249Z" fill="#99F877"/>
<g clip-path="url(#clip0)">
<path d="M43.6828 29.7658C42.9731 29.5887 42.246 29.4901 41.5147 29.471C39.8118 29.3479 37.6081 29.1796 36.0581 27.8365C36.134 28.8757 36.2882 29.9084 36.5195 30.9244C36.5373 30.9397 36.5605 30.9459 36.5775 30.9629C37.1886 31.574 38.7626 31.4973 41.0106 30.7474C42.372 30.3328 43.8299 30.3643 45.1722 30.8365C44.8041 30.3283 44.2818 29.9527 43.6828 29.7658Z" fill="white"/>
<path d="M16.3981 30.2769C16.6431 29.3773 16.8346 28.4645 16.9726 27.5426C14.7399 28.4496 12.2742 28.6142 9.94118 28.0118C8.6731 27.6516 7.31217 28.0852 6.48682 29.1129C7.91947 28.8322 9.40518 29.1377 10.6107 29.9606C13.1879 31.6818 14.3921 32.1672 16.3981 30.2769Z" fill="white"/>
<path d="M25.2874 16.8465C27.74 18.3314 30.7432 18.5368 33.3699 17.401C34.0316 17.1504 34.5315 16.5877 34.7095 15.8935C34.9382 13.9998 34.6266 12.0795 33.8151 10.3584L25.2874 16.8465Z" fill="#DC0303"/>
<path d="M28.7401 16.8465C26.2874 18.3314 23.2843 18.5368 20.6576 17.401C19.9959 17.1504 19.496 16.5877 19.3179 15.8935C19.0892 13.9998 19.4009 12.0795 20.2124 10.3584L28.7401 16.8465Z" fill="#DC0303"/>
<path d="M45.0698 1.3523L45.0553 1.34774H45.0465C44.9835 1.33323 44.9193 1.32577 44.855 1.32618C44.8074 1.31789 44.7593 1.31333 44.7108 1.31209C44.4753 1.33613 44.2589 1.45262 44.1093 1.63626C44.0371 1.72622 43.9828 1.82902 43.9493 1.93929C43.9393 1.99194 43.9343 2.045 43.9339 2.09847C43.9219 2.15734 43.9161 2.21703 43.9161 2.27673C44.137 4.5509 43.6392 6.24056 42.4358 7.29889C40.2043 9.25842 36.1207 8.75517 34.8049 8.52883C33.2649 5.29002 30.3648 3.08923 27.0406 3.08923C23.7159 3.08923 20.815 5.29002 19.2857 8.53753C17.9716 8.76678 13.8905 9.27625 11.6317 7.30593C10.4166 6.24595 9.90635 4.55546 10.1165 2.27838C10.1447 1.97121 10.0121 1.67108 9.76582 1.48537C9.51958 1.29965 9.19458 1.25447 8.90689 1.36639C8.51847 1.51521 -0.591067 5.23323 0.318435 24.5085C0.34082 24.984 0.732975 25.3579 1.20928 25.3575H1.25198C1.48785 25.3463 1.71005 25.2419 1.86923 25.0669C2.02842 24.892 2.11132 24.6611 2.09972 24.4248C1.99359 22.3189 2.02883 20.2081 2.20584 18.1068C2.57478 17.8324 2.98932 17.6259 3.43081 17.4966C4.64624 17.206 5.92717 17.4017 7.00083 18.0417C6.16885 13.9838 5.72529 8.23036 8.2913 3.82504L8.30125 3.81674C8.34021 4.79257 8.56531 5.75182 8.96368 6.64308C8.14828 9.30402 7.9265 12.1113 8.31451 14.8672C8.57153 14.3071 8.9529 13.8126 9.42963 13.4217C9.84914 13.0975 10.3507 12.8964 10.878 12.8417C10.7188 11.5633 10.7325 10.2695 10.9182 8.99477C11.4356 9.36827 12.001 9.67048 12.5988 9.89433C12.5238 10.7491 12.5362 11.6093 12.6353 12.4616C13.7156 12.0068 14.9281 11.9791 16.0283 12.3828C16.1589 12.4512 16.2845 12.5291 16.4043 12.6154C16.4623 11.9181 16.5726 11.2262 16.7338 10.5456C17.3527 10.5423 17.9712 10.5058 18.5864 10.437C17.8639 13.0639 18.0114 15.8546 19.0068 18.3912C19.0486 18.496 19.0702 18.6084 19.0702 18.7216C19.224 21.0268 19.202 23.3404 19.0043 25.6423C18.865 27.3494 18.5731 29.0407 18.1329 30.6956C18.1308 30.846 18.0902 30.9932 18.0148 31.123C16.7355 35.4947 14.441 38.0487 11.186 38.7008C7.60357 39.2878 4.56043 41.6465 3.09834 44.9695C2.39404 46.6595 2.19174 48.5167 2.51592 50.3183C3.38065 47.0459 5.96365 42.5693 13.5477 41.4015C17.019 40.9082 19.9391 38.547 21.1474 35.2551C20.987 34.4401 20.8506 33.5762 20.7429 32.6153C20.3971 29.2725 20.427 25.901 20.832 22.5652C20.8656 22.2427 21.0716 21.9641 21.3701 21.8372C21.6681 21.7108 22.0118 21.7564 22.2671 21.9558C22.5221 22.1556 22.6485 22.4785 22.5975 22.7982C22.2141 25.9918 22.1842 29.2181 22.5084 32.4184C22.6224 33.4357 22.7642 34.3439 22.9403 35.1975C23.0382 35.7132 23.1513 36.2148 23.2716 36.7118C24.0662 39.9315 23.895 42.3641 22.7115 44.8438C21.5931 47.2747 19.6576 49.2363 17.2425 50.3871C18.1304 50.4837 19.0287 50.4057 19.8868 50.157C21.3539 49.6641 22.6431 48.7496 23.5932 47.5276C25.1884 45.4619 26.2359 43.0269 26.6397 40.4481C26.8988 39.0067 26.9564 37.5359 26.8113 36.0784C26.6467 35.0673 26.3715 34.0774 25.9909 33.1264C25.5387 31.9985 25.2269 30.8187 25.064 29.6144C24.9293 28.1101 25.0338 26.5945 25.3737 25.1233C25.5805 24.1848 25.8587 23.2637 26.2048 22.3674C26.3852 21.9148 26.8955 21.6909 27.3502 21.865C27.8054 22.0387 28.0363 22.5457 27.8688 23.0033C27.5546 23.8142 27.3025 24.6482 27.1143 25.4972C26.8146 26.786 26.7205 28.1138 26.8354 29.4316C26.9875 30.4929 27.2673 31.5313 27.6694 32.5254C28.0976 33.6019 28.4044 34.7232 28.5839 35.8682C28.7485 37.494 28.6867 39.1348 28.4007 40.744C28.239 41.6743 28.0093 42.5916 27.7129 43.4883C27.7975 43.5841 27.8601 43.6972 27.8962 43.8195C27.9613 44.0467 29.2198 48.5648 27.9472 52.3039C29.5245 51.4695 31.494 49.6654 31.494 45.8441C31.467 44.0749 31.3054 42.3106 31.0102 40.5658V40.5409C30.7233 38.7132 30.3469 36.8299 29.9755 34.9782C29.1327 30.781 28.3381 26.8175 28.8434 24.2893C28.9537 23.8221 29.4142 23.5265 29.8847 23.6206C30.3556 23.7147 30.667 24.1649 30.589 24.6387C30.1542 26.8138 30.9161 30.6064 31.7211 34.6254C32.0776 36.4071 32.4391 38.2162 32.7252 39.9912C33.9808 41.6436 36.0829 42.4399 38.5146 43.3486C39.9009 43.8386 41.2593 44.4036 42.5846 45.0408C44.7095 45.9988 46.2583 47.9023 46.764 50.1777C47.2581 48.8176 47.3477 47.3435 47.0223 45.9333C46.2873 42.8238 43.4796 39.9092 39.1161 37.7278C34.7183 35.525 33.9907 29.0183 34.2171 23.6446C34.1848 23.3437 34.1661 23.0274 34.1661 22.6854C34.1694 22.5362 34.2113 22.3902 34.2884 22.2622C34.3543 21.3456 34.4405 20.4755 34.5367 19.6932C34.5367 19.6825 34.5437 19.6746 34.5458 19.6638C34.557 19.5631 34.5856 19.4648 34.6304 19.3736C35.5067 17.6392 35.9586 15.7211 35.9478 13.7777C35.9478 12.6494 35.7957 11.5264 35.4959 10.4386C36.1115 10.5078 36.7304 10.5443 37.3498 10.5481C37.5081 11.2155 37.6171 11.8937 37.6764 12.5772C37.778 12.5063 37.8833 12.4417 37.9919 12.3828C39.0921 11.9791 40.3046 12.0068 41.3849 12.4616C41.4832 11.6155 41.496 10.7615 41.423 9.91298C42.0208 9.69203 42.5867 9.39273 43.1057 9.02213C43.2864 10.2869 43.298 11.5699 43.1405 12.8372C43.6674 12.8919 44.169 13.0925 44.5885 13.4163C45.0656 13.8084 45.4474 14.3046 45.704 14.8663C46.0887 12.1233 45.8715 9.32931 45.0669 6.67873C45.4669 5.77255 45.6874 4.79713 45.7164 3.80721C48.2994 8.21419 47.8542 13.9784 47.0177 18.0417C48.0918 17.4029 49.3727 17.2068 50.5885 17.4958C51.0479 17.6288 51.4786 17.8456 51.8595 18.1346C51.8214 17.5928 51.7708 17.0791 51.7165 16.5747C51.9963 19.1809 52.0643 21.8053 51.9192 24.4223C51.9072 24.6586 51.9897 24.8899 52.1485 25.0653C52.3072 25.2406 52.5294 25.3459 52.7657 25.3575H52.8101C53.2855 25.3579 53.6777 24.9853 53.7009 24.5102C54.6631 4.68521 45.6638 1.5376 45.0698 1.3523ZM25.8885 16.1891C25.0421 17.0145 23.9294 17.5123 22.7496 17.594C22.2451 17.594 21.7477 17.4754 21.2979 17.2475C20.7051 16.9668 20.2661 16.4395 20.0978 15.8061C19.7053 14.3274 20.8258 12.5872 20.9547 12.3928C21.0907 12.1892 21.3046 12.0504 21.5458 12.0093C21.7871 11.9679 22.0346 12.0276 22.2302 12.1747L25.7932 14.8468C26.0001 15.0019 26.129 15.2386 26.1472 15.496C26.1655 15.7539 26.0714 16.0067 25.8885 16.1891ZM33.9829 15.8061C33.8154 16.4412 33.3764 16.9705 32.7828 17.2516C32.333 17.48 31.8356 17.5986 31.3311 17.5982C30.1513 17.5169 29.0386 17.019 28.1922 16.1937C28.0081 16.0109 27.9128 15.7572 27.931 15.4985C27.9492 15.2394 28.0794 15.0019 28.2875 14.8468L31.8505 12.1747C32.0461 12.0276 32.2936 11.9679 32.5349 12.0093C32.7761 12.0504 32.99 12.1892 33.126 12.3928C33.2549 12.5872 34.3754 14.3274 33.9829 15.8061Z" fill="#99F877"/>
</g>
<defs>
<clipPath id="clip0">
<rect x="0.254639" width="53.5182" height="53.5182" fill="white"/>
</clipPath>
</defs>
</svg>
