<svg width="143" height="40" viewBox="0 0 143 40" fill="none" xmlns="http://www.w3.org/2000/svg">
<path d="M31.7079 25.5048C34.0745 25.5048 36.1453 23.902 36.1453 20.5704V9.86871H33.7374V20.5704C33.7374 22.6351 32.4578 22.9431 31.6735 22.9431C30.2839 22.9431 29.8711 21.7952 29.8711 20.5704V9.86871H27.3532V20.5704V20.7594C27.3463 24.014 29.417 25.5048 31.7079 25.5048Z" fill="#012F59"/>
<path d="M40.6158 21.0323H44.3009C44.4077 22.3692 44.4812 23.748 44.4812 25.1618H46.8911C46.8911 23.328 46.7843 21.5293 46.5974 19.7305C46.3037 16.4059 45.7562 12.8853 43.9004 9.86871H41.0164C39.3007 12.7384 38.7199 16.0629 38.3193 19.7305C38.1725 21.5293 38.099 23.363 38.099 25.1618H40.469C40.469 23.748 40.509 22.3692 40.6158 21.0323ZM42.4784 12.5424C43.3529 14.4181 43.7935 16.3639 44.0472 18.5056H40.8762C41.1299 16.4829 41.6039 14.5301 42.4784 12.5424Z" fill="#012F59"/>
<path d="M51.4153 20.9133C52.0775 20.7594 52.6614 20.5704 53.2452 20.3394C53.9858 22.9781 55.4596 25.9597 58.6139 25.3508V22.9431C56.6701 23.363 55.9723 20.8783 55.5807 18.9676C56.8267 17.9387 57.6812 16.5599 57.7951 14.6841C57.7951 12.2764 56.5134 9.86871 53.4375 9.86871H48.8449V25.1618H51.4153V20.9133ZM51.4153 12.3534H53.4375C54.7975 12.3534 55.2674 13.4243 55.2674 14.6071C55.2674 15.678 54.5696 16.6369 53.5941 17.3578C52.9747 17.7777 52.2342 18.0857 51.4153 18.3517V12.3534Z" fill="#012F59"/>
<path d="M68.3788 15.909C68.275 12.4304 66.6082 9.86871 62.7817 9.86871H59.5908V25.1618H59.9086C66.3942 25.2738 68.4891 19.3875 68.3788 15.909ZM61.971 12.3884H62.7882C65.0582 12.3884 66.0116 13.6132 66.0116 15.867C66.0116 18.5056 64.7015 21.3753 61.971 22.2922V12.3884Z" fill="#012F59"/>
<path d="M71.8766 21.0323H75.5617C75.6685 22.3692 75.7419 23.748 75.7419 25.1618H78.1519C78.1519 23.328 78.0451 21.5293 77.8582 19.7305C77.5644 16.4059 77.017 12.8853 75.1611 9.86871H72.2771C70.5615 12.7384 69.9807 16.0629 69.5801 19.7305C69.4332 21.5293 69.3598 23.363 69.3598 25.1618H71.7297C71.7297 23.748 71.7698 22.3692 71.8766 21.0323ZM73.7392 12.5424C74.6137 14.4181 75.0543 16.3639 75.308 18.5056H72.137C72.3906 16.4829 72.8646 14.5301 73.7392 12.5424Z" fill="#012F59"/>
<path d="M125.618 35.7515C118.786 36.3604 113.928 30.8591 110.892 24.9729L107.889 18.8206C111.649 17.4838 114.644 14.2712 114.345 9.07083C114.158 4.75237 109.905 -0.56697 101.245 0.0489533C94.2611 0.545892 87.3533 6.39717 87.9579 15.1531C88.3748 22.0332 93.6496 26.4707 99.6888 26.5827C99.4247 28.7244 98.7367 30.4042 97.2564 30.9011H92.3222V33.3508H98.2085C100.029 33.3508 102.385 33.5048 103.33 35.1846L105.346 33.6588C104.171 31.979 102.615 31.3281 100.829 31.0621C101.586 29.8023 102.003 28.1925 102.198 26.3587C102.955 26.2467 103.713 26.0507 104.477 25.7848L103.414 23.643L102.35 23.909V23.3771V19.5555C103.372 19.6325 104.401 19.5905 105.422 19.4435C106.333 21.2003 107.055 22.9991 108.688 26.1347C112.031 32.7139 117.57 38.8661 125.812 38.2572C129.19 37.9492 132.533 36.6124 134.812 33.7078L132.838 32.105C131.045 34.4147 128.391 35.4856 125.618 35.7515ZM102.344 17.2458V4.74537H99.8764V16.5949L99.2718 16.2519L98.2085 18.6596C98.7784 18.9256 99.3066 19.0446 99.8764 19.1916V23.3561V24.119C95.0951 24.007 90.7308 20.8714 90.3138 14.9851C89.8204 7.22306 96.3877 2.71562 101.322 2.29568C108.953 1.79874 111.878 5.92822 112.066 9.48378C112.372 15.489 106.791 17.7428 102.344 17.2458Z" fill="#012F59"/>
<path d="M120.302 25.3508C121.84 25.3508 123.091 24.3569 124.06 22.8241L122.024 21.4873C121.415 22.5162 120.845 22.7891 120.308 22.7891C119.844 22.7891 119.163 22.5232 118.554 21.4873C118.122 20.7594 117.84 19.9195 117.696 18.8906H122.024V16.3639H117.664C117.808 15.335 118.096 14.3342 118.56 13.5363C119.169 12.5074 119.85 12.1994 120.315 12.1994C120.852 12.1994 121.421 12.5074 122.03 13.5363L124.066 12.1994C123.104 10.6666 121.847 9.63776 120.308 9.63776C118.77 9.63776 117.48 10.6666 116.59 12.1994C114.835 15.1811 114.835 19.8075 116.59 22.8311C117.48 24.3219 118.763 25.3508 120.302 25.3508Z" fill="#012F59"/>
<path d="M131.489 9.86871H128.285C126.378 12.7384 125.733 16.0629 125.288 19.7305C125.125 21.5293 125.043 23.363 125.043 25.1618H127.676C127.676 23.748 127.713 22.3692 127.839 21.0323H131.934C132.053 22.3692 132.134 23.748 132.134 25.1618H134.812C134.812 23.328 134.693 21.5293 134.486 19.7305C134.159 16.4059 133.551 12.8853 131.489 9.86871ZM128.129 18.5056C128.411 16.4759 128.937 14.5301 129.909 12.5424C130.881 14.4181 131.37 16.3639 131.652 18.5056H128.129Z" fill="#012F59"/>
<path d="M138.518 22.6351V9.86871H135.789V25.1618H142.627V22.6351H138.518Z" fill="#012F59"/>
<path d="M69.3736 35.3596C65.006 35.2756 60.4354 34.0227 55.6058 32.6999C48.3754 30.7191 40.8931 28.6684 33.6347 30.5862C29.834 31.587 26.3833 32.7629 23.5136 33.8688C23.8286 32.8749 23.9756 31.79 23.9756 30.6282V21.2213H21.3018V25.4628C19.349 27.6045 16.7522 28.9834 13.6585 28.8644C7.541 28.6754 2.10948 23.3981 2.52944 15.902C2.9494 8.67888 7.26802 3.21255 13.5815 2.90459C17.5991 2.71562 22.0717 5.50127 22.3727 10.5476C22.6807 14.8311 20.3079 17.8477 17.1722 17.4278C15.6813 17.2738 15.1843 15.902 14.7644 14.4042L12.3146 15.1321C13.0425 18.4567 14.9114 19.6815 17.0182 19.8705C21.2598 20.2904 25.2354 16.2029 24.8155 10.4287C24.5075 3.77948 18.887 0.335912 13.6165 0.447898C5.85415 0.650873 0.310633 7.30705 0.0096591 16.098C-0.298314 25.2738 6.81306 31.2021 13.5045 31.3911C16.8292 31.503 19.202 30.6282 21.3018 28.9414V30.6212C21.3018 32.112 20.9938 33.2178 20.5739 33.9877C20.1119 34.8276 19.454 35.5345 18.495 35.9545C16.3322 36.9274 15.0443 37.6133 14.9184 37.6763L16.1572 40C16.2342 39.958 24.0456 35.8285 34.3067 33.1268C40.8791 31.3911 48.0115 33.3508 54.9058 35.2336C64.579 37.8863 74.5741 40.6229 83.0364 33.1198L81.2865 31.1461C77.9408 34.1207 74.1542 35.4576 69.3736 35.3596Z" fill="#012F59"/>
</svg>
