<svg width="20" height="20" viewBox="0 0 20 20" fill="none" xmlns="http://www.w3.org/2000/svg">
<path d="M20 16.0943C20 15.6734 19.8317 15.2525 19.5286 14.9495L14.5791 10L19.5286 5.05051C19.8317 4.74748 20 4.3266 20 3.90573C20 3.48485 19.8317 3.06397 19.5286 2.76094L17.2391 0.47138C16.936 0.16835 16.5152 0 16.0943 0C15.6734 0 15.2525 0.16835 14.9495 0.47138L10 5.42088L5.05051 0.47138C4.74748 0.16835 4.3266 0 3.90572 0C3.48485 0 3.06397 0.16835 2.76094 0.47138L0.47138 2.76094C0.16835 3.06397 0 3.48485 0 3.90573C0 4.3266 0.16835 4.74748 0.47138 5.05051L5.42088 10L0.47138 14.9495C0.16835 15.2525 0 15.6734 0 16.0943C0 16.5152 0.16835 16.936 0.47138 17.2391L2.76094 19.5286C3.06397 19.8316 3.48485 20 3.90572 20C4.3266 20 4.74748 19.8316 5.05051 19.5286L10 14.5791L14.9495 19.5286C15.2525 19.8316 15.6734 20 16.0943 20C16.5152 20 16.936 19.8316 17.2391 19.5286L19.5286 17.2391C19.8317 16.936 20 16.5152 20 16.0943Z" fill="#012F59"/>
</svg>
