<svg width="311" height="510" viewBox="0 0 311 510" fill="none" xmlns="http://www.w3.org/2000/svg">
<path d="M237.702 30.8819C237.784 31.2122 237.702 31.625 237.702 31.9553C237.702 32.3682 237.702 32.781 238.032 33.0287C238.527 33.6067 238.692 34.2673 238.692 34.9279C238.692 35.1756 239.023 35.2582 239.105 35.0105V34.9279C239.353 34.1847 239.766 34.1022 240.426 34.2673C241.087 34.4325 241.665 34.5976 241.995 35.2582C242.325 36.0013 242.49 36.7445 242.573 37.5702C242.573 38.0656 242.573 38.561 242.573 38.9739C242.573 39.6345 242.738 40.2125 243.233 40.7079C243.811 41.3685 243.564 42.1942 243.481 42.9373C243.151 44.6714 242.573 46.3228 241.995 47.8917C241.83 48.3045 241.747 48.7174 241.665 49.0477C241.582 49.2954 241.582 49.5431 241.747 49.7908C242.243 50.3688 242.243 51.0294 241.995 51.69C241.665 52.846 241.252 53.9194 240.591 54.9103L240.509 54.9928C239.766 55.2405 239.601 55.9011 239.435 56.5617C239.435 56.7268 239.518 56.8094 239.683 56.8094C240.426 56.6443 240.674 56.9745 240.591 57.8828C240.591 58.3783 240.591 58.626 241.087 58.7911C241.417 58.8737 241.499 59.204 241.417 59.5343C241.417 59.782 241.334 60.0297 241.334 60.36C241.334 60.36 241.334 60.36 241.334 60.4426C241.004 61.9288 240.426 63.4151 239.848 64.8189C239.683 65.1492 239.601 65.3969 239.931 65.7271C240.178 65.9749 240.096 66.2226 240.013 66.5529C239.353 68.3694 238.445 70.0209 237.371 71.5072C237.289 71.6723 237.124 71.7549 237.124 71.92C237.124 72.3329 236.876 72.7458 236.546 73.076C236.546 73.076 236.546 73.076 236.463 73.076C235.72 73.5715 235.637 74.3972 235.39 75.1403C235.225 75.4706 235.72 75.7183 235.72 76.0486C235.72 76.1312 235.72 76.2138 235.72 76.2138C235.307 77.4523 234.564 78.6083 233.738 79.5992C233.573 79.8469 233.408 80.0946 233.078 80.0121C232.748 79.9295 232.748 79.6818 232.665 79.4341C232.335 78.4432 231.674 77.7001 230.931 77.0395C230.931 77.0395 230.931 77.0395 230.849 77.0395C230.188 76.7092 229.528 76.5441 228.867 77.2046C228.62 77.4523 228.372 77.2872 228.124 77.2046C227.298 76.8743 226.803 77.0395 226.308 77.7001C225.977 78.1129 225.565 78.1955 224.904 77.9478C224.904 77.9478 224.822 77.9478 224.822 77.8652C224.078 76.9569 223.996 75.8009 223.666 74.7275C223.418 73.7366 223.418 72.6632 223.253 71.5897C223.17 71.1769 223.005 70.764 222.757 70.4337C222.18 69.608 222.18 68.6997 222.18 67.7914C222.18 67.296 222.097 66.8006 222.014 66.2226C221.932 65.8923 221.849 65.4794 221.849 65.1492C221.849 64.406 221.932 63.5803 221.519 62.8371C221.189 62.2591 220.941 61.2683 220.941 60.6903C220.858 59.2866 220.611 57.8003 221.106 56.314C221.354 55.5708 221.271 54.6625 221.271 53.7542C221.271 52.5157 221.436 51.3597 221.849 50.1211C222.097 49.4605 222.18 49.2954 222.757 49.3779C222.923 49.3779 223.005 49.2954 223.005 49.1302C222.84 48.3871 222.84 47.7265 222.345 47.0659C221.767 46.2402 221.932 45.3319 222.014 44.4236C222.014 43.1851 222.262 41.8639 222.427 40.6253C222.675 38.9739 223.253 37.405 224.161 36.0839C224.574 35.5059 224.822 34.8453 225.069 34.1847C225.565 32.781 226.308 31.625 227.381 30.6342C227.794 30.2213 228.207 30.0562 228.785 30.3039C229.032 30.469 229.197 30.3039 229.363 30.1387C229.941 29.6433 230.518 29.313 231.262 29.1479C231.757 28.9827 232.005 28.735 232.417 28.2396C233.161 27.1661 237.702 28.9001 237.702 30.8819Z" fill="#8B0019"/>
<path d="M176.274 161.51L184.448 192.97L205.419 217.494L229.032 222.613L246.04 219.063L266.929 205.439L277.58 183.887L280.635 165.474L210.043 162.419L176.274 161.51Z" fill="#E2BA93"/>
<path d="M252.728 213.778C247.939 223.687 211.199 222.944 205.419 213.778C205.502 213.778 205.419 238.467 205.419 238.467C205.419 238.467 219.537 245.899 229.115 242.596C238.692 245.899 252.811 238.467 252.811 238.467C252.811 238.467 252.563 213.778 252.728 213.778Z" fill="#000400"/>
<path d="M285.341 236.486C262.553 236.486 253.389 236.486 253.389 236.486C234.812 243.752 223.17 243.752 204.593 236.486C204.593 236.486 195.429 236.486 172.641 236.486C149.854 236.486 134.497 246.89 134.497 275.047C134.497 303.286 132.02 454.31 132.02 454.31H162.321L164.798 286.937V488.495H229.032H293.267V286.937L295.744 454.31H326.045C326.045 454.31 323.568 303.286 323.568 275.047C323.485 246.807 308.211 236.486 285.341 236.486Z" fill="#1170B7"/>
<path d="M226.721 241.853V488.495H229.032H231.344V241.853C229.775 241.853 228.207 241.853 226.721 241.853Z" fill="#EAD300"/>
<path d="M162.321 454.31H132.02V458.851H162.321V454.31Z" fill="#EAD300"/>
<path d="M162.321 458.769H132.02V480.733H162.321V458.769Z" fill="#000400"/>
<path d="M132.02 480.733C132.02 480.733 130.121 502.119 143.001 506.991C155.881 511.78 162.321 503.688 162.321 498.733C162.321 493.779 162.321 480.733 162.321 480.733H132.02Z" fill="#E2BA93"/>
<path d="M326.045 454.31H295.744V458.851H326.045V454.31Z" fill="#EAD300"/>
<path d="M326.045 458.769H295.744V480.733H326.045V458.769Z" fill="#000400"/>
<path d="M325.962 480.733C325.962 480.733 327.861 502.119 314.981 506.991C302.101 511.78 295.661 503.688 295.661 498.733C295.661 493.779 295.661 480.733 295.661 480.733H325.962Z" fill="#E2BA93"/>
<path d="M301.193 728.613L267.507 707.97L283.442 488.495H229.032H174.623L190.558 707.97L156.871 728.613H223.748V507.156L229.032 506.908L234.316 507.156V728.613H301.193Z" fill="#000400"/>
<path d="M267.672 320.461H190.31C188.081 320.461 186.347 318.644 186.347 316.498C186.347 314.268 188.163 312.534 190.31 312.534H267.672C269.901 312.534 271.635 314.351 271.635 316.498C271.718 318.727 269.901 320.461 267.672 320.461Z" fill="#012F59"/>
<path d="M307.468 241.853H273.865C271.635 241.853 269.901 240.036 269.901 237.889C269.901 235.66 271.718 233.926 273.865 233.926H307.468C309.697 233.926 311.431 235.742 311.431 237.889C311.514 240.036 309.697 241.853 307.468 241.853Z" fill="#EAD300"/>
<path d="M184.118 241.853H150.514C148.285 241.853 146.551 240.036 146.551 237.889C146.551 235.66 148.367 233.926 150.514 233.926H184.118C186.347 233.926 188.081 235.742 188.081 237.889C188.081 240.036 186.347 241.853 184.118 241.853Z" fill="#EAD300"/>
<path d="M267.672 356.545H190.31C188.081 356.545 186.347 354.728 186.347 352.581C186.347 350.352 188.163 348.618 190.31 348.618H267.672C269.901 348.618 271.635 350.435 271.635 352.581C271.718 354.811 269.901 356.545 267.672 356.545Z" fill="#012F59"/>
<path d="M267.672 392.629H190.31C188.081 392.629 186.347 390.812 186.347 388.665C186.347 386.436 188.163 384.702 190.31 384.702H267.672C269.901 384.702 271.635 386.518 271.635 388.665C271.718 390.895 269.901 392.629 267.672 392.629Z" fill="#012F59"/>
<path d="M186.347 322.69C189.767 322.69 192.539 319.918 192.539 316.498C192.539 313.077 189.767 310.305 186.347 310.305C182.927 310.305 180.154 313.077 180.154 316.498C180.154 319.918 182.927 322.69 186.347 322.69Z" fill="#EAD300"/>
<path d="M211.116 193.961C212.849 193.961 214.253 192.556 214.253 190.823C214.253 189.09 212.849 187.686 211.116 187.686C209.383 187.686 207.979 189.09 207.979 190.823C207.979 192.556 209.383 193.961 211.116 193.961Z" fill="#000400"/>
<path d="M245.793 193.961C247.526 193.961 248.93 192.556 248.93 190.823C248.93 189.09 247.526 187.686 245.793 187.686C244.06 187.686 242.655 189.09 242.655 190.823C242.655 192.556 244.06 193.961 245.793 193.961Z" fill="#000400"/>
<path d="M271.718 322.69C275.138 322.69 277.91 319.918 277.91 316.498C277.91 313.077 275.138 310.305 271.718 310.305C268.298 310.305 265.526 313.077 265.526 316.498C265.526 319.918 268.298 322.69 271.718 322.69Z" fill="#EAD300"/>
<path d="M186.347 358.774C189.767 358.774 192.539 356.002 192.539 352.581C192.539 349.161 189.767 346.389 186.347 346.389C182.927 346.389 180.154 349.161 180.154 352.581C180.154 356.002 182.927 358.774 186.347 358.774Z" fill="#EAD300"/>
<path d="M271.718 358.774C275.138 358.774 277.91 356.002 277.91 352.581C277.91 349.161 275.138 346.389 271.718 346.389C268.298 346.389 265.526 349.161 265.526 352.581C265.526 356.002 268.298 358.774 271.718 358.774Z" fill="#EAD300"/>
<path d="M186.347 394.858C189.767 394.858 192.539 392.086 192.539 388.665C192.539 385.245 189.767 382.472 186.347 382.472C182.927 382.472 180.154 385.245 180.154 388.665C180.154 392.086 182.927 394.858 186.347 394.858Z" fill="#EAD300"/>
<path d="M271.718 394.858C275.138 394.858 277.91 392.086 277.91 388.665C277.91 385.245 275.138 382.472 271.718 382.472C268.298 382.472 265.526 385.245 265.526 388.665C265.526 392.086 268.298 394.858 271.718 394.858Z" fill="#EAD300"/>
<path d="M229.032 78.4431C194.108 78.4431 168.843 88.682 168.843 88.682C168.843 88.682 170.907 128.894 175.696 170.758C180.402 212.044 211.199 225.999 229.032 225.999C246.784 225.999 277.91 212.044 282.203 170.758C286.579 128.894 289.221 88.682 289.221 88.682C289.221 88.682 263.957 78.4431 229.032 78.4431ZM255.37 211.301C245.958 217.989 235.555 220.384 229.032 220.384C222.51 220.384 212.107 217.989 202.694 211.301C196.089 206.594 185.769 196.438 180.65 173.236C192.704 184.465 265.608 183.392 277.58 173.236C274.608 193.548 261.975 206.594 255.37 211.301Z" fill="#012F59"/>
<path d="M229.032 87.8564C232.452 87.8564 235.225 85.0837 235.225 81.6635C235.225 78.2432 232.452 75.4706 229.032 75.4706C225.612 75.4706 222.84 78.2432 222.84 81.6635C222.84 85.0837 225.612 87.8564 229.032 87.8564Z" fill="#EAD300"/>
<path d="M264.287 166.63C251.903 167.125 254.875 162.006 249.095 161.51C243.316 161.015 237.041 152.262 228.95 152.262C220.858 152.262 214.584 161.015 208.804 161.51C203.025 162.006 206.08 167.125 193.612 166.63C181.228 166.134 180.567 173.153 180.567 173.153H277.415C277.415 173.153 276.754 166.134 264.287 166.63Z" fill="#EAD300"/>
<path d="M239.848 206.017C237.702 203.952 235.059 200.319 229.032 200.319C221.767 200.319 220.363 203.952 218.216 206.017C216.07 208.081 213.097 208.329 210.538 207.668C210.538 207.668 212.354 213.365 218.547 211.384C224.822 209.402 224.987 207.585 229.032 207.585C233.078 207.585 233.243 209.402 239.518 211.384C245.793 213.365 247.527 207.668 247.527 207.668C244.967 208.329 241.995 208.081 239.848 206.017Z" fill="#000400"/>
<path d="M249.426 167.868C248.6 167.125 248.105 166.63 246.701 166.547C243.976 166.299 241.417 164.648 238.775 162.831C235.72 160.767 232.5 158.703 228.95 158.703C225.482 158.703 222.262 160.85 219.125 162.831C216.4 164.648 213.841 166.299 211.199 166.547C209.795 166.63 209.382 167.125 208.474 167.868C206.657 169.52 203.85 170.345 203.85 173.153H253.967C254.049 170.345 251.242 169.52 249.426 167.868Z" fill="#E8B100"/>
</svg>
