<svg width="25" height="20" viewBox="0 0 25 20" fill="none" xmlns="http://www.w3.org/2000/svg">
<path d="M24.4444 17C24.4444 16.4531 23.9829 16 23.4259 16H1.01852C0.461516 16 0 16.4531 0 17V19C0 19.5469 0.461516 20 1.01852 20H23.4259C23.9829 20 24.4444 19.5469 24.4444 19V17ZM24.4444 9C24.4444 8.45313 23.9829 8 23.4259 8H1.01852C0.461516 8 0 8.45313 0 9V11C0 11.5469 0.461516 12 1.01852 12H23.4259C23.9829 12 24.4444 11.5469 24.4444 11V9ZM24.4444 1C24.4444 0.453125 23.9829 0 23.4259 0H1.01852C0.461516 0 0 0.453125 0 1V3C0 3.54688 0.461516 4 1.01852 4H23.4259C23.9829 4 24.4444 3.54688 24.4444 3V1Z" fill="#012F59"/>
</svg>
